<?xml version="1.0" encoding="UTF-8" standalone="no"?>
<!-- Created with Inkscape (http://www.inkscape.org/) -->

<svg
   version="1.1"
   id="svg2"
   xml:space="preserve"
   width="181.53333"
   height="125.58667"
   viewBox="0 0 181.53333 125.58667"
   sodipodi:docname="DHBW_StuV_MOS_Zeichen_rgb.eps"
   xmlns:inkscape="http://www.inkscape.org/namespaces/inkscape"
   xmlns:sodipodi="http://sodipodi.sourceforge.net/DTD/sodipodi-0.dtd"
   xmlns="http://www.w3.org/2000/svg"
   xmlns:svg="http://www.w3.org/2000/svg"><defs
     id="defs6" /><sodipodi:namedview
     id="namedview4"
     pagecolor="#ffffff"
     bordercolor="#666666"
     borderopacity="1.0"
     inkscape:pageshadow="2"
     inkscape:pageopacity="0.0"
     inkscape:pagecheckerboard="0" /><g
     id="g8"
     inkscape:groupmode="layer"
     inkscape:label="ink_ext_XXXXXX"
     transform="matrix(1.3333333,0,0,-1.3333333,0,125.58667)"><g
       id="g10"
       transform="scale(0.1)"><path
         d="m 623.168,231.25 c 0,-5.633 -1.016,-10.73 -3.055,-15.293 -2.043,-4.559 -4.894,-8.496 -8.554,-11.797 -3.664,-3.301 -8.008,-5.84 -13.047,-7.637 -5.039,-1.804 -10.559,-2.703 -16.563,-2.703 -3.359,0 -6.691,0.243 -9.992,0.711 -3.301,0.489 -6.328,1.055 -9.082,1.719 -2.762,0.656 -5.195,1.348 -7.293,2.07 -2.102,0.723 -3.574,1.25 -4.414,1.621 -0.957,0.469 -1.711,1.25 -2.246,2.336 -0.539,1.082 -0.567,2.215 -0.09,3.426 l 3.418,9.356 c 0.48,1.191 1.289,2.031 2.434,2.519 1.14,0.481 2.246,0.422 3.328,-0.176 0.722,-0.371 1.914,-0.879 3.605,-1.543 1.668,-0.652 3.621,-1.308 5.848,-1.972 2.219,-0.664 4.59,-1.258 7.109,-1.797 2.52,-0.547 4.973,-0.82 7.375,-0.82 6.004,0 10.742,1.562 14.219,4.687 3.484,3.125 5.223,7.199 5.223,12.246 0,3.235 -1.289,6.203 -3.868,8.906 -2.585,2.696 -5.789,5.332 -9.628,7.911 -3.848,2.589 -8.047,5.195 -12.606,7.832 -4.562,2.636 -8.762,5.488 -12.598,8.554 -3.839,3.067 -7.05,6.387 -9.628,9.992 -2.579,3.602 -3.868,7.676 -3.868,12.235 0,5.039 0.868,9.668 2.606,13.867 1.738,4.199 4.258,7.832 7.558,10.891 3.301,3.054 7.325,5.457 12.063,7.195 4.734,1.738 10.047,2.617 15.926,2.617 3.242,0 6.359,-0.254 9.367,-0.723 2.996,-0.488 5.762,-1.054 8.281,-1.718 2.52,-0.653 4.649,-1.289 6.387,-1.883 1.738,-0.598 2.91,-1.027 3.504,-1.262 0.968,-0.488 1.738,-1.258 2.343,-2.344 0.598,-1.074 0.657,-2.214 0.176,-3.418 l -3.418,-8.816 c -0.476,-1.203 -1.289,-2.07 -2.429,-2.609 -1.145,-0.547 -2.305,-0.508 -3.508,0.09 -0.606,0.242 -1.649,0.652 -3.153,1.257 -1.496,0.606 -3.273,1.231 -5.304,1.895 -2.039,0.656 -4.141,1.23 -6.297,1.699 -2.168,0.488 -4.141,0.723 -5.949,0.723 -5.633,0 -9.832,-1.289 -12.598,-3.867 -2.762,-2.579 -4.141,-6.094 -4.141,-10.528 0,-2.761 1.289,-5.398 3.868,-7.929 2.589,-2.52 5.82,-5.04 9.726,-7.559 3.899,-2.52 8.125,-5.117 12.688,-7.82 4.558,-2.707 8.789,-5.645 12.695,-8.821 3.894,-3.183 7.137,-6.699 9.715,-10.527 2.578,-3.848 3.867,-8.105 3.867,-12.793"
         style="fill:#ea1f26;fill-opacity:1;fill-rule:nonzero;stroke:none"
         id="path12" /><path
         d="m 689.945,198.41 c -0.605,-1.262 -1.375,-2.07 -2.343,-2.433 -0.957,-0.36 -2.813,-0.809 -5.575,-1.348 -2.765,-0.547 -5.402,-0.809 -7.922,-0.809 -4.558,0 -8.367,0.653 -11.425,1.981 -3.067,1.308 -5.586,3.058 -7.559,5.215 -1.98,2.168 -3.398,4.621 -4.238,7.382 -0.84,2.754 -1.258,5.637 -1.258,8.633 v 52.746 h -10.801 c -1.32,0 -2.363,0.391 -3.144,1.172 -0.782,0.77 -1.172,1.824 -1.172,3.153 v 7.734 c 0,1.32 0.39,2.402 1.172,3.242 0.781,0.84 1.824,1.262 3.144,1.262 h 10.801 v 19.98 c 0,1.317 0.391,2.391 1.172,3.231 0.781,0.84 1.824,1.269 3.152,1.269 h 11.516 c 1.316,0 2.402,-0.429 3.242,-1.269 0.84,-0.84 1.258,-1.914 1.258,-3.231 v -19.98 h 14.219 c 1.32,0 2.402,-0.422 3.242,-1.262 0.84,-0.84 1.262,-1.922 1.262,-3.242 v -7.734 c 0,-1.329 -0.422,-2.383 -1.262,-3.153 -0.84,-0.781 -1.922,-1.172 -3.242,-1.172 H 669.965 V 218.84 c 0,-0.723 0.09,-1.594 0.273,-2.61 0.176,-1.023 0.481,-1.953 0.899,-2.792 l 1.797,-2.168 c 0.781,-0.594 1.828,-0.899 3.156,-0.899 0.957,0 1.98,0.156 3.055,0.449 1.085,0.305 1.808,0.578 2.16,0.821 1.082,0.597 2.168,0.625 3.242,0.089 1.082,-0.539 1.863,-1.359 2.344,-2.433 l 3.242,-7.383 c 0.469,-1.074 0.41,-2.246 -0.188,-3.504"
         style="fill:#ea1f26;fill-opacity:1;fill-rule:nonzero;stroke:none"
         id="path14" /><path
         d="m 781.48,199.57 c -0.898,-0.84 -1.835,-1.375 -2.792,-1.609 -0.84,-0.246 -2.286,-0.606 -4.317,-1.086 -2.051,-0.477 -4.414,-0.926 -7.109,-1.348 -2.696,-0.418 -5.528,-0.808 -8.457,-1.172 -2.95,-0.359 -5.664,-0.535 -8.184,-0.535 -6.133,0 -11.582,0.809 -16.387,2.43 -4.804,1.621 -8.847,3.867 -12.148,6.75 -3.309,2.879 -5.824,6.238 -7.57,10.078 -1.739,3.836 -2.606,7.977 -2.606,12.422 v 56.336 c 0,1.32 0.379,2.402 1.16,3.242 0.782,0.84 1.836,1.262 3.153,1.262 h 11.527 c 1.328,0 2.363,-0.422 3.145,-1.262 0.781,-0.84 1.171,-1.922 1.171,-3.242 v -54.539 c 0,-2.043 0.391,-4.055 1.172,-6.027 0.782,-1.981 1.953,-3.79 3.516,-5.411 1.562,-1.609 3.476,-2.929 5.762,-3.953 2.265,-1.027 4.98,-1.535 8.105,-1.535 2.149,0 4.453,0.215 6.914,0.637 2.461,0.418 4.18,0.808 5.137,1.172 v 69.656 c 0,1.32 0.391,2.402 1.172,3.242 0.781,0.84 1.816,1.262 3.144,1.262 h 11.524 c 1.328,0 2.363,-0.422 3.144,-1.262 0.782,-0.84 1.172,-1.922 1.172,-3.242 v -79.375 c 0,-1.082 -0.449,-2.051 -1.348,-2.891"
         style="fill:#ea1f26;fill-opacity:1;fill-rule:nonzero;stroke:none"
         id="path16" /><path
         d="m 864.918,200.48 c -0.352,-1.203 -0.996,-2.257 -1.895,-3.156 -0.898,-0.898 -2.011,-1.347 -3.32,-1.347 h -14.219 c -1.328,0 -2.441,0.449 -3.339,1.347 -0.899,0.899 -1.524,1.953 -1.895,3.156 l -34.727,111.063 c -0.371,1.191 -0.175,2.246 0.528,3.145 0.722,0.898 1.738,1.347 3.066,1.347 h 13.145 c 1.308,0 2.461,-0.449 3.418,-1.347 0.957,-0.899 1.621,-1.954 1.972,-3.145 l 25.743,-91.445 25.019,91.445 c 0.371,1.191 1.016,2.246 1.992,3.145 0.957,0.898 2.09,1.347 3.418,1.347 h 12.227 c 1.328,0 2.324,-0.449 2.969,-1.347 0.664,-0.899 0.82,-1.954 0.468,-3.145 L 864.918,200.48"
         style="fill:#ea1f26;fill-opacity:1;fill-rule:nonzero;stroke:none"
         id="path18" /><path
         d="m 578.191,104.602 c 0,-2.266 -0.398,-4.356 -1.211,-6.27 -0.804,-1.914 -1.953,-3.5547 -3.429,-4.9218 -1.485,-1.3789 -3.262,-2.4532 -5.332,-3.2344 -2.074,-0.7813 -4.379,-1.1719 -6.91,-1.1719 -1.454,0 -2.911,0.1172 -4.368,0.3633 -1.449,0.2422 -2.796,0.5351 -4.035,0.8867 -1.242,0.3516 -2.304,0.7031 -3.195,1.0547 l -1.898,0.8398 1.699,5.1758 1.738,-0.8867 c 0.836,-0.3828 1.801,-0.7539 2.906,-1.1328 1.102,-0.3828 2.289,-0.7031 3.559,-0.9688 1.265,-0.2734 2.461,-0.4101 3.594,-0.4101 1.671,0 3.164,0.2656 4.484,0.7734 1.32,0.5078 2.449,1.211 3.391,2.0977 0.945,0.8906 1.66,1.9258 2.144,3.1172 0.485,1.1799 0.727,2.4219 0.727,3.7109 0,1.836 -0.578,3.477 -1.739,4.93 -1.156,1.457 -2.625,2.832 -4.402,4.121 -1.777,1.289 -3.68,2.558 -5.695,3.801 -2.02,1.238 -3.918,2.558 -5.699,3.953 -1.778,1.406 -3.247,2.922 -4.403,4.57 -1.156,1.641 -1.738,3.516 -1.738,5.617 0,2.039 0.375,3.926 1.133,5.653 0.754,1.718 1.801,3.214 3.148,4.484 1.348,1.269 2.965,2.266 4.852,2.988 1.883,0.731 3.957,1.094 6.218,1.094 1.293,0 2.614,-0.117 3.961,-0.363 1.348,-0.243 2.614,-0.528 3.797,-0.848 1.188,-0.324 2.196,-0.645 3.032,-0.969 l 1.734,-0.73 -1.691,-5.012 -1.657,0.852 c -0.84,0.351 -1.777,0.683 -2.832,1.004 -1.051,0.332 -2.14,0.617 -3.273,0.851 -1.125,0.242 -2.153,0.371 -3.071,0.371 -3.015,0 -5.316,-0.762 -6.906,-2.265 -1.59,-1.516 -2.386,-3.555 -2.386,-6.145 0,-1.609 0.597,-3.086 1.777,-4.402 1.187,-1.321 2.656,-2.61 4.406,-3.879 1.75,-1.27 3.652,-2.528 5.695,-3.797 2.047,-1.27 3.95,-2.629 5.7,-4.082 1.75,-1.457 3.218,-3.067 4.402,-4.844 1.184,-1.777 1.773,-3.769 1.773,-5.976"
         style="fill:#546371;fill-opacity:1;fill-rule:nonzero;stroke:none"
         id="path20" /><path
         d="m 605.508,89.8555 -1.617,-0.3711 -1.899,-0.3242 -1.816,-0.1563 c -1.617,0 -2.981,0.2461 -4.082,0.7227 -1.106,0.4882 -1.992,1.1445 -2.664,1.9843 -0.676,0.8282 -1.16,1.7852 -1.457,2.8711 -0.293,1.0743 -0.446,2.1758 -0.446,3.3086 V 125.93 h -6.785 v 4.609 h 6.785 v 10.984 h 5.578 v -10.984 h 7.997 v -4.609 h -7.997 V 98.457 c 0,-1.1328 0.254,-2.2265 0.766,-3.2695 0.512,-1.0547 1.387,-1.582 2.625,-1.582 0.758,0 1.59,0.1445 2.508,0.4492 0.918,0.293 1.539,0.5469 1.859,0.7617 l 1.696,-4.6016 -1.051,-0.3593"
         style="fill:#546371;fill-opacity:1;fill-rule:nonzero;stroke:none"
         id="path22" /><path
         d="m 639.203,89.9727 v 5.7304 l -1.09,-1.5312 c -0.562,-0.7539 -1.304,-1.5039 -2.218,-2.2578 -0.918,-0.7618 -1.977,-1.4336 -3.196,-2.0196 -1.211,-0.5976 -2.543,-0.8906 -4,-0.8906 -2.207,0 -4.105,0.3906 -5.691,1.1719 -1.59,0.7812 -2.895,1.7969 -3.922,3.0664 -1.023,1.2695 -1.777,2.7344 -2.262,4.4062 -0.484,1.668 -0.726,3.3986 -0.726,5.1756 v 27.715 h 5.578 v -27.238 c 0,-1.238 0.144,-2.43 0.441,-3.594 0.293,-1.1601 0.738,-2.1757 1.336,-3.0664 0.59,-0.8867 1.371,-1.6211 2.344,-2.1875 0.965,-0.5664 2.152,-0.8476 3.555,-0.8476 1.289,0 2.503,0.3398 3.632,1.0156 1.133,0.6719 2.129,1.4336 2.993,2.3047 l 2.058,2.5781 0.848,1.7771 v 29.258 h 5.574 V 89.9727 h -5.254"
         style="fill:#546371;fill-opacity:1;fill-rule:nonzero;stroke:none"
         id="path24" /><path
         d="m 681.543,118.742 -0.891,1.973 c -0.484,0.887 -1.132,1.797 -1.941,2.703 -0.805,0.918 -1.746,1.73 -2.828,2.434 -1.078,0.691 -2.262,1.043 -3.555,1.043 -1.562,0 -2.965,-0.399 -4.199,-1.211 -1.238,-0.809 -2.305,-1.922 -3.191,-3.348 -0.891,-1.438 -1.579,-3.086 -2.063,-4.973 -0.48,-1.883 -0.727,-3.906 -0.727,-6.062 0,-1.887 0.176,-3.879 0.528,-5.977 0.347,-2.101 0.929,-4.015 1.734,-5.7342 0.809,-1.7265 1.86,-3.1523 3.153,-4.2851 1.292,-1.1328 2.882,-1.6992 4.765,-1.6992 1.188,0 2.328,0.3203 3.434,0.9765 1.101,0.6446 2.058,1.3946 2.871,2.2539 l 1.976,2.5508 0.934,1.8943 z m 0.32,-28.7693 v 5.7304 l -1.133,-1.6093 c -0.589,-0.754 -1.359,-1.5157 -2.3,-2.2657 -0.946,-0.7539 -1.992,-1.4062 -3.153,-1.9726 -1.156,-0.5664 -2.328,-0.8516 -3.515,-0.8516 -2.797,0 -5.168,0.6563 -7.11,1.9727 -1.937,1.3281 -3.531,3.0468 -4.765,5.1757 -1.239,2.129 -2.145,4.5237 -2.707,7.1877 -0.563,2.668 -0.848,5.324 -0.848,7.961 0,2.429 0.363,4.832 1.09,7.234 0.726,2.395 1.762,4.563 3.109,6.504 1.348,1.934 2.981,3.496 4.891,4.688 1.914,1.183 4.027,1.777 6.34,1.777 1.242,0 2.414,-0.274 3.515,-0.809 1.106,-0.539 2.09,-1.172 2.95,-1.894 l 2.144,-2.188 1.172,-1.738 v 22.383 h 5.57 V 89.9727 h -5.25"
         style="fill:#546371;fill-opacity:1;fill-rule:nonzero;stroke:none"
         id="path26" /><path
         d="m 701.176,89.9727 v 40.5663 h 5.578 V 89.9727 Z m 6.789,51.5503 c 0,-1.082 -0.402,-2.011 -1.211,-2.793 -0.809,-0.781 -1.75,-1.171 -2.828,-1.171 -1.078,0 -2.008,0.39 -2.789,1.171 -0.782,0.782 -1.172,1.711 -1.172,2.793 0,1.075 0.39,2.004 1.172,2.786 0.781,0.781 1.711,1.171 2.789,1.171 1.078,0 2.019,-0.39 2.828,-1.171 0.809,-0.782 1.211,-1.711 1.211,-2.786"
         style="fill:#546371;fill-opacity:1;fill-rule:nonzero;stroke:none"
         id="path28" /><path
         d="m 742.516,117.52 c -0.352,1.621 -0.891,3.125 -1.621,4.531 -0.723,1.398 -1.68,2.597 -2.872,3.594 -1.183,0.996 -2.609,1.496 -4.277,1.496 -1.562,0 -2.93,-0.469 -4.121,-1.418 -1.191,-0.938 -2.148,-2.11 -2.91,-3.516 -0.754,-1.394 -1.328,-2.891 -1.738,-4.48 -0.403,-1.594 -0.606,-3.059 -0.606,-4.407 h 18.672 c 0,1.184 -0.176,2.59 -0.527,4.2 z m -18.301,-8.243 c 0,-1.609 0.195,-3.339 0.605,-5.164 0.399,-1.836 1.035,-3.547 1.895,-5.1286 0.859,-1.5899 1.973,-2.9102 3.32,-3.9649 1.348,-1.0429 2.949,-1.5703 4.844,-1.5703 1.133,0 2.246,0.1172 3.359,0.3594 1.094,0.2461 2.117,0.5273 3.067,0.8516 0.937,0.3203 1.758,0.6523 2.461,1.0039 l 1.699,0.9297 1.699,-4.6797 -1.66,-0.7305 c -0.781,-0.3242 -1.719,-0.6445 -2.832,-0.9688 -1.106,-0.3203 -2.344,-0.6054 -3.711,-0.8476 -1.379,-0.2461 -2.813,-0.3633 -4.328,-0.3633 -3.172,0 -5.789,0.6836 -7.84,2.0625 -2.043,1.3672 -3.672,3.1445 -4.883,5.332 -1.211,2.1758 -2.062,4.5786 -2.539,7.1876 -0.492,2.617 -0.738,5.184 -0.738,7.715 0,1.992 0.32,4.179 0.972,6.551 0.645,2.363 1.602,4.562 2.872,6.582 1.269,2.023 2.832,3.703 4.687,5.05 1.856,1.348 4.024,2.02 6.504,2.02 2.742,0 5.059,-0.645 6.953,-1.941 1.875,-1.29 3.399,-2.93 4.559,-4.922 1.164,-2.004 1.992,-4.18 2.511,-6.555 0.508,-2.363 0.762,-4.629 0.762,-6.785 v -2.024 h -24.238"
         style="fill:#546371;fill-opacity:1;fill-rule:nonzero;stroke:none"
         id="path30" /><path
         d="m 776.891,125.195 -1.446,0.696 -1.699,0.437 c -1.074,0 -2.109,-0.312 -3.066,-0.926 -0.977,-0.617 -1.836,-1.328 -2.598,-2.14 l -1.816,-2.383 -0.84,-1.738 V 89.9727 h -5.586 v 40.5663 h 5.34 v -5.664 l 0.851,1.414 1.895,2.266 c 0.808,0.781 1.758,1.465 2.871,2.062 1.101,0.586 2.351,0.887 3.75,0.887 l 2.305,-0.41 1.738,-0.801 -1.699,-5.098"
         style="fill:#546371;fill-opacity:1;fill-rule:nonzero;stroke:none"
         id="path32" /><path
         d="m 808.93,117.52 c -0.352,1.621 -0.887,3.125 -1.61,4.531 -0.734,1.398 -1.691,2.597 -2.871,3.594 -1.191,0.996 -2.617,1.496 -4.289,1.496 -1.562,0 -2.937,-0.469 -4.121,-1.418 -1.18,-0.938 -2.156,-2.11 -2.91,-3.516 -0.75,-1.394 -1.336,-2.891 -1.727,-4.48 -0.41,-1.594 -0.605,-3.059 -0.605,-4.407 h 18.652 c 0,1.184 -0.176,2.59 -0.519,4.2 z m -18.309,-8.243 c 0,-1.609 0.215,-3.339 0.613,-5.164 0.403,-1.836 1.036,-3.547 1.895,-5.1286 0.871,-1.5899 1.965,-2.9102 3.312,-3.9649 1.348,-1.0429 2.969,-1.5703 4.852,-1.5703 1.125,0 2.246,0.1172 3.352,0.3594 1.101,0.2461 2.128,0.5273 3.066,0.8516 0.945,0.3203 1.777,0.6523 2.469,1.0039 l 1.699,0.9297 1.691,-4.6797 -1.652,-0.7305 c -0.781,-0.3242 -1.727,-0.6445 -2.82,-0.9688 -1.114,-0.3203 -2.344,-0.6054 -3.731,-0.8476 -1.367,-0.2461 -2.812,-0.3633 -4.316,-0.3633 -3.184,0 -5.793,0.6836 -7.832,2.0625 -2.051,1.3672 -3.684,3.1445 -4.895,5.332 -1.211,2.1758 -2.058,4.5786 -2.547,7.1876 -0.488,2.617 -0.722,5.184 -0.722,7.715 0,1.992 0.32,4.179 0.965,6.551 0.656,2.363 1.601,4.562 2.871,6.582 1.261,2.023 2.824,3.703 4.679,5.05 1.864,1.348 4.032,2.02 6.512,2.02 2.746,0 5.059,-0.645 6.945,-1.941 1.895,-1.29 3.407,-2.93 4.571,-4.922 1.152,-2.004 1.992,-4.18 2.5,-6.555 0.507,-2.363 0.769,-4.629 0.769,-6.785 v -2.024 h -24.246"
         style="fill:#546371;fill-opacity:1;fill-rule:nonzero;stroke:none"
         id="path34" /><path
         d="m 849.527,89.9727 v 27.2263 c 0,1.082 -0.175,2.196 -0.527,3.36 -0.352,1.152 -0.84,2.207 -1.484,3.144 -0.657,0.945 -1.477,1.707 -2.473,2.305 -0.996,0.594 -2.137,0.887 -3.426,0.887 -1.25,0 -2.441,-0.293 -3.605,-0.887 -1.16,-0.598 -2.176,-1.309 -3.074,-2.141 l -2.168,-2.547 -0.938,-2.101 V 89.9727 h -5.578 v 40.5663 h 5.344 v -5.664 l 1.043,1.492 c 0.597,0.735 1.379,1.477 2.343,2.227 0.969,0.754 2.071,1.426 3.313,2.023 1.238,0.586 2.558,0.887 3.965,0.887 2.148,0 4.031,-0.391 5.644,-1.172 1.621,-0.781 2.949,-1.816 4.004,-3.113 1.055,-1.289 1.844,-2.754 2.383,-4.406 0.547,-1.641 0.809,-3.301 0.809,-4.961 V 89.9727 h -5.575"
         style="fill:#546371;fill-opacity:1;fill-rule:nonzero;stroke:none"
         id="path36" /><path
         d="m 891.949,118.742 -0.879,1.973 c -0.488,0.887 -1.132,1.797 -1.953,2.703 -0.801,0.918 -1.738,1.73 -2.812,2.434 -1.094,0.691 -2.266,1.043 -3.555,1.043 -1.562,0 -2.969,-0.399 -4.211,-1.211 -1.238,-0.809 -2.305,-1.922 -3.191,-3.348 -0.891,-1.438 -1.582,-3.086 -2.063,-4.973 -0.476,-1.883 -0.73,-3.906 -0.73,-6.062 0,-1.887 0.175,-3.879 0.527,-5.977 0.352,-2.101 0.938,-4.015 1.738,-5.7342 0.809,-1.7265 1.856,-3.1523 3.153,-4.2851 1.3,-1.1328 2.882,-1.6992 4.777,-1.6992 1.172,0 2.324,0.3203 3.418,0.9765 1.113,0.6446 2.07,1.3946 2.871,2.2539 l 1.992,2.5508 0.918,1.8943 z m 0.332,-28.7693 v 5.7304 l -1.133,-1.6093 c -0.605,-0.754 -1.367,-1.5157 -2.304,-2.2657 -0.938,-0.7539 -1.992,-1.4062 -3.145,-1.9726 -1.172,-0.5664 -2.344,-0.8516 -3.515,-0.8516 -2.813,0 -5.176,0.6563 -7.121,1.9727 -1.942,1.3281 -3.524,3.0468 -4.766,5.1757 -1.238,2.129 -2.137,4.5237 -2.703,7.1877 -0.567,2.668 -0.852,5.324 -0.852,7.961 0,2.429 0.363,4.832 1.086,7.234 0.731,2.395 1.766,4.563 3.113,6.504 1.348,1.934 2.981,3.496 4.895,4.688 1.914,1.183 4.023,1.777 6.348,1.777 1.23,0 2.402,-0.274 3.515,-0.809 1.094,-0.539 2.071,-1.172 2.949,-1.894 l 2.129,-2.188 1.172,-1.738 v 22.383 h 5.586 V 89.9727 h -5.254"
         style="fill:#546371;fill-opacity:1;fill-rule:nonzero;stroke:none"
         id="path38" /><path
         d="m 933.277,117.52 c -0.351,1.621 -0.879,3.125 -1.601,4.531 -0.742,1.398 -1.699,2.597 -2.871,3.594 -1.192,0.996 -2.617,1.496 -4.278,1.496 -1.562,0 -2.949,-0.469 -4.121,-1.418 -1.191,-0.938 -2.168,-2.11 -2.91,-3.516 -0.762,-1.394 -1.348,-2.891 -1.738,-4.48 -0.41,-1.594 -0.606,-3.059 -0.606,-4.407 h 18.653 c 0,1.184 -0.176,2.59 -0.528,4.2 z m -18.3,-8.243 c 0,-1.609 0.214,-3.339 0.605,-5.164 0.41,-1.836 1.035,-3.547 1.914,-5.1286 0.859,-1.5899 1.953,-2.9102 3.301,-3.9649 1.348,-1.0429 2.969,-1.5703 4.844,-1.5703 1.132,0 2.265,0.1172 3.359,0.3594 1.113,0.2461 2.129,0.5273 3.066,0.8516 0.957,0.3203 1.778,0.6523 2.481,1.0039 l 1.68,0.9297 1.699,-4.6797 -1.66,-0.7305 c -0.782,-0.3242 -1.719,-0.6445 -2.813,-0.9688 -1.113,-0.3203 -2.344,-0.6054 -3.73,-0.8476 -1.368,-0.2461 -2.813,-0.3633 -4.317,-0.3633 -3.183,0 -5.781,0.6836 -7.832,2.0625 -2.051,1.3672 -3.672,3.1445 -4.902,5.332 -1.211,2.1758 -2.051,4.5786 -2.539,7.1876 -0.488,2.617 -0.723,5.184 -0.723,7.715 0,1.992 0.313,4.179 0.977,6.551 0.644,2.363 1.601,4.562 2.851,6.582 1.27,2.023 2.832,3.703 4.688,5.05 1.875,1.348 4.023,2.02 6.504,2.02 2.754,0 5.078,-0.645 6.953,-1.941 1.894,-1.29 3.418,-2.93 4.57,-4.922 1.152,-2.004 1.992,-4.18 2.5,-6.555 0.508,-2.363 0.762,-4.629 0.762,-6.785 v -2.024 h -24.238"
         style="fill:#546371;fill-opacity:1;fill-rule:nonzero;stroke:none"
         id="path40" /><path
         d="m 973.883,89.9727 v 27.2263 c 0,1.082 -0.176,2.196 -0.528,3.36 -0.351,1.152 -0.839,2.207 -1.484,3.144 -0.644,0.945 -1.484,1.707 -2.48,2.305 -0.996,0.594 -2.129,0.887 -3.418,0.887 -1.25,0 -2.442,-0.293 -3.594,-0.887 -1.172,-0.598 -2.188,-1.309 -3.086,-2.141 l -2.168,-2.547 -0.937,-2.101 V 89.9727 h -5.567 v 40.5663 h 5.332 v -5.664 l 1.035,1.492 c 0.606,0.735 1.387,1.477 2.344,2.227 0.977,0.754 2.09,1.426 3.32,2.023 1.231,0.586 2.559,0.887 3.965,0.887 2.149,0 4.043,-0.391 5.645,-1.172 1.621,-0.781 2.949,-1.816 4.004,-3.113 1.054,-1.289 1.855,-2.754 2.382,-4.406 0.547,-1.641 0.821,-3.301 0.821,-4.961 V 89.9727 h -5.586"
         style="fill:#546371;fill-opacity:1;fill-rule:nonzero;stroke:none"
         id="path42" /><path
         d="m 992.223,112.031 v 5.012 h 16.967 v -5.012 h -16.967"
         style="fill:#546371;fill-opacity:1;fill-rule:nonzero;stroke:none"
         id="path44" /><path
         d="m 1036.67,89.9727 h -6.15 l -16.79,53.8943 h 6.21 l 13.9,-46.9412 13.66,46.9412 h 5.89 l -16.72,-53.8943"
         style="fill:#546371;fill-opacity:1;fill-rule:nonzero;stroke:none"
         id="path46" /><path
         d="m 1081.07,117.52 c -0.35,1.621 -0.9,3.125 -1.62,4.531 -0.72,1.398 -1.68,2.597 -2.87,3.594 -1.17,0.996 -2.62,1.496 -4.28,1.496 -1.56,0 -2.93,-0.469 -4.12,-1.418 -1.19,-0.938 -2.15,-2.11 -2.91,-3.516 -0.76,-1.394 -1.33,-2.891 -1.74,-4.48 -0.41,-1.594 -0.61,-3.059 -0.61,-4.407 h 18.68 c 0,1.184 -0.18,2.59 -0.53,4.2 z m -18.3,-8.243 c 0,-1.609 0.19,-3.339 0.6,-5.164 0.41,-1.836 1.04,-3.547 1.9,-5.1286 0.86,-1.5899 1.97,-2.9102 3.32,-3.9649 1.35,-1.0429 2.95,-1.5703 4.84,-1.5703 1.14,0 2.25,0.1172 3.36,0.3594 1.1,0.2461 2.13,0.5273 3.07,0.8516 0.94,0.3203 1.76,0.6523 2.46,1.0039 l 1.7,0.9297 1.7,-4.6797 -1.66,-0.7305 c -0.78,-0.3242 -1.72,-0.6445 -2.83,-0.9688 -1.1,-0.3203 -2.35,-0.6054 -3.72,-0.8476 -1.36,-0.2461 -2.81,-0.3633 -4.31,-0.3633 -3.19,0 -5.8,0.6836 -7.85,2.0625 -2.05,1.3672 -3.68,3.1445 -4.89,5.332 -1.21,2.1758 -2.07,4.5786 -2.54,7.1876 -0.48,2.617 -0.74,5.184 -0.74,7.715 0,1.992 0.33,4.179 0.98,6.551 0.64,2.363 1.6,4.562 2.87,6.582 1.27,2.023 2.83,3.703 4.69,5.05 1.85,1.348 4.02,2.02 6.5,2.02 2.76,0 5.06,-0.645 6.95,-1.941 1.88,-1.29 3.4,-2.93 4.56,-4.922 1.17,-2.004 1.99,-4.18 2.52,-6.555 0.5,-2.363 0.76,-4.629 0.76,-6.785 v -2.024 h -24.24"
         style="fill:#546371;fill-opacity:1;fill-rule:nonzero;stroke:none"
         id="path48" /><path
         d="m 1115.44,125.195 -1.44,0.696 -1.7,0.437 c -1.09,0 -2.11,-0.312 -3.09,-0.926 -0.95,-0.617 -1.81,-1.328 -2.57,-2.14 l -1.82,-2.383 -0.84,-1.738 V 89.9727 h -5.59 v 40.5663 h 5.34 v -5.664 l 0.85,1.414 1.9,2.266 c 0.8,0.781 1.76,1.465 2.87,2.062 1.09,0.586 2.34,0.887 3.75,0.887 l 2.31,-0.41 1.73,-0.801 -1.7,-5.098"
         style="fill:#546371;fill-opacity:1;fill-rule:nonzero;stroke:none"
         id="path50" /><path
         d="m 1143.08,89.8555 -1.62,-0.3711 -1.89,-0.3242 -1.82,-0.1563 c -1.62,0 -2.99,0.2461 -4.08,0.7227 -1.12,0.4882 -2,1.1445 -2.68,1.9843 -0.66,0.8282 -1.15,1.7852 -1.44,2.8711 -0.3,1.0743 -0.45,2.1758 -0.45,3.3086 V 125.93 h -6.78 v 4.609 h 6.78 v 10.984 h 5.58 v -10.984 h 7.99 v -4.609 h -7.99 V 98.457 c 0,-1.1328 0.26,-2.2265 0.76,-3.2695 0.51,-1.0547 1.39,-1.582 2.62,-1.582 0.76,0 1.6,0.1445 2.52,0.4492 l 1.86,0.7617 1.7,-4.6016 -1.06,-0.3593"
         style="fill:#546371;fill-opacity:1;fill-rule:nonzero;stroke:none"
         id="path52" /><path
         d="m 1170.97,125.195 -1.46,0.696 -1.7,0.437 c -1.08,0 -2.09,-0.312 -3.07,-0.926 -0.98,-0.617 -1.83,-1.328 -2.58,-2.14 l -1.83,-2.383 -0.84,-1.738 V 89.9727 h -5.57 v 40.5663 h 5.33 v -5.664 l 0.84,1.414 1.9,2.266 c 0.82,0.781 1.77,1.465 2.87,2.062 1.11,0.586 2.36,0.887 3.77,0.887 l 2.28,-0.41 1.74,-0.801 -1.68,-5.098"
         style="fill:#546371;fill-opacity:1;fill-rule:nonzero;stroke:none"
         id="path54" /><path
         d="m 1202.98,117.52 c -0.35,1.621 -0.88,3.125 -1.6,4.531 -0.74,1.398 -1.7,2.597 -2.87,3.594 -1.19,0.996 -2.62,1.496 -4.28,1.496 -1.56,0 -2.95,-0.469 -4.12,-1.418 -1.19,-0.938 -2.17,-2.11 -2.91,-3.516 -0.76,-1.394 -1.35,-2.891 -1.74,-4.48 -0.41,-1.594 -0.6,-3.059 -0.6,-4.407 h 18.65 c 0,1.184 -0.18,2.59 -0.53,4.2 z m -18.3,-8.243 c 0,-1.609 0.22,-3.339 0.61,-5.164 0.41,-1.836 1.03,-3.547 1.91,-5.1286 0.86,-1.5899 1.96,-2.9102 3.3,-3.9649 1.35,-1.0429 2.97,-1.5703 4.85,-1.5703 1.13,0 2.26,0.1172 3.36,0.3594 1.11,0.2461 2.12,0.5273 3.06,0.8516 0.96,0.3203 1.78,0.6523 2.48,1.0039 l 1.68,0.9297 1.7,-4.6797 -1.66,-0.7305 c -0.78,-0.3242 -1.72,-0.6445 -2.81,-0.9688 -1.11,-0.3203 -2.34,-0.6054 -3.73,-0.8476 -1.37,-0.2461 -2.81,-0.3633 -4.32,-0.3633 -3.18,0 -5.78,0.6836 -7.83,2.0625 -2.05,1.3672 -3.67,3.1445 -4.9,5.332 -1.21,2.1758 -2.05,4.5786 -2.54,7.1876 -0.49,2.617 -0.72,5.184 -0.72,7.715 0,1.992 0.31,4.179 0.97,6.551 0.65,2.363 1.6,4.562 2.85,6.582 1.27,2.023 2.84,3.703 4.69,5.05 1.88,1.348 4.03,2.02 6.51,2.02 2.75,0 5.07,-0.645 6.95,-1.941 1.89,-1.29 3.42,-2.93 4.57,-4.922 1.15,-2.004 1.99,-4.18 2.5,-6.555 0.51,-2.363 0.76,-4.629 0.76,-6.785 v -2.024 h -24.24"
         style="fill:#546371;fill-opacity:1;fill-rule:nonzero;stroke:none"
         id="path56" /><path
         d="m 1236.64,89.8555 -1.61,-0.3711 -1.91,-0.3242 -1.82,-0.1563 c -1.62,0 -2.97,0.2461 -4.08,0.7227 -1.09,0.4882 -1.99,1.1445 -2.65,1.9843 -0.69,0.8282 -1.18,1.7852 -1.47,2.8711 -0.29,1.0743 -0.43,2.1758 -0.43,3.3086 V 125.93 h -6.8 v 4.609 h 6.8 v 10.984 h 5.57 v -10.984 h 8.01 v -4.609 h -8.01 V 98.457 c 0,-1.1328 0.25,-2.2265 0.76,-3.2695 0.53,-1.0547 1.39,-1.582 2.64,-1.582 0.74,0 1.58,0.1445 2.5,0.4492 0.91,0.293 1.54,0.5469 1.85,0.7617 l 1.7,-4.6016 -1.05,-0.3593"
         style="fill:#546371;fill-opacity:1;fill-rule:nonzero;stroke:none"
         id="path58" /><path
         d="m 1270.33,89.9727 v 5.7304 l -1.08,-1.5312 c -0.56,-0.7539 -1.31,-1.5039 -2.22,-2.2578 -0.92,-0.7618 -2,-1.4336 -3.21,-2.0196 -1.21,-0.5976 -2.54,-0.8906 -3.98,-0.8906 -2.23,0 -4.12,0.3906 -5.7,1.1719 -1.59,0.7812 -2.89,1.7969 -3.93,3.0664 -1.02,1.2695 -1.78,2.7344 -2.27,4.4062 -0.46,1.668 -0.72,3.3986 -0.72,5.1756 v 27.715 h 5.59 v -27.238 c 0,-1.238 0.13,-2.43 0.43,-3.594 0.31,-1.1601 0.74,-2.1757 1.34,-3.0664 0.59,-0.8867 1.37,-1.6211 2.35,-2.1875 0.96,-0.5664 2.15,-0.8476 3.55,-0.8476 1.29,0 2.5,0.3398 3.64,1.0156 1.13,0.6719 2.13,1.4336 2.98,2.3047 l 2.06,2.5781 0.85,1.7771 v 29.258 h 5.57 V 89.9727 h -5.25"
         style="fill:#546371;fill-opacity:1;fill-rule:nonzero;stroke:none"
         id="path60" /><path
         d="m 1312.92,89.9727 v 27.2263 c 0,1.082 -0.17,2.196 -0.52,3.36 -0.35,1.152 -0.84,2.207 -1.49,3.144 -0.64,0.945 -1.48,1.707 -2.48,2.305 -0.99,0.594 -2.13,0.887 -3.42,0.887 -1.25,0 -2.44,-0.293 -3.59,-0.887 -1.17,-0.598 -2.19,-1.309 -3.09,-2.141 l -2.16,-2.547 -0.94,-2.101 V 89.9727 h -5.57 v 40.5663 h 5.34 v -5.664 l 1.03,1.492 c 0.61,0.735 1.39,1.477 2.34,2.227 0.98,0.754 2.09,1.426 3.32,2.023 1.23,0.586 2.56,0.887 3.97,0.887 2.15,0 4.04,-0.391 5.64,-1.172 1.62,-0.781 2.95,-1.816 4.01,-3.113 1.05,-1.289 1.85,-2.754 2.38,-4.406 0.55,-1.641 0.82,-3.301 0.82,-4.961 V 89.9727 h -5.59"
         style="fill:#546371;fill-opacity:1;fill-rule:nonzero;stroke:none"
         id="path62" /><path
         d="m 1352.44,117.52 c 0,2.968 -0.75,5.351 -2.23,7.16 -1.48,1.797 -3.52,2.703 -6.09,2.703 -1.31,0 -2.48,-0.274 -3.52,-0.809 -1.05,-0.539 -1.93,-1.269 -2.64,-2.179 -0.7,-0.918 -1.23,-1.973 -1.62,-3.153 -0.37,-1.183 -0.54,-2.422 -0.54,-3.722 0,-1.454 0.13,-2.84 0.43,-4.161 0.29,-1.316 0.78,-2.461 1.42,-3.425 0.65,-0.977 1.49,-1.739 2.54,-2.305 1.06,-0.566 2.36,-0.852 3.93,-0.852 1.5,0 2.77,0.332 3.82,1.008 1.06,0.672 1.92,1.524 2.58,2.547 0.69,1.027 1.17,2.168 1.47,3.438 0.29,1.261 0.45,2.511 0.45,3.75 z m 2.91,-34.1684 c 0,2.0976 -1.08,3.8359 -3.21,5.2031 -2.13,1.3789 -4.8,2.0625 -8.02,2.0625 -1.35,0 -2.66,-0.1875 -3.93,-0.5664 -1.27,-0.3711 -2.38,-0.8906 -3.36,-1.5352 -0.96,-0.6445 -1.74,-1.414 -2.34,-2.3047 -0.59,-0.8867 -0.88,-1.8437 -0.88,-2.8593 0,-1.0274 0.25,-2.0118 0.76,-2.9493 0.51,-0.9492 1.23,-1.7773 2.15,-2.5117 0.92,-0.7226 2.01,-1.3086 3.3,-1.7383 1.31,-0.4296 2.73,-0.6445 4.3,-0.6445 1.6,0 3.08,0.2266 4.43,0.6836 1.35,0.4609 2.54,1.0547 3.55,1.7774 1.04,0.7343 1.82,1.5625 2.39,2.5117 0.56,0.9375 0.86,1.8945 0.86,2.8711 z m -0.57,43.2224 0.88,-1.211 1.09,-1.984 c 0.35,-0.781 0.67,-1.668 0.94,-2.664 0.25,-0.996 0.39,-2.063 0.39,-3.195 0,-2.04 -0.35,-3.965 -1.03,-5.77 -0.71,-1.809 -1.68,-3.379 -2.91,-4.727 -1.25,-1.347 -2.74,-2.414 -4.46,-3.195 -1.72,-0.781 -3.57,-1.172 -5.56,-1.172 l -1.92,-0.32 -1.89,-0.813 -1.49,-1.171 -0.6,-1.4145 c 0,-1.1836 0.54,-2.1484 1.64,-2.9023 1.11,-0.7618 2.52,-1.1329 4.26,-1.1329 2.2,0 4.33,-0.2617 6.36,-0.7695 2.05,-0.5078 3.87,-1.2695 5.43,-2.2656 1.57,-0.9961 2.8,-2.207 3.71,-3.6328 0.92,-1.4258 1.37,-3.0586 1.37,-4.8828 0,-1.4063 -0.39,-2.8047 -1.21,-4.211 -0.8,-1.3945 -1.95,-2.6836 -3.44,-3.875 -1.48,-1.1836 -3.26,-2.1406 -5.33,-2.8711 -2.07,-0.7226 -4.37,-1.0859 -6.89,-1.0859 -2.27,0 -4.38,0.293 -6.35,0.8906 -1.97,0.586 -3.65,1.3867 -5.06,2.3828 -1.39,0.9961 -2.5,2.1758 -3.3,3.5547 -0.82,1.375 -1.21,2.8711 -1.21,4.4805 0,1.5625 0.41,2.9492 1.25,4.1601 0.82,1.211 1.81,2.2266 2.95,3.0274 1.13,0.8125 2.28,1.4453 3.47,1.9062 1.18,0.4571 2.15,0.711 2.91,0.7618 l -1.54,0.4492 -1.89,1.0039 -1.62,1.6992 c -0.45,0.7031 -0.69,1.5352 -0.69,2.5117 l 0.65,1.8943 1.54,1.66 1.82,1.211 1.56,0.645 c -0.74,0.273 -1.6,0.711 -2.58,1.336 -0.98,0.617 -1.89,1.476 -2.79,2.578 -0.88,1.105 -1.62,2.48 -2.23,4.121 -0.59,1.641 -0.88,3.625 -0.88,5.938 0,1.73 0.37,3.429 1.1,5.097 0.72,1.672 1.71,3.164 2.98,4.485 1.27,1.316 2.74,2.382 4.44,3.191 1.7,0.801 3.51,1.211 5.47,1.211 1.23,0 2.4,-0.125 3.51,-0.359 1.1,-0.247 1.9,-0.45 2.38,-0.606 h 11.47 v -3.965 h -6.7"
         style="fill:#546371;fill-opacity:1;fill-rule:nonzero;stroke:none"
         id="path64" /><path
         d="M 592.898,0.96875 V 45.4102 L 580.297,0.96875 h -8.078 L 559.609,45.4102 V 0.96875 h -8.726 V 54.8633 h 14.305 l 11.472,-40.7227 11.153,40.7227 h 14.3 V 0.96875 h -9.215"
         style="fill:#546371;fill-opacity:1;fill-rule:nonzero;stroke:none"
         id="path66" /><path
         d="m 640.328,22.2969 c 0,1.082 -0.148,2.3633 -0.445,3.8359 -0.293,1.4844 -0.766,2.8828 -1.41,4.211 -0.653,1.3164 -1.508,2.4296 -2.59,3.3476 -1.078,0.918 -2.422,1.3789 -4.035,1.3789 -1.618,0 -2.965,-0.4414 -4.043,-1.3008 -1.075,-0.8593 -1.942,-1.9336 -2.586,-3.2304 -0.645,-1.2891 -1.102,-2.6758 -1.371,-4.1602 -0.274,-1.4844 -0.407,-2.8437 -0.407,-4.082 0,-1.3477 0.122,-2.8828 0.364,-4.6016 0.242,-1.7265 0.672,-3.3398 1.293,-4.8515 0.621,-1.504 1.468,-2.7852 2.543,-3.83989 1.082,-1.04297 2.48,-1.57032 4.207,-1.57032 1.722,0 3.132,0.50782 4.242,1.53125 1.101,1.02735 1.961,2.27736 2.582,3.76176 0.621,1.4843 1.051,3.0859 1.293,4.8047 0.246,1.7265 0.363,3.3085 0.363,4.7656 z m 9.289,0 c 0,-2.043 -0.281,-4.3555 -0.844,-6.9453 -0.566,-2.586 -1.539,-5.0078 -2.91,-7.27347 C 644.492,5.8125 642.672,3.90625 640.41,2.34375 638.148,0.78125 635.293,0 631.848,0 c -3.555,0 -6.465,0.761719 -8.727,2.30469 -2.266,1.53515 -4.066,3.42969 -5.418,5.69531 -1.348,2.2656 -2.273,4.6875 -2.785,7.2656 -0.516,2.586 -0.77,4.9297 -0.77,7.0313 0,1.9922 0.34,4.1601 1.012,6.5039 0.676,2.3437 1.738,4.5312 3.192,6.5508 1.453,2.0117 3.296,3.7109 5.535,5.0898 2.234,1.3672 4.886,2.0586 7.961,2.0586 3.285,0 6.058,-0.6914 8.32,-2.0586 2.266,-1.3789 4.094,-3.0859 5.496,-5.1367 1.399,-2.043 2.406,-4.2383 3.027,-6.582 0.622,-2.3438 0.926,-4.4844 0.926,-6.4258"
         style="fill:#546371;fill-opacity:1;fill-rule:nonzero;stroke:none"
         id="path68" /><path
         d="m 687.031,13.0859 c 0,-1.7773 -0.359,-3.45699 -1.09,-5.04684 -0.726,-1.59375 -1.753,-2.98047 -3.07,-4.16015 C 681.555,2.6875 679.977,1.75 678.145,1.04688 676.313,0.351563 674.293,0 672.086,0 c -1.727,0 -3.356,0.117188 -4.891,0.363281 -1.535,0.242188 -2.922,0.527344 -4.16,0.847659 -1.238,0.32422 -2.332,0.67578 -3.273,1.04687 -0.946,0.37891 -1.688,0.73047 -2.223,1.05469 l 2.992,7.0313 1.696,-0.92974 c 0.808,-0.41015 1.761,-0.80078 2.871,-1.17187 1.101,-0.37891 2.261,-0.72266 3.472,-1.01563 1.211,-0.29297 2.36,-0.4375 3.434,-0.4375 1.613,0 3,0.42969 4.164,1.28907 1.156,0.85937 1.73,2.01957 1.73,3.47657 0,0.8594 -0.464,1.6797 -1.41,2.4609 -0.941,0.7813 -2.113,1.5899 -3.515,2.4219 -1.403,0.8398 -2.934,1.6992 -4.606,2.5859 -1.668,0.8907 -3.207,1.8672 -4.601,2.9102 -1.403,1.0547 -2.575,2.1797 -3.516,3.3984 -0.941,1.211 -1.418,2.5391 -1.418,3.9961 0,1.8828 0.379,3.6328 1.133,5.2539 0.754,1.6094 1.789,2.9961 3.109,4.1602 1.321,1.1601 2.883,2.0703 4.692,2.7422 1.8,0.6758 3.722,1.0156 5.773,1.0156 1.297,0 2.547,-0.1055 3.758,-0.3203 1.215,-0.2149 2.328,-0.4883 3.351,-0.8125 1.024,-0.3203 1.926,-0.6641 2.707,-1.0039 l 1.739,-0.9375 -2.989,-6.7891 -1.253,0.8516 -2.141,1.0547 c -0.813,0.3515 -1.668,0.6523 -2.59,0.9258 -0.91,0.2734 -1.801,0.4023 -2.664,0.4023 -1.832,0 -3.258,-0.5078 -4.281,-1.5352 -1.024,-1.0234 -1.535,-2.2851 -1.535,-3.7968 0,-0.8008 0.484,-1.6133 1.457,-2.4219 0.965,-0.8125 2.168,-1.6328 3.593,-2.4609 1.426,-0.8399 2.973,-1.6993 4.649,-2.5899 1.664,-0.8867 3.219,-1.8437 4.64,-2.8711 1.426,-1.0234 2.629,-2.1094 3.594,-3.2695 0.973,-1.1641 1.457,-2.4414 1.457,-3.8399"
         style="fill:#546371;fill-opacity:1;fill-rule:nonzero;stroke:none"
         id="path70" /><path
         d="m 722.594,22.2969 c 0,1.5117 -0.176,3.0156 -0.528,4.5312 -0.351,1.5039 -0.878,2.8594 -1.582,4.0703 -0.703,1.2227 -1.578,2.2188 -2.625,3 -1.05,0.7813 -2.277,1.1719 -3.679,1.1719 l -2.586,-0.8125 -2.34,-1.9414 -1.777,-2.2578 -0.813,-1.8633 V 8.24219 l 1.051,-0.28125 1.578,-0.2461 1.738,-0.20312 1.532,-0.07813 c 1.617,0 3.042,0.46875 4.285,1.41407 1.238,0.9375 2.285,2.14064 3.148,3.59374 0.867,1.457 1.512,3.0586 1.953,4.8047 0.43,1.75 0.645,3.4375 0.645,5.0508 z m 9.285,0 c 0,-3.0196 -0.43,-5.8789 -1.297,-8.6055 -0.859,-2.7148 -2.109,-5.08593 -3.75,-7.10937 C 725.191,4.5625 723.16,2.96094 720.777,1.77734 718.367,0.585938 715.637,0 712.563,0 c -0.969,0 -2.098,0.0703125 -3.391,0.195313 -1.297,0.136718 -2.645,0.3125 -4.039,0.527343 -1.403,0.214844 -2.766,0.449224 -4.082,0.695314 -1.321,0.23437 -2.465,0.48828 -3.434,0.76172 V 58.2539 h 9.047 V 36.0352 l 0.973,1.5742 2.058,2.1875 c 0.836,0.7226 1.789,1.3554 2.868,1.8945 1.082,0.5352 2.183,0.8086 3.316,0.8086 2.898,0 5.387,-0.6445 7.437,-1.9414 2.051,-1.2891 3.7,-2.9297 4.969,-4.9219 1.262,-2.0039 2.18,-4.1797 2.746,-6.5547 0.567,-2.3632 0.848,-4.6289 0.848,-6.7851"
         style="fill:#546371;fill-opacity:1;fill-rule:nonzero;stroke:none"
         id="path72" /><path
         d="m 763.316,20.6055 -5.332,-1.2188 c -1.132,-0.2656 -2.238,-0.6445 -3.32,-1.125 -1.074,-0.4883 -2.031,-1.0547 -2.863,-1.6992 l -2.02,-2.1367 -0.761,-2.3828 c 0,-1.6797 0.566,-2.96878 1.687,-3.88675 1.133,-0.91016 2.434,-1.36719 3.879,-1.36719 1.023,0 2.031,0.22266 3.027,0.6836 0.996,0.45703 1.895,1.03515 2.676,1.73828 l 1.973,2.26566 1.054,2.2539 z M 763.727,0.96875 V 6.46484 L 762.504,4.80469 C 761.859,4.08203 761.07,3.35938 760.121,2.66797 759.176,1.96484 758.09,1.34766 756.852,0.800781 755.609,0.265625 754.293,0 752.887,0 c -4.035,0 -7.188,1.04688 -9.453,3.14453 -2.258,2.10938 -3.391,4.85547 -3.391,8.24217 0,1.836 0.5,3.5156 1.496,5.0508 0.996,1.543 2.285,2.9102 3.875,4.1211 1.594,1.2187 3.34,2.2266 5.254,3.0352 1.906,0.8007 3.781,1.3984 5.617,1.7773 l 7.031,1.457 v 1.5313 c 0,1.9336 -0.625,3.6445 -1.855,5.1289 -1.25,1.4844 -3.106,2.2265 -5.586,2.2265 -0.91,0 -1.906,-0.1679 -2.988,-0.4882 -1.074,-0.3243 -2.11,-0.7149 -3.106,-1.1719 -0.996,-0.4609 -1.875,-0.8984 -2.629,-1.3281 l -1.531,-0.8907 -2.988,6.6211 c 0.273,0.168 0.879,0.461 1.816,0.8907 0.938,0.4296 2.09,0.8789 3.438,1.3359 1.347,0.4492 2.851,0.8711 4.519,1.25 1.672,0.3711 3.391,0.5664 5.168,0.5664 4.414,0 7.93,-1.1992 10.547,-3.5937 2.617,-2.4024 3.926,-5.7032 3.926,-9.9024 V 0.96875 h -8.32"
         style="fill:#546371;fill-opacity:1;fill-rule:nonzero;stroke:none"
         id="path74" /><path
         d="m 811.148,2.38281 c -0.812,-0.35156 -1.777,-0.71093 -2.91,-1.09375 -1.133,-0.371091 -2.402,-0.683591 -3.8,-0.925779 C 803.043,0.117188 801.578,0 800.074,0 c -3.34,0 -6.113,0.695313 -8.32,2.10156 -2.207,1.39453 -3.965,3.19141 -5.254,5.3711 -1.289,2.17578 -2.207,4.57814 -2.754,7.18754 -0.527,2.6171 -0.801,5.164 -0.801,7.6367 0,2.207 0.371,4.5 1.133,6.875 0.75,2.3633 1.875,4.5508 3.348,6.5429 1.484,1.9922 3.332,3.6211 5.539,4.8829 2.207,1.2695 4.734,1.9023 7.598,1.9023 1.394,0 2.734,-0.125 3.992,-0.3594 1.269,-0.2461 2.414,-0.5468 3.437,-0.8906 1.028,-0.3516 1.867,-0.7031 2.551,-1.0547 l 1.328,-0.7695 -2.988,-7.5899 -1.133,0.8516 -2.102,1.043 -2.546,0.9297 -2.539,0.4101 c -1.29,0 -2.461,-0.3828 -3.516,-1.1328 -1.055,-0.7617 -1.934,-1.7383 -2.629,-2.9492 -0.703,-1.211 -1.238,-2.5899 -1.609,-4.1211 -0.391,-1.5352 -0.567,-3.0586 -0.567,-4.5703 0,-1.7774 0.156,-3.5352 0.477,-5.293 0.324,-1.75 0.851,-3.3398 1.574,-4.7656 0.73,-1.4258 1.629,-2.58986 2.715,-3.47658 1.074,-0.89063 2.39,-1.32813 3.953,-1.32813 0.918,0 1.848,0.13672 2.785,0.39844 0.945,0.27344 1.817,0.59766 2.637,0.97656 l 2.09,1.17188 1.375,1.00783 3,-7.6758 -1.7,-0.92969"
         style="fill:#546371;fill-opacity:1;fill-rule:nonzero;stroke:none"
         id="path76" /><path
         d="M 845.727,0.96875 V 27.4727 c 0,0.8593 -0.118,1.7461 -0.36,2.664 -0.246,0.918 -0.625,1.7383 -1.133,2.461 l -1.933,1.7773 c -0.781,0.4609 -1.692,0.6953 -2.715,0.6953 -1.074,0 -2.09,-0.2656 -3.027,-0.7734 -0.938,-0.5078 -1.778,-1.1328 -2.5,-1.8555 l -1.778,-2.2656 -0.773,-1.9805 V 0.96875 h -9.051 V 58.2539 h 9.051 V 36.0352 l 1.047,1.5742 2.109,2.1875 c 0.859,0.7226 1.856,1.3554 2.988,1.8945 1.133,0.5352 2.344,0.8086 3.633,0.8086 2.481,0 4.578,-0.4492 6.309,-1.3359 1.719,-0.8907 3.125,-2.0313 4.199,-3.4297 1.074,-1.4063 1.836,-2.9375 2.305,-4.6094 0.449,-1.668 0.683,-3.2812 0.683,-4.8437 V 0.96875 h -9.054"
         style="fill:#546371;fill-opacity:1;fill-rule:nonzero;stroke:none"
         id="path78" /><path
         d="M 436.59,617.176 H 239.578 c -4.406,0 -8.008,3.597 -8.008,8.008 v 9.902 0 0 c 0,-2.207 0.899,-3.309 2.352,-3.309 1.449,0 3.453,1.102 5.656,3.309 l 90.543,90.449 c 4.41,4.41 8.008,11.61 8.008,16.02 v 88.558 h 98.461 c 4.41,0 8.012,-3.508 8.012,-7.918 V 625.184 c 0,-4.411 -3.602,-8.008 -8.012,-8.008"
         style="fill:#73818d;fill-opacity:1;fill-rule:nonzero;stroke:none"
         id="path80" /><path
         d="m 330.121,938.566 -90.543,-90.543 c -4.406,-4.41 -8.008,-11.519 -8.008,-15.929 v -9.899 -187.109 c 0,-4.41 3.602,-4.41 8.008,0 l 90.543,90.449 c 4.41,4.41 8.008,11.61 8.008,16.02 v 88.558 108.453 c 0,4.411 -3.598,4.411 -8.008,0"
         style="fill:#ea1f26;fill-opacity:1;fill-rule:nonzero;stroke:none"
         id="path82" /><path
         d="m 233.922,631.777 c -1.453,0 -2.352,1.102 -2.352,3.309 v 187.109 c 0,4.41 3.602,7.918 8.008,7.918 h 98.551 v -88.558 c 0,-4.41 -3.598,-11.61 -8.008,-16.02 l -90.543,-90.449 c -2.203,-2.207 -4.207,-3.309 -5.656,-3.309"
         style="fill:#86171c;fill-opacity:1;fill-rule:nonzero;stroke:none"
         id="path84" /><path
         d="m 108.867,506.586 c -1.429,0 -2.308,1.105 -2.308,3.309 v 107.281 h 98.461 c 4.41,0 8.011,3.597 8.011,8.008 v -8.821 c 0,-4.41 -3.601,-11.519 -8.011,-15.929 l -90.54,-90.539 c -2.207,-2.204 -4.183,-3.309 -5.613,-3.309"
         style="fill:#73818d;fill-opacity:1;fill-rule:nonzero;stroke:none"
         id="path86" /><path
         d="M 205.02,830.113 H 8.01172 C 3.60156,830.113 0,826.605 0,822.195 V 625.184 c 0,-4.411 3.60156,-8.008 8.01172,-8.008 H 205.02 c 4.41,0 8.011,3.597 8.011,8.008 v 197.011 c 0,4.41 -3.601,7.918 -8.011,7.918"
         style="fill:#ea1f26;fill-opacity:1;fill-rule:nonzero;stroke:none"
         id="path88" /><path
         d="m 205.02,617.176 h -98.461 v 89.73 c 0,4.41 3.511,11.52 7.921,16.02 l 90.54,90.449 c 2.207,2.203 4.207,3.309 5.66,3.309 1.449,0 2.351,-1.106 2.351,-3.309 v -188.191 0 c 0,-4.411 -3.601,-8.008 -8.011,-8.008"
         style="fill:#86171c;fill-opacity:1;fill-rule:nonzero;stroke:none"
         id="path90" /><path
         d="m 577.234,437.746 c 0,3.125 -1.062,5.606 -3.203,7.402 -2.129,1.817 -4.898,2.715 -8.301,2.715 h -8.828 V 426.73 h 8.828 c 1.567,0 3.047,0.274 4.458,0.801 1.406,0.547 2.632,1.309 3.691,2.266 1.055,0.976 1.875,2.148 2.469,3.496 0.593,1.348 0.886,2.832 0.886,4.453 z m -1.289,24.453 c 0,2.754 -0.957,4.942 -2.84,6.563 -1.882,1.621 -4.343,2.441 -7.375,2.441 h -8.828 v -18.711 h 8.594 c 1.352,0 2.641,0.235 3.891,0.723 1.226,0.488 2.343,1.152 3.316,2.031 0.969,0.859 1.762,1.875 2.348,3.067 0.594,1.191 0.894,2.48 0.894,3.886 z m 7.446,-24.707 c 0,-2.422 -0.481,-4.609 -1.45,-6.562 -0.972,-1.934 -2.312,-3.575 -4.019,-4.883 -1.699,-1.328 -3.676,-2.344 -5.949,-3.047 -2.266,-0.703 -4.676,-1.055 -7.207,-1.055 h -13.782 v 54.024 h 14.746 c 2.114,0 4.141,-0.274 6.118,-0.801 1.968,-0.547 3.711,-1.367 5.195,-2.48 1.48,-1.094 2.664,-2.5 3.555,-4.2 0.894,-1.699 1.343,-3.711 1.343,-6.035 0,-1.465 -0.332,-2.851 -0.972,-4.18 -0.649,-1.328 -1.465,-2.5 -2.434,-3.554 -0.969,-1.055 -2.043,-1.953 -3.191,-2.676 -1.172,-0.723 -2.285,-1.25 -3.371,-1.582 1.511,-0.273 2.961,-0.762 4.336,-1.504 1.379,-0.723 2.586,-1.66 3.64,-2.793 1.059,-1.133 1.899,-2.441 2.512,-3.926 0.613,-1.484 0.93,-3.066 0.93,-4.746"
         style="fill:#546371;fill-opacity:1;fill-rule:nonzero;stroke:none"
         id="path92" /><path
         d="m 614.016,443 -6.809,-1.445 c -1.133,-0.274 -2.352,-0.684 -3.644,-1.211 -1.297,-0.547 -2.469,-1.192 -3.524,-1.953 -1.055,-0.762 -1.926,-1.621 -2.629,-2.598 -0.699,-0.957 -1.055,-2.012 -1.055,-3.145 0,-2.285 0.688,-4.062 2.063,-5.351 1.379,-1.309 3.066,-1.953 5.066,-1.953 1.235,0 2.446,0.254 3.594,0.781 1.176,0.508 2.231,1.152 3.164,1.934 0.949,0.781 1.738,1.621 2.395,2.519 l 1.379,2.539 z m 0.32,-21.055 v 5.762 l -1.172,-1.621 c -0.625,-0.762 -1.453,-1.523 -2.473,-2.266 -1.035,-0.761 -2.207,-1.425 -3.523,-1.992 -1.316,-0.566 -2.742,-0.859 -4.246,-0.859 -3.574,0 -6.504,0.996 -8.789,3.008 -2.309,1.992 -3.449,4.804 -3.449,8.418 0,1.738 0.5,3.32 1.496,4.785 0.996,1.445 2.261,2.715 3.804,3.808 1.543,1.075 3.215,1.992 5.024,2.754 1.812,0.742 3.496,1.289 5.066,1.621 l 7.942,1.778 v 2.675 c 0,2.637 -0.723,4.864 -2.153,6.68 -1.425,1.817 -3.601,2.715 -6.519,2.715 -0.864,0 -1.836,-0.156 -2.91,-0.488 -1.086,-0.332 -2.114,-0.684 -3.086,-1.094 -0.969,-0.41 -1.848,-0.801 -2.629,-1.211 l -1.492,-0.859 -1.704,4.375 1.536,0.82 c 0.808,0.371 1.789,0.781 2.921,1.211 1.129,0.43 2.379,0.801 3.758,1.133 1.375,0.332 2.766,0.488 4.168,0.488 4.106,0 7.387,-1.152 9.848,-3.438 2.461,-2.304 3.687,-5.664 3.687,-10.097 v -28.106 h -5.105"
         style="fill:#546371;fill-opacity:1;fill-rule:nonzero;stroke:none"
         id="path94" /><path
         d="M 655.898,450.793 655,452.766 c -0.488,0.898 -1.133,1.797 -1.934,2.714 -0.82,0.918 -1.757,1.739 -2.851,2.442 -1.074,0.683 -2.266,1.035 -3.555,1.035 -1.562,0 -2.969,-0.391 -4.219,-1.211 -1.23,-0.801 -2.304,-1.933 -3.203,-3.359 -0.879,-1.426 -1.562,-3.086 -2.05,-4.981 -0.489,-1.894 -0.743,-3.906 -0.743,-6.074 0,-1.894 0.176,-3.887 0.528,-5.996 0.351,-2.109 0.937,-4.023 1.738,-5.742 0.82,-1.739 1.875,-3.164 3.164,-4.297 1.309,-1.133 2.891,-1.699 4.785,-1.699 1.192,0 2.324,0.312 3.438,0.976 1.113,0.645 2.07,1.387 2.871,2.266 l 1.992,2.539 0.937,1.914 z m 0.313,-28.848 v 5.762 l -1.133,-1.621 c -0.586,-0.762 -1.367,-1.523 -2.305,-2.266 -0.937,-0.761 -1.992,-1.425 -3.164,-1.992 -1.152,-0.566 -2.324,-0.859 -3.515,-0.859 -2.813,0 -5.196,0.664 -7.129,1.992 -1.953,1.328 -3.535,3.047 -4.785,5.176 -1.231,2.148 -2.149,4.551 -2.715,7.207 -0.567,2.676 -0.84,5.351 -0.84,7.988 0,2.422 0.352,4.844 1.094,7.246 0.722,2.402 1.758,4.59 3.105,6.524 1.348,1.953 2.989,3.515 4.903,4.707 1.914,1.171 4.043,1.777 6.367,1.777 1.23,0 2.422,-0.273 3.515,-0.82 1.114,-0.528 2.09,-1.172 2.969,-1.895 l 2.149,-2.187 1.171,-1.739 v 22.442 h 5.571 v -57.442 h -5.258"
         style="fill:#546371;fill-opacity:1;fill-rule:nonzero;stroke:none"
         id="path96" /><path
         d="m 695.531,449.563 c -0.351,1.621 -0.898,3.144 -1.621,4.55 -0.722,1.387 -1.699,2.598 -2.871,3.594 -1.191,0.996 -2.637,1.504 -4.297,1.504 -1.562,0 -2.949,-0.469 -4.14,-1.426 -1.192,-0.937 -2.149,-2.109 -2.911,-3.515 -0.761,-1.407 -1.328,-2.911 -1.738,-4.493 -0.41,-1.601 -0.605,-3.066 -0.605,-4.414 h 18.711 c 0,1.172 -0.176,2.578 -0.528,4.2 z m -18.359,-8.262 c 0,-1.621 0.215,-3.34 0.625,-5.176 0.391,-1.836 1.035,-3.555 1.894,-5.137 0.86,-1.601 1.973,-2.929 3.321,-3.984 1.347,-1.055 2.968,-1.582 4.863,-1.582 1.133,0 2.246,0.137 3.359,0.371 1.114,0.254 2.129,0.527 3.086,0.859 0.938,0.313 1.758,0.645 2.461,1.016 l 1.699,0.918 1.7,-4.688 -1.66,-0.742 c -0.782,-0.312 -1.719,-0.644 -2.832,-0.957 -1.114,-0.332 -2.344,-0.625 -3.731,-0.859 -1.367,-0.235 -2.812,-0.371 -4.336,-0.371 -3.183,0 -5.801,0.703 -7.851,2.07 -2.051,1.387 -3.692,3.164 -4.903,5.352 -1.211,2.187 -2.07,4.589 -2.539,7.207 -0.488,2.617 -0.742,5.195 -0.742,7.734 0,1.992 0.332,4.18 0.977,6.563 0.644,2.382 1.601,4.57 2.871,6.601 1.269,2.031 2.832,3.711 4.707,5.059 1.855,1.347 4.023,2.031 6.523,2.031 2.754,0 5.059,-0.645 6.953,-1.953 1.895,-1.289 3.418,-2.93 4.59,-4.942 1.152,-1.992 1.992,-4.179 2.5,-6.562 0.508,-2.363 0.781,-4.629 0.781,-6.797 v -2.031 h -24.316"
         style="fill:#546371;fill-opacity:1;fill-rule:nonzero;stroke:none"
         id="path98" /><path
         d="m 736.656,421.945 v 27.305 c 0,1.074 -0.176,2.188 -0.527,3.359 -0.352,1.153 -0.859,2.207 -1.504,3.164 -0.645,0.938 -1.465,1.7 -2.461,2.305 -0.996,0.586 -2.148,0.879 -3.457,0.879 -1.23,0 -2.441,-0.293 -3.594,-0.879 -1.172,-0.605 -2.187,-1.308 -3.086,-2.148 l -2.187,-2.559 -0.945,-2.109 v -29.317 h -5.582 v 40.664 h 5.347 v -5.664 l 1.063,1.485 c 0.605,0.742 1.386,1.484 2.343,2.246 0.977,0.742 2.09,1.426 3.321,2.012 1.25,0.605 2.578,0.898 3.984,0.898 2.149,0 4.043,-0.391 5.664,-1.172 1.621,-0.781 2.949,-1.836 4.004,-3.125 1.055,-1.289 1.856,-2.773 2.402,-4.414 0.528,-1.641 0.801,-3.301 0.801,-4.98 v -27.95 h -5.586"
         style="fill:#546371;fill-opacity:1;fill-rule:nonzero;stroke:none"
         id="path100" /><path
         d="m 754.469,444.055 v 5.019 h 17.011 v -5.019 h -17.011"
         style="fill:#546371;fill-opacity:1;fill-rule:nonzero;stroke:none"
         id="path102" /><path
         d="m 827.945,421.945 h -6.562 l -11.66,46.66 -11.504,-46.66 h -6.641 l -12.48,54.024 h 6.23 l 9.805,-46.641 11.504,46.641 h 6.562 l 11.582,-46.641 9.727,46.641 h 5.898 l -12.461,-54.024"
         style="fill:#546371;fill-opacity:1;fill-rule:nonzero;stroke:none"
         id="path104" /><path
         d="m 874.352,473.625 c 0,-1.016 -0.372,-1.895 -1.094,-2.637 -0.723,-0.722 -1.641,-1.093 -2.715,-1.093 -1.074,0 -1.973,0.371 -2.676,1.093 -0.703,0.742 -1.054,1.621 -1.054,2.637 0,1.035 0.351,1.914 1.054,2.637 0.703,0.722 1.602,1.093 2.676,1.093 1.074,0 1.992,-0.371 2.715,-1.093 0.722,-0.723 1.094,-1.602 1.094,-2.637 z m -13.926,0 c 0,-1.016 -0.371,-1.895 -1.094,-2.637 -0.742,-0.722 -1.641,-1.093 -2.715,-1.093 -1.094,0 -1.972,0.371 -2.676,1.093 -0.703,0.742 -1.054,1.621 -1.054,2.637 0,1.035 0.351,1.914 1.054,2.637 0.704,0.722 1.582,1.093 2.676,1.093 1.074,0 1.973,-0.371 2.715,-1.093 0.723,-0.723 1.094,-1.602 1.094,-2.637 z m 12.07,-51.68 v 5.762 l -1.094,-1.543 c -0.566,-0.762 -1.308,-1.523 -2.226,-2.266 -0.918,-0.761 -1.992,-1.445 -3.203,-2.031 -1.211,-0.586 -2.559,-0.898 -4.004,-0.898 -2.227,0 -4.121,0.39 -5.723,1.172 -1.582,0.8 -2.91,1.816 -3.926,3.086 -1.035,1.269 -1.777,2.734 -2.265,4.414 -0.489,1.679 -0.723,3.398 -0.723,5.195 v 27.773 h 5.586 v -27.304 c 0,-1.231 0.137,-2.442 0.449,-3.594 0.293,-1.172 0.723,-2.188 1.328,-3.086 0.586,-0.879 1.368,-1.621 2.344,-2.187 0.977,-0.567 2.168,-0.84 3.574,-0.84 1.289,0 2.5,0.332 3.633,1.015 1.133,0.664 2.149,1.446 3.008,2.305 l 2.07,2.598 0.84,1.777 v 29.316 h 5.586 v -40.664 h -5.254"
         style="fill:#546371;fill-opacity:1;fill-rule:nonzero;stroke:none"
         id="path106" /><path
         d="m 908.141,457.258 -1.465,0.703 -1.699,0.43 c -1.094,0 -2.11,-0.313 -3.086,-0.918 -0.977,-0.625 -1.836,-1.348 -2.578,-2.149 l -1.836,-2.402 -0.84,-1.738 v -29.239 h -5.606 v 40.664 h 5.352 v -5.664 l 0.859,1.407 1.895,2.265 c 0.82,0.781 1.777,1.485 2.871,2.071 1.113,0.605 2.363,0.898 3.769,0.898 l 2.305,-0.41 1.758,-0.801 -1.699,-5.117"
         style="fill:#546371;fill-opacity:1;fill-rule:nonzero;stroke:none"
         id="path108" /><path
         d="m 936.48,421.828 -1.621,-0.371 -1.894,-0.312 -1.836,-0.176 c -1.621,0 -2.988,0.254 -4.082,0.742 -1.113,0.488 -2.012,1.133 -2.676,1.973 -0.683,0.839 -1.172,1.796 -1.465,2.89 -0.293,1.074 -0.449,2.168 -0.449,3.321 V 458 h -6.797 v 4.609 h 6.797 v 11.016 h 5.606 v -11.016 h 8.007 V 458 h -8.007 v -27.539 c 0,-1.133 0.253,-2.227 0.761,-3.281 0.508,-1.055 1.387,-1.582 2.637,-1.582 0.762,0 1.582,0.136 2.5,0.449 0.918,0.293 1.543,0.547 1.875,0.762 l 1.699,-4.61 -1.055,-0.371"
         style="fill:#546371;fill-opacity:1;fill-rule:nonzero;stroke:none"
         id="path110" /><path
         d="m 964.098,421.828 -1.621,-0.371 -1.895,-0.312 -1.816,-0.176 c -1.621,0 -2.989,0.254 -4.102,0.742 -1.113,0.488 -1.992,1.133 -2.676,1.973 -0.664,0.839 -1.152,1.796 -1.445,2.89 -0.313,1.074 -0.449,2.168 -0.449,3.321 V 458 h -6.817 v 4.609 h 6.817 v 11.016 h 5.586 v -11.016 h 8.008 V 458 h -8.008 v -27.539 c 0,-1.133 0.254,-2.227 0.761,-3.281 0.528,-1.055 1.387,-1.582 2.637,-1.582 0.762,0 1.602,0.136 2.52,0.449 0.918,0.293 1.523,0.547 1.855,0.762 l 1.699,-4.61 -1.054,-0.371"
         style="fill:#546371;fill-opacity:1;fill-rule:nonzero;stroke:none"
         id="path112" /><path
         d="m 996.617,449.563 c -0.351,1.621 -0.879,3.144 -1.621,4.55 -0.723,1.387 -1.68,2.598 -2.871,3.594 -1.191,0.996 -2.617,1.504 -4.297,1.504 -1.562,0 -2.93,-0.469 -4.121,-1.426 -1.191,-0.937 -2.168,-2.109 -2.93,-3.515 -0.742,-1.407 -1.328,-2.911 -1.738,-4.493 -0.391,-1.601 -0.605,-3.066 -0.605,-4.414 h 18.711 c 0,1.172 -0.176,2.578 -0.528,4.2 z m -18.34,-8.262 c 0,-1.621 0.196,-3.34 0.606,-5.176 0.41,-1.836 1.035,-3.555 1.894,-5.137 0.879,-1.601 1.973,-2.929 3.34,-3.984 1.348,-1.055 2.969,-1.582 4.844,-1.582 1.133,0 2.266,0.137 3.359,0.371 1.114,0.254 2.149,0.527 3.086,0.859 0.938,0.313 1.778,0.645 2.481,1.016 l 1.699,0.918 1.694,-4.688 -1.655,-0.742 c -0.781,-0.312 -1.738,-0.644 -2.832,-0.957 -1.113,-0.332 -2.363,-0.625 -3.73,-0.859 -1.387,-0.235 -2.833,-0.371 -4.336,-0.371 -3.184,0 -5.801,0.703 -7.852,2.07 -2.051,1.387 -3.691,3.164 -4.902,5.352 -1.211,2.187 -2.071,4.589 -2.559,7.207 -0.488,2.617 -0.723,5.195 -0.723,7.734 0,1.992 0.313,4.18 0.977,6.563 0.645,2.382 1.602,4.57 2.871,6.601 1.27,2.031 2.832,3.711 4.688,5.059 1.875,1.347 4.043,2.031 6.523,2.031 2.754,0 5.078,-0.645 6.973,-1.953 1.894,-1.289 3.418,-2.93 4.57,-4.942 1.167,-1.992 1.987,-4.179 2.517,-6.562 0.51,-2.363 0.76,-4.629 0.76,-6.797 v -2.031 h -24.293"
         style="fill:#546371;fill-opacity:1;fill-rule:nonzero;stroke:none"
         id="path114" /><path
         d="m 1058.63,421.945 v 27.305 c 0,1.191 -0.14,2.363 -0.41,3.516 -0.28,1.172 -0.69,2.207 -1.25,3.125 -0.57,0.918 -1.33,1.66 -2.31,2.226 -0.97,0.567 -2.13,0.84 -3.49,0.84 -1.39,0 -2.66,-0.254 -3.75,-0.762 -1.12,-0.507 -2.05,-1.132 -2.85,-1.855 l -1.9,-2.324 -0.8,-2.09 v -29.981 h -5.61 v 27.305 c 0,1.191 -0.11,2.363 -0.35,3.516 -0.25,1.172 -0.64,2.207 -1.21,3.125 -0.58,0.918 -1.33,1.66 -2.28,2.226 -0.94,0.567 -2.15,0.84 -3.6,0.84 -1.31,0 -2.5,-0.293 -3.61,-0.879 -1.09,-0.605 -2.05,-1.308 -2.87,-2.148 l -1.93,-2.559 -0.9,-2.109 v -29.317 h -5.59 v 40.664 h 5.33 v -5.664 l 1.02,1.407 2.03,2.265 c 0.84,0.781 1.86,1.485 3.09,2.071 1.21,0.605 2.57,0.898 4.08,0.898 1.99,0 3.65,-0.273 4.98,-0.82 1.33,-0.528 2.42,-1.172 3.28,-1.895 l 1.95,-2.187 0.96,-1.739 1.09,1.485 c 0.57,0.742 1.33,1.484 2.27,2.246 0.96,0.742 2.09,1.426 3.42,2.012 1.31,0.605 2.79,0.898 4.41,0.898 2.31,0 4.28,-0.391 5.86,-1.172 1.6,-0.781 2.89,-1.836 3.85,-3.125 0.97,-1.289 1.66,-2.773 2.07,-4.414 0.41,-1.641 0.6,-3.301 0.6,-4.98 v -27.95 h -5.58"
         style="fill:#546371;fill-opacity:1;fill-rule:nonzero;stroke:none"
         id="path116" /><path
         d="m 1103.02,443.332 c 0,1.777 -0.21,3.613 -0.6,5.469 -0.41,1.855 -1.04,3.554 -1.88,5.058 -0.84,1.524 -1.89,2.735 -3.14,3.692 -1.27,0.937 -2.82,1.406 -4.59,1.406 -1.08,0 -2.15,-0.312 -3.21,-0.957 -1.05,-0.664 -2.01,-1.406 -2.87,-2.227 l -2.18,-2.558 -0.98,-1.953 v -24.688 l 1.27,-0.332 2.01,-0.293 2.23,-0.234 1.95,-0.117 c 1.89,0 3.57,0.566 5.06,1.699 1.48,1.133 2.73,2.558 3.77,4.297 1.01,1.719 1.81,3.633 2.34,5.742 0.55,2.109 0.82,4.102 0.82,5.996 z m 5.82,0 c 0,-2.637 -0.37,-5.293 -1.13,-7.93 -0.74,-2.656 -1.89,-5.039 -3.4,-7.168 -1.5,-2.148 -3.38,-3.886 -5.58,-5.234 -2.21,-1.348 -4.79,-2.031 -7.7,-2.031 -0.82,0 -1.86,0.078 -3.12,0.215 -1.27,0.136 -2.54,0.312 -3.85,0.527 -1.29,0.215 -2.5,0.43 -3.64,0.644 -1.13,0.215 -1.95,0.372 -2.44,0.489 v 56.543 h 5.59 v -22.442 l 1.09,1.582 2.19,2.227 c 0.9,0.742 1.91,1.406 3.05,1.973 1.13,0.566 2.32,0.859 3.55,0.859 2.76,0 5.12,-0.645 7.05,-1.914 1.96,-1.27 3.54,-2.871 4.79,-4.805 1.23,-1.953 2.15,-4.121 2.71,-6.523 0.57,-2.403 0.84,-4.746 0.84,-7.012"
         style="fill:#546371;fill-opacity:1;fill-rule:nonzero;stroke:none"
         id="path118" /><path
         d="m 1141.21,449.563 c -0.36,1.621 -0.9,3.144 -1.63,4.55 -0.72,1.387 -1.67,2.598 -2.87,3.594 -1.19,0.996 -2.61,1.504 -4.29,1.504 -1.57,0 -2.95,-0.469 -4.12,-1.426 -1.2,-0.937 -2.17,-2.109 -2.93,-3.515 -0.77,-1.407 -1.33,-2.911 -1.74,-4.493 -0.41,-1.601 -0.61,-3.066 -0.61,-4.414 h 18.71 c 0,1.172 -0.17,2.578 -0.52,4.2 z m -18.34,-8.262 c 0,-1.621 0.19,-3.34 0.6,-5.176 0.41,-1.836 1.04,-3.555 1.9,-5.137 0.86,-1.601 1.97,-2.929 3.32,-3.984 1.34,-1.055 2.97,-1.582 4.86,-1.582 1.13,0 2.27,0.137 3.36,0.371 1.11,0.254 2.13,0.527 3.09,0.859 0.93,0.313 1.75,0.645 2.46,1.016 l 1.7,0.918 1.69,-4.688 -1.66,-0.742 c -0.78,-0.312 -1.71,-0.644 -2.83,-0.957 -1.09,-0.332 -2.34,-0.625 -3.71,-0.859 -1.39,-0.235 -2.83,-0.371 -4.33,-0.371 -3.21,0 -5.82,0.703 -7.88,2.07 -2.05,1.387 -3.67,3.164 -4.9,5.352 -1.21,2.187 -2.05,4.589 -2.54,7.207 -0.49,2.617 -0.72,5.195 -0.72,7.734 0,1.992 0.31,4.18 0.96,6.563 0.64,2.382 1.62,4.57 2.87,6.601 1.27,2.031 2.85,3.711 4.71,5.059 1.85,1.347 4.04,2.031 6.52,2.031 2.75,0 5.08,-0.645 6.97,-1.953 1.88,-1.289 3.4,-2.93 4.57,-4.942 1.15,-1.992 1.99,-4.179 2.5,-6.562 0.53,-2.363 0.78,-4.629 0.78,-6.797 v -2.031 h -24.29"
         style="fill:#546371;fill-opacity:1;fill-rule:nonzero;stroke:none"
         id="path120" /><path
         d="m 1175.6,457.258 -1.46,0.703 -1.7,0.43 c -1.08,0 -2.11,-0.313 -3.09,-0.918 -0.96,-0.625 -1.84,-1.348 -2.58,-2.149 l -1.83,-2.402 -0.84,-1.738 v -29.239 h -5.59 v 40.664 h 5.33 v -5.664 l 0.86,1.407 1.9,2.265 c 0.82,0.781 1.77,1.485 2.89,2.071 1.09,0.605 2.36,0.898 3.77,0.898 l 2.3,-0.41 1.74,-0.801 -1.7,-5.117"
         style="fill:#546371;fill-opacity:1;fill-rule:nonzero;stroke:none"
         id="path122" /><path
         d="m 1206.05,449.563 c 0,2.968 -0.74,5.371 -2.23,7.167 -1.48,1.817 -3.51,2.715 -6.11,2.715 -1.29,0 -2.48,-0.273 -3.52,-0.8 -1.05,-0.547 -1.93,-1.27 -2.63,-2.188 -0.71,-0.918 -1.25,-1.973 -1.62,-3.164 -0.39,-1.191 -0.57,-2.422 -0.57,-3.73 0,-1.446 0.14,-2.852 0.45,-4.161 0.29,-1.328 0.76,-2.48 1.41,-3.437 0.64,-0.977 1.5,-1.758 2.55,-2.324 1.06,-0.567 2.37,-0.84 3.93,-0.84 1.5,0 2.79,0.332 3.85,1.015 1.05,0.664 1.91,1.524 2.6,2.539 0.66,1.036 1.15,2.188 1.44,3.438 0.31,1.27 0.45,2.539 0.45,3.77 z m 2.91,-34.258 c 0,2.109 -1.05,3.847 -3.18,5.234 -2.15,1.367 -4.83,2.051 -8.07,2.051 -1.35,0 -2.66,-0.176 -3.93,-0.567 -1.27,-0.371 -2.4,-0.878 -3.36,-1.543 -0.97,-0.644 -1.75,-1.406 -2.36,-2.304 -0.58,-0.879 -0.88,-1.836 -0.88,-2.871 0,-1.016 0.26,-2.012 0.76,-2.95 0.51,-0.957 1.23,-1.796 2.15,-2.519 0.92,-0.723 2.03,-1.309 3.32,-1.738 1.31,-0.43 2.74,-0.645 4.3,-0.645 1.62,0 3.11,0.235 4.45,0.684 1.35,0.468 2.54,1.054 3.58,1.777 1.01,0.742 1.81,1.563 2.38,2.52 0.57,0.937 0.84,1.894 0.84,2.871 z m -0.57,43.34 0.9,-1.211 1.1,-1.993 c 0.35,-0.781 0.66,-1.679 0.93,-2.675 0.28,-0.996 0.39,-2.071 0.39,-3.203 0,-2.051 -0.35,-3.985 -1.03,-5.782 -0.7,-1.816 -1.68,-3.398 -2.93,-4.746 -1.23,-1.347 -2.72,-2.422 -4.45,-3.203 -1.72,-0.781 -3.6,-1.172 -5.59,-1.172 l -1.89,-0.312 -1.92,-0.821 -1.5,-1.172 -0.61,-1.425 c 0,-1.172 0.57,-2.149 1.66,-2.91 1.12,-0.762 2.52,-1.133 4.26,-1.133 2.21,0 4.36,-0.254 6.41,-0.762 2.05,-0.527 3.84,-1.27 5.41,-2.266 1.58,-1.015 2.81,-2.226 3.73,-3.652 0.91,-1.426 1.38,-3.066 1.38,-4.902 0,-1.407 -0.41,-2.813 -1.21,-4.219 -0.82,-1.387 -1.97,-2.695 -3.45,-3.887 -1.49,-1.172 -3.27,-2.148 -5.34,-2.871 -2.09,-0.723 -4.39,-1.094 -6.93,-1.094 -2.27,0 -4.39,0.293 -6.37,0.899 -1.97,0.586 -3.65,1.387 -5.06,2.383 -1.4,0.996 -2.5,2.187 -3.32,3.574 -0.8,1.367 -1.21,2.871 -1.21,4.492 0,1.563 0.41,2.949 1.25,4.16 0.84,1.231 1.84,2.227 2.97,3.047 1.13,0.801 2.29,1.445 3.48,1.895 1.19,0.468 2.17,0.722 2.91,0.781 l -1.54,0.449 -1.9,0.996 -1.62,1.699 c -0.45,0.704 -0.68,1.543 -0.68,2.52 l 0.64,1.894 1.54,1.661 1.82,1.23 1.58,0.645 c -0.76,0.273 -1.62,0.703 -2.6,1.328 -0.97,0.625 -1.89,1.484 -2.79,2.597 -0.88,1.114 -1.62,2.481 -2.23,4.141 -0.58,1.641 -0.87,3.613 -0.87,5.938 0,1.738 0.35,3.437 1.07,5.117 0.74,1.66 1.74,3.164 3.01,4.492 1.27,1.328 2.75,2.383 4.45,3.203 1.7,0.801 3.52,1.211 5.47,1.211 1.25,0 2.42,-0.117 3.52,-0.371 1.11,-0.235 1.91,-0.449 2.4,-0.606 h 11.5 v -3.964 h -6.74"
         style="fill:#546371;fill-opacity:1;fill-rule:nonzero;stroke:none"
         id="path124" /><path
         d="m 581.199,539.094 c 0,3.281 -0.476,6.23 -1.441,8.828 -0.981,2.598 -2.278,4.785 -3.899,6.601 -1.613,1.817 -3.496,3.204 -5.632,4.18 -2.129,0.957 -4.36,1.445 -6.68,1.445 h -6.645 v -44.472 h 6.899 c 2.422,0 4.707,0.605 6.836,1.836 2.129,1.211 3.98,2.871 5.547,4.98 1.558,2.11 2.793,4.571 3.687,7.403 0.891,2.832 1.328,5.898 1.328,9.199 z m 6.074,0 c 0,-3.946 -0.585,-7.637 -1.777,-11.055 -1.187,-3.437 -2.82,-6.426 -4.898,-8.965 -2.075,-2.519 -4.551,-4.531 -7.407,-5.976 -2.871,-1.465 -5.972,-2.188 -9.312,-2.188 h -12.895 v 54.024 h 11.758 c 3.457,0 6.684,-0.606 9.668,-1.778 3.012,-1.191 5.61,-2.89 7.824,-5.117 2.215,-2.207 3.938,-4.902 5.188,-8.086 1.238,-3.203 1.851,-6.816 1.851,-10.859"
         style="fill:#546371;fill-opacity:1;fill-rule:nonzero;stroke:none"
         id="path126" /><path
         d="m 620.09,510.91 v 5.742 l -1.098,-1.543 c -0.562,-0.742 -1.304,-1.504 -2.222,-2.265 -0.918,-0.762 -1.985,-1.426 -3.207,-2.031 -1.208,-0.586 -2.547,-0.879 -4,-0.879 -2.219,0 -4.125,0.39 -5.715,1.171 -1.59,0.782 -2.903,1.817 -3.938,3.086 -1.015,1.27 -1.773,2.735 -2.265,4.414 -0.489,1.661 -0.719,3.399 -0.719,5.176 v 27.793 h 5.586 V 524.27 c 0,-1.25 0.156,-2.442 0.449,-3.614 0.293,-1.152 0.738,-2.187 1.324,-3.066 0.61,-0.899 1.391,-1.621 2.356,-2.188 0.964,-0.566 2.16,-0.859 3.562,-0.859 1.301,0 2.524,0.332 3.652,1.016 1.133,0.683 2.129,1.445 2.993,2.304 l 2.07,2.598 0.848,1.777 v 29.336 h 5.586 V 510.91 h -5.262"
         style="fill:#546371;fill-opacity:1;fill-rule:nonzero;stroke:none"
         id="path128" /><path
         d="m 659.617,531.965 -6.804,-1.465 c -1.133,-0.273 -2.344,-0.664 -3.633,-1.211 -1.309,-0.547 -2.481,-1.191 -3.535,-1.934 -1.055,-0.761 -1.915,-1.621 -2.618,-2.597 -0.703,-0.977 -1.054,-2.031 -1.054,-3.164 0,-2.266 0.683,-4.043 2.05,-5.352 1.387,-1.289 3.067,-1.933 5.079,-1.933 1.23,0 2.441,0.254 3.593,0.761 1.172,0.508 2.227,1.172 3.164,1.953 0.938,0.782 1.739,1.622 2.371,2.5 l 1.387,2.559 z m 0.317,-21.055 v 5.742 l -1.172,-1.621 c -0.625,-0.761 -1.438,-1.504 -2.453,-2.265 -1.036,-0.762 -2.207,-1.426 -3.536,-1.993 -1.308,-0.566 -2.734,-0.839 -4.238,-0.839 -3.574,0 -6.504,0.996 -8.789,2.988 -2.305,2.012 -3.457,4.805 -3.457,8.437 0,1.719 0.508,3.321 1.504,4.766 0.996,1.465 2.266,2.734 3.809,3.809 1.543,1.093 3.203,1.992 5.019,2.754 1.817,0.761 3.496,1.308 5.059,1.621 l 7.937,1.777 v 2.676 c 0,2.656 -0.722,4.883 -2.137,6.679 -1.425,1.817 -3.613,2.715 -6.523,2.715 -0.859,0 -1.836,-0.156 -2.91,-0.488 -1.094,-0.313 -2.109,-0.684 -3.086,-1.094 -0.977,-0.39 -1.856,-0.801 -2.637,-1.211 l -1.484,-0.84 -1.699,4.375 1.523,0.801 c 0.82,0.371 1.797,0.781 2.93,1.211 1.133,0.43 2.383,0.82 3.75,1.133 1.386,0.332 2.773,0.488 4.179,0.488 4.102,0 7.372,-1.133 9.829,-3.437 2.461,-2.285 3.691,-5.664 3.691,-10.078 V 510.91 h -5.109"
         style="fill:#546371;fill-opacity:1;fill-rule:nonzero;stroke:none"
         id="path130" /><path
         d="m 689.984,510.344 c -0.976,-0.274 -1.855,-0.41 -2.675,-0.41 -1.621,0 -2.95,0.273 -3.965,0.8 -1.035,0.547 -1.856,1.27 -2.481,2.149 -0.605,0.898 -1.035,1.933 -1.289,3.125 -0.234,1.191 -0.371,2.422 -0.371,3.73 v 48.594 h 5.606 v -48.105 c 0,-1.68 0.214,-3.028 0.644,-4.063 0.43,-1.016 1.152,-1.543 2.188,-1.543 l 1.445,0.41 1.23,0.821 1.7,-4.707 c -0.391,-0.274 -1.055,-0.547 -2.032,-0.801"
         style="fill:#546371;fill-opacity:1;fill-rule:nonzero;stroke:none"
         id="path132" /><path
         d="m 722.926,538.527 c -0.352,1.621 -0.899,3.125 -1.621,4.532 -0.723,1.406 -1.68,2.597 -2.875,3.613 -1.196,0.996 -2.637,1.484 -4.297,1.484 -1.567,0 -2.949,-0.468 -4.145,-1.406 -1.187,-0.957 -2.144,-2.129 -2.91,-3.535 -0.762,-1.406 -1.324,-2.891 -1.734,-4.492 -0.418,-1.582 -0.614,-3.067 -0.614,-4.414 h 18.723 c 0,1.191 -0.176,2.597 -0.527,4.218 z m -18.371,-8.261 c 0,-1.621 0.215,-3.36 0.633,-5.196 0.386,-1.836 1.035,-3.535 1.89,-5.136 0.86,-1.602 1.977,-2.911 3.32,-3.965 1.348,-1.055 2.969,-1.582 4.868,-1.582 1.129,0 2.246,0.117 3.355,0.371 1.121,0.234 2.137,0.527 3.094,0.84 0.937,0.332 1.758,0.664 2.461,1.015 l 1.699,0.938 1.699,-4.707 -1.66,-0.723 c -0.781,-0.332 -1.719,-0.644 -2.832,-0.976 -1.094,-0.332 -2.344,-0.606 -3.711,-0.84 -1.391,-0.254 -2.84,-0.371 -4.359,-0.371 -3.188,0 -5.801,0.683 -7.856,2.07 -2.051,1.367 -3.695,3.144 -4.906,5.332 -1.211,2.187 -2.07,4.59 -2.539,7.207 -0.488,2.637 -0.742,5.215 -0.742,7.754 0,1.992 0.332,4.18 0.976,6.543 0.645,2.383 1.602,4.59 2.871,6.601 1.27,2.032 2.836,3.711 4.711,5.079 1.86,1.347 4.028,2.011 6.528,2.011 2.754,0 5.054,-0.644 6.976,-1.933 1.875,-1.309 3.399,-2.95 4.571,-4.942 1.152,-2.011 1.992,-4.179 2.5,-6.562 0.527,-2.383 0.781,-4.649 0.781,-6.797 v -2.031 h -24.328"
         style="fill:#546371;fill-opacity:1;fill-rule:nonzero;stroke:none"
         id="path134" /><path
         d="m 792.711,510.91 v 25.742 H 770.426 V 510.91 h -5.899 v 54.024 h 5.899 v -23.418 h 22.285 v 23.418 h 5.918 V 510.91 h -5.918"
         style="fill:#546371;fill-opacity:1;fill-rule:nonzero;stroke:none"
         id="path136" /><path
         d="m 837.672,532.297 c 0,1.348 -0.176,2.91 -0.488,4.687 -0.332,1.778 -0.899,3.477 -1.7,5.098 -0.82,1.621 -1.875,3.008 -3.164,4.141 -1.289,1.132 -2.91,1.699 -4.863,1.699 -1.894,0 -3.477,-0.547 -4.785,-1.621 -1.289,-1.074 -2.344,-2.422 -3.145,-4.004 -0.82,-1.602 -1.386,-3.301 -1.738,-5.117 -0.351,-1.797 -0.527,-3.438 -0.527,-4.883 0,-1.621 0.136,-3.457 0.429,-5.527 0.313,-2.051 0.84,-3.965 1.582,-5.782 0.762,-1.816 1.797,-3.34 3.125,-4.57 1.329,-1.25 3.008,-1.875 5.059,-1.875 1.992,0 3.652,0.625 4.981,1.875 1.328,1.23 2.382,2.754 3.164,4.57 0.781,1.817 1.328,3.731 1.621,5.782 0.293,2.07 0.449,3.906 0.449,5.527 z m 5.82,0 c 0,-2.227 -0.273,-4.649 -0.84,-7.266 -0.566,-2.617 -1.484,-5.039 -2.714,-7.285 -1.25,-2.246 -2.891,-4.101 -4.942,-5.586 -2.051,-1.484 -4.57,-2.226 -7.539,-2.226 -3.066,0 -5.644,0.742 -7.734,2.226 -2.071,1.485 -3.731,3.34 -4.942,5.547 -1.211,2.207 -2.07,4.629 -2.597,7.246 -0.508,2.617 -0.762,5.059 -0.762,7.344 0,1.816 0.293,3.906 0.898,6.23 0.586,2.325 1.524,4.512 2.832,6.602 1.289,2.07 2.95,3.828 4.981,5.254 2.031,1.445 4.472,2.148 7.324,2.148 3.027,0 5.566,-0.703 7.617,-2.109 2.051,-1.387 3.692,-3.125 4.942,-5.176 1.25,-2.051 2.129,-4.258 2.675,-6.601 0.528,-2.344 0.801,-4.473 0.801,-6.348"
         style="fill:#546371;fill-opacity:1;fill-rule:nonzero;stroke:none"
         id="path138" /><path
         d="m 878.766,512.121 c -0.664,-0.332 -1.504,-0.644 -2.5,-0.976 -0.996,-0.332 -2.129,-0.606 -3.36,-0.84 -1.25,-0.254 -2.539,-0.371 -3.886,-0.371 -2.93,0 -5.391,0.644 -7.422,1.933 -2.032,1.309 -3.653,3.008 -4.903,5.117 -1.23,2.09 -2.148,4.493 -2.715,7.168 -0.566,2.676 -0.839,5.371 -0.839,8.145 0,2.266 0.371,4.59 1.132,6.992 0.762,2.402 1.817,4.59 3.204,6.524 1.367,1.953 3.046,3.554 5.019,4.824 1.973,1.269 4.199,1.894 6.68,1.894 1.191,0 2.344,-0.097 3.476,-0.312 1.133,-0.215 2.149,-0.489 3.047,-0.781 l 2.266,-0.879 1.172,-0.704 -1.699,-4.687 -1.133,0.684 -2.11,0.937 -2.558,0.801 -2.461,0.332 c -1.621,0 -3.067,-0.488 -4.336,-1.465 -1.27,-0.957 -2.344,-2.227 -3.203,-3.769 -0.86,-1.524 -1.524,-3.223 -1.973,-5.059 -0.469,-1.836 -0.703,-3.613 -0.703,-5.332 0,-2.109 0.195,-4.238 0.566,-6.367 0.391,-2.129 0.996,-4.043 1.836,-5.703 0.84,-1.68 1.914,-3.047 3.242,-4.102 1.309,-1.055 2.891,-1.582 4.727,-1.582 0.859,0 1.758,0.117 2.676,0.332 0.918,0.215 1.797,0.488 2.637,0.801 l 2.265,1.015 1.504,0.938 1.699,-4.785 -1.347,-0.723"
         style="fill:#546371;fill-opacity:1;fill-rule:nonzero;stroke:none"
         id="path140" /><path
         d="m 913.805,510.91 v 27.285 c 0,1.094 -0.176,2.207 -0.528,3.36 -0.351,1.172 -0.839,2.226 -1.504,3.164 -0.644,0.937 -1.464,1.719 -2.46,2.304 -0.997,0.606 -2.149,0.899 -3.438,0.899 -1.309,0 -2.539,-0.313 -3.691,-0.938 -1.153,-0.625 -2.188,-1.347 -3.086,-2.187 l -2.129,-2.539 -0.899,-2.031 V 510.91 h -5.586 v 57.422 h 5.586 v -22.441 l 1.016,1.582 c 0.566,0.722 1.309,1.465 2.266,2.226 0.937,0.762 2.031,1.426 3.242,1.992 1.211,0.567 2.519,0.84 3.926,0.84 2.148,0 4.043,-0.39 5.664,-1.172 1.621,-0.781 2.968,-1.816 4.004,-3.105 1.054,-1.309 1.855,-2.774 2.402,-4.434 0.527,-1.64 0.801,-3.3 0.801,-4.98 v -27.93 h -5.586"
         style="fill:#546371;fill-opacity:1;fill-rule:nonzero;stroke:none"
         id="path142" /><path
         d="m 956.246,522.004 c 0,-1.738 -0.351,-3.34 -1.055,-4.824 -0.703,-1.485 -1.66,-2.774 -2.871,-3.848 -1.211,-1.074 -2.636,-1.914 -4.297,-2.519 -1.64,-0.586 -3.378,-0.879 -5.214,-0.879 -1.621,0 -3.125,0.097 -4.493,0.312 -1.386,0.234 -2.617,0.488 -3.691,0.82 -1.074,0.332 -2.012,0.645 -2.793,0.977 l -1.836,0.801 1.719,4.531 1.621,-0.762 c 0.801,-0.351 1.738,-0.683 2.793,-1.015 1.055,-0.313 2.168,-0.625 3.359,-0.879 1.172,-0.274 2.266,-0.41 3.242,-0.41 2.051,0 3.848,0.586 5.372,1.777 1.543,1.191 2.324,2.832 2.324,4.941 0,1.192 -0.488,2.246 -1.426,3.203 -0.937,0.938 -2.129,1.856 -3.555,2.754 -1.445,0.879 -2.988,1.778 -4.668,2.676 -1.679,0.879 -3.222,1.836 -4.648,2.871 -1.445,1.016 -2.637,2.149 -3.574,3.399 -0.938,1.25 -1.407,2.695 -1.407,4.375 0,1.777 0.332,3.437 1.036,4.941 0.703,1.504 1.66,2.813 2.89,3.887 1.211,1.074 2.598,1.914 4.16,2.519 1.563,0.586 3.243,0.879 5.02,0.879 1.094,0 2.187,-0.097 3.281,-0.312 1.113,-0.215 2.129,-0.469 3.047,-0.742 0.918,-0.254 1.699,-0.547 2.344,-0.84 l 1.387,-0.782 -1.7,-4.453 -1.269,0.821 -2.149,0.937 -2.539,0.762 -2.48,0.332 c -2.051,0 -3.809,-0.645 -5.254,-1.914 -1.465,-1.27 -2.188,-2.949 -2.188,-5.059 0,-1.191 0.489,-2.304 1.446,-3.32 0.976,-1.035 2.187,-2.012 3.613,-2.91 1.426,-0.938 2.988,-1.836 4.687,-2.715 1.719,-0.898 3.282,-1.856 4.708,-2.891 1.425,-1.015 2.636,-2.148 3.613,-3.359 0.957,-1.211 1.445,-2.578 1.445,-4.082"
         style="fill:#546371;fill-opacity:1;fill-rule:nonzero;stroke:none"
         id="path144" /><path
         d="m 991.051,512.121 c -0.684,-0.332 -1.524,-0.644 -2.52,-0.976 -0.996,-0.332 -2.109,-0.606 -3.359,-0.84 -1.25,-0.254 -2.539,-0.371 -3.887,-0.371 -2.91,0 -5.39,0.644 -7.422,1.933 -2.011,1.309 -3.652,3.008 -4.902,5.117 -1.231,2.09 -2.129,4.493 -2.695,7.168 -0.567,2.676 -0.86,5.371 -0.86,8.145 0,2.266 0.371,4.59 1.133,6.992 0.762,2.402 1.816,4.59 3.203,6.524 1.367,1.953 3.047,3.554 5.02,4.824 1.972,1.269 4.199,1.894 6.679,1.894 1.192,0 2.344,-0.097 3.477,-0.312 1.152,-0.215 2.148,-0.489 3.047,-0.781 l 2.265,-0.879 1.172,-0.704 -1.699,-4.687 -1.133,0.684 -2.109,0.937 -2.539,0.801 -2.481,0.332 c -1.621,0 -3.066,-0.488 -4.336,-1.465 -1.269,-0.957 -2.324,-2.227 -3.203,-3.769 -0.859,-1.524 -1.523,-3.223 -1.972,-5.059 -0.469,-1.836 -0.684,-3.613 -0.684,-5.332 0,-2.109 0.176,-4.238 0.567,-6.367 0.371,-2.129 0.976,-4.043 1.816,-5.703 0.84,-1.68 1.914,-3.047 3.242,-4.102 1.328,-1.055 2.891,-1.582 4.727,-1.582 0.879,0 1.757,0.117 2.675,0.332 0.918,0.215 1.797,0.488 2.637,0.801 l 2.266,1.015 1.504,0.938 1.699,-4.785 -1.328,-0.723"
         style="fill:#546371;fill-opacity:1;fill-rule:nonzero;stroke:none"
         id="path146" /><path
         d="m 1026.07,510.91 v 27.285 c 0,1.094 -0.18,2.207 -0.53,3.36 -0.35,1.172 -0.84,2.226 -1.48,3.164 -0.65,0.937 -1.49,1.719 -2.48,2.304 -1,0.606 -2.15,0.899 -3.44,0.899 -1.29,0 -2.52,-0.313 -3.69,-0.938 -1.15,-0.625 -2.19,-1.347 -3.07,-2.187 l -2.15,-2.539 -0.9,-2.031 V 510.91 h -5.58 v 57.422 h 5.58 v -22.441 l 1.02,1.582 c 0.57,0.722 1.33,1.465 2.27,2.226 0.93,0.762 2.03,1.426 3.24,1.992 1.21,0.567 2.52,0.84 3.92,0.84 2.17,0 4.07,-0.39 5.67,-1.172 1.62,-0.781 2.97,-1.816 4.02,-3.105 1.06,-1.309 1.84,-2.774 2.38,-4.434 0.55,-1.64 0.82,-3.3 0.82,-4.98 v -27.93 h -5.6"
         style="fill:#546371;fill-opacity:1;fill-rule:nonzero;stroke:none"
         id="path148" /><path
         d="m 1068.35,510.91 v 5.742 l -1.09,-1.543 c -0.57,-0.742 -1.31,-1.504 -2.23,-2.265 -0.91,-0.762 -1.97,-1.426 -3.2,-2.031 -1.21,-0.586 -2.54,-0.879 -4,-0.879 -2.21,0 -4.12,0.39 -5.71,1.171 -1.6,0.782 -2.91,1.817 -3.94,3.086 -1.02,1.27 -1.78,2.735 -2.27,4.414 -0.49,1.661 -0.72,3.399 -0.72,5.176 v 27.793 h 5.59 V 524.27 c 0,-1.25 0.15,-2.442 0.45,-3.614 0.29,-1.152 0.74,-2.187 1.32,-3.066 0.61,-0.899 1.39,-1.621 2.37,-2.188 0.95,-0.566 2.15,-0.859 3.55,-0.859 1.31,0 2.52,0.332 3.65,1.016 1.14,0.683 2.13,1.445 2.99,2.304 l 2.07,2.598 0.86,1.777 v 29.336 h 5.59 V 510.91 h -5.28"
         style="fill:#546371;fill-opacity:1;fill-rule:nonzero;stroke:none"
         id="path150" /><path
         d="m 1098.26,510.344 c -0.98,-0.274 -1.88,-0.41 -2.68,-0.41 -1.62,0 -2.95,0.273 -3.98,0.8 -1.02,0.547 -1.84,1.27 -2.46,2.149 -0.63,0.898 -1.06,1.933 -1.29,3.125 -0.26,1.191 -0.37,2.422 -0.37,3.73 v 48.594 h 5.58 v -48.105 c 0,-1.68 0.22,-3.028 0.65,-4.063 0.43,-1.016 1.17,-1.543 2.18,-1.543 l 1.47,0.41 1.21,0.821 1.7,-4.707 c -0.37,-0.274 -1.06,-0.547 -2.01,-0.801"
         style="fill:#546371;fill-opacity:1;fill-rule:nonzero;stroke:none"
         id="path152" /><path
         d="m 1130.7,538.527 c -0.35,1.621 -0.9,3.125 -1.62,4.532 -0.75,1.406 -1.7,2.597 -2.89,3.613 -1.19,0.996 -2.62,1.484 -4.28,1.484 -1.58,0 -2.95,-0.468 -4.14,-1.406 -1.19,-0.957 -2.17,-2.129 -2.91,-3.535 -0.76,-1.406 -1.35,-2.891 -1.74,-4.492 -0.41,-1.582 -0.62,-3.067 -0.62,-4.414 h 18.71 c 0,1.191 -0.18,2.597 -0.51,4.218 z m -18.36,-8.261 c 0,-1.621 0.21,-3.36 0.6,-5.196 0.41,-1.836 1.04,-3.535 1.92,-5.136 0.86,-1.602 1.97,-2.911 3.32,-3.965 1.35,-1.055 2.97,-1.582 4.86,-1.582 1.13,0 2.25,0.117 3.36,0.371 1.1,0.234 2.13,0.527 3.07,0.84 0.95,0.332 1.78,0.664 2.48,1.015 l 1.7,0.938 1.7,-4.707 -1.66,-0.723 c -0.78,-0.332 -1.74,-0.644 -2.84,-0.976 -1.11,-0.332 -2.34,-0.606 -3.73,-0.84 -1.36,-0.254 -2.81,-0.371 -4.33,-0.371 -3.19,0 -5.8,0.683 -7.85,2.07 -2.05,1.367 -3.69,3.144 -4.91,5.332 -1.21,2.187 -2.07,4.59 -2.55,7.207 -0.49,2.637 -0.73,5.215 -0.73,7.754 0,1.992 0.33,4.18 0.98,6.543 0.64,2.383 1.6,4.59 2.87,6.601 1.27,2.032 2.83,3.711 4.71,5.079 1.85,1.347 4.02,2.011 6.5,2.011 2.76,0 5.08,-0.644 6.97,-1.933 1.9,-1.309 3.42,-2.95 4.57,-4.942 1.18,-2.011 2.02,-4.179 2.52,-6.562 0.51,-2.383 0.77,-4.649 0.77,-6.797 v -2.031 h -24.3"
         style="fill:#546371;fill-opacity:1;fill-rule:nonzero;stroke:none"
         id="path154" /><path
         d="m 669.516,728.195 c 0,10.215 -1.27,19.766 -3.828,28.594 -2.559,8.848 -6.34,16.504 -11.352,22.871 -4.981,6.406 -11.035,11.465 -18.066,15.195 -7.032,3.731 -15.032,5.586 -23.985,5.586 H 588.301 V 646.672 h 22.07 c 8.938,0 17.031,2.012 24.297,6.074 7.266,4.043 13.496,9.688 18.711,16.934 5.207,7.246 9.203,15.84 11.976,25.722 2.774,9.942 4.161,20.86 4.161,32.793 z m 38.738,0 c 0,-15.976 -2.285,-30.761 -6.863,-44.375 -4.571,-13.632 -11.036,-25.39 -19.336,-35.293 -8.301,-9.882 -18.418,-17.597 -30.356,-23.125 -11.914,-5.547 -25.234,-8.3 -39.929,-8.3 h -53.372 c -2.343,0 -4.218,0.742 -5.585,2.207 -1.387,1.504 -2.083,3.418 -2.083,5.761 v 196.973 c 0,2.363 0.696,4.258 2.083,5.742 1.386,1.504 3.242,2.246 5.585,2.246 h 53.055 c 14.485,0 27.688,-2.441 39.602,-7.343 11.937,-4.903 22.113,-11.817 30.511,-20.762 8.418,-8.946 14.981,-19.629 19.649,-32.09 4.715,-12.441 7.039,-26.328 7.039,-41.641"
         style="fill:#ea1f26;fill-opacity:1;fill-rule:nonzero;stroke:none"
         id="path156" /><path
         d="m 891.031,619.309 c -1.484,-1.465 -3.379,-2.207 -5.722,-2.207 h -21.973 c -2.344,0 -4.199,0.742 -5.566,2.226 -1.368,1.485 -2.071,3.399 -2.071,5.742 v 87.578 h -73.73 V 625.07 c 0,-2.343 -0.742,-4.257 -2.227,-5.742 -1.465,-1.484 -3.398,-2.226 -5.722,-2.226 h -21.973 c -2.324,0 -4.18,0.742 -5.567,2.207 -1.367,1.504 -2.07,3.418 -2.07,5.761 v 196.973 c 0,2.363 0.703,4.258 2.07,5.742 1.387,1.504 3.243,2.246 5.567,2.246 h 21.973 c 2.324,0 4.257,-0.742 5.722,-2.246 1.485,-1.484 2.227,-3.379 2.227,-5.742 v -78.164 h 73.73 v 78.164 c 0,2.363 0.703,4.258 2.071,5.742 1.367,1.504 3.222,2.246 5.566,2.246 h 21.973 c 2.343,0 4.238,-0.742 5.722,-2.246 1.485,-1.484 2.246,-3.379 2.246,-5.742 V 625.07 c 0,-2.343 -0.761,-4.257 -2.246,-5.761"
         style="fill:#ea1f26;fill-opacity:1;fill-rule:nonzero;stroke:none"
         id="path158" /><path
         d="m 1042.01,679.309 c 0,12.343 -4.22,22.089 -12.62,29.199 -8.44,7.148 -19.38,10.703 -32.812,10.703 h -34.863 v -83.34 h 34.863 c 6.172,0 12.052,1.055 17.592,3.203 5.55,2.129 10.4,5.098 14.56,8.926 4.16,3.828 7.4,8.398 9.74,13.711 2.36,5.332 3.54,11.191 3.54,17.598 z m -5.16,96.523 c 0,10.84 -3.73,19.473 -11.19,25.84 -7.48,6.387 -17.17,9.57 -29.121,9.57 h -34.824 v -73.711 h 33.887 c 5.308,0 10.428,0.938 15.348,2.871 4.88,1.914 9.26,4.571 13.09,7.989 3.85,3.379 6.93,7.441 9.29,12.109 2.33,4.668 3.52,9.785 3.52,15.332 z m 29.36,-97.441 c 0,-9.571 -1.94,-18.184 -5.77,-25.86 -3.82,-7.656 -9.1,-14.101 -15.82,-19.336 -6.7,-5.175 -14.51,-9.179 -23.45,-11.972 -8.93,-2.754 -18.42,-4.121 -28.4,-4.121 h -48.868 c -1.504,0 -2.773,0.527 -3.828,1.562 -1.074,1.074 -1.621,2.363 -1.621,3.848 v 202.402 c 0,1.484 0.547,2.715 1.621,3.691 1.055,0.958 2.324,1.426 3.828,1.426 h 52.715 c 8.323,0 16.363,-1.074 24.143,-3.183 7.77,-2.129 14.59,-5.391 20.45,-9.746 5.87,-4.356 10.52,-9.903 14.06,-16.602 3.53,-6.68 5.27,-14.609 5.27,-23.77 0,-5.742 -1.29,-11.23 -3.85,-16.445 -2.55,-5.195 -5.76,-9.883 -9.59,-14.023 -3.84,-4.16 -8.06,-7.676 -12.65,-10.528 -4.59,-2.89 -9.03,-4.961 -13.28,-6.23 5.93,-1.074 11.66,-3.047 17.07,-5.918 5.43,-2.891 10.21,-6.543 14.37,-11.016 4.14,-4.472 7.44,-9.629 9.89,-15.488 2.46,-5.84 3.71,-12.09 3.71,-18.691"
         style="fill:#546371;fill-opacity:1;fill-rule:nonzero;stroke:none"
         id="path160" /><path
         d="m 1255.29,622.512 c -0.43,-1.465 -1.17,-2.774 -2.25,-3.848 -1.07,-1.035 -2.32,-1.562 -3.83,-1.562 h -15.97 c -1.47,0 -2.83,0.527 -3.99,1.562 -1.17,1.074 -1.97,2.383 -2.4,3.848 l -35.29,178.476 -34.69,-178.476 c -0.43,-1.465 -1.23,-2.774 -2.38,-3.848 -1.17,-1.035 -2.52,-1.562 -4.01,-1.562 h -15.97 c -1.47,0 -2.82,0.527 -3.99,1.562 -1.17,1.074 -1.97,2.383 -2.4,3.848 l -40.98,202.422 c -0.43,1.484 -0.15,2.714 0.78,3.671 0.98,0.958 2.21,1.426 3.7,1.426 h 13.41 c 3.4,0 5.53,-1.699 6.39,-5.097 l 32.03,-178.789 34.69,178.789 c 0.84,3.398 2.97,5.097 6.37,5.097 h 15.97 c 3.23,0 5.22,-1.699 6.08,-5.097 l 34.98,-178.789 31.74,178.789 c 0.84,3.398 2.87,5.097 6.07,5.097 h 12.77 c 1.47,0 2.64,-0.468 3.52,-1.426 0.84,-0.957 1.07,-2.187 0.62,-3.671 l -40.97,-202.422"
         style="fill:#546371;fill-opacity:1;fill-rule:nonzero;stroke:none"
         id="path162" /></g></g></svg>
