<svg xmlns="http://www.w3.org/2000/svg" viewBox="0 0 431.79 277.36"><defs><style>.cls-1{fill:#ffec00;}.cls-2{fill:#202124;}.cls-3{fill:#060001;}.cls-4{fill:none;}.cls-5{fill:#c72c28;}.cls-6{fill:#7d8589;}.cls-7{fill:#871915;}.cls-8{fill:#c73534;}.cls-9{fill:#54626f;}.cls-10{fill:#717f8b;}.cls-11{fill:#81191d;}</style></defs><g id="Ebene_2" data-name="Ebene 2"><g id="Ebene_1-2" data-name="Ebene 1"><ellipse class="cls-1" cx="215.89" cy="138.68" rx="215.89" ry="138.68"/><path class="cls-2" d="M160.69,44.34c-2.84.35-3.74.9-3.88,3-.11,1.67-.23,3.36-.23,7.44V73.05H154.3L135,49.77V60.51c0,4,.11,5.92.23,7.25.15,2.13,1.18,3,4.54,3.27v1.55H128.49V71c2.69-.23,3.82-.92,4.07-3.1a70.48,70.48,0,0,0,.26-7.44V49.34a5,5,0,0,0-.95-3.47c-.84-1.15-1.89-1.33-3.93-1.53V42.79h8.22l18.15,21.27v-9.3c0-4.08-.06-5.76-.2-7.34-.14-2-1-2.85-4.74-3.08V42.79h11.32Z"/><path class="cls-2" d="M179.72,68.3c-2.85,4-6.35,4.83-8.12,4.83-5.95,0-9.4-4.55-9.4-9.94A11.93,11.93,0,0,1,165.48,55a9.92,9.92,0,0,1,7-3.26,7.39,7.39,0,0,1,7.37,7.34c0,.83-.1,1.48-.71,1.63-.89.22-7.14.57-11.94.75.07,5.31,3.14,7.8,6.43,7.8a7.81,7.81,0,0,0,5.25-2.16Zm-8.18-14.71c-1.93,0-3.67,2.09-4.07,5.74,2.12,0,4.15-.06,6.35-.13.7,0,1-.17,1-.92C174.84,55.94,173.6,53.59,171.54,53.59Z"/><path class="cls-2" d="M192.28,72.6a4.87,4.87,0,0,1-1.88.53c-3.32,0-5.24-1.7-5.24-5.69v-13h-3l-.24-.55,1.3-1.6h1.95V48.49c1.32-1,3.25-2.41,4.6-3.44l.62.27c-.06,1.48-.13,4-.1,7h4.8a1.77,1.77,0,0,1-.33,2.15h-4.47v11.4c0,3.63,1.46,4.14,2.45,4.14a6,6,0,0,0,2.4-.56l.45,1.49Z"/><path class="cls-2" d="M206.63,72.6a4.87,4.87,0,0,1-1.88.53c-3.32,0-5.24-1.7-5.24-5.69v-13h-3l-.24-.55,1.29-1.6h2V48.49c1.32-1,3.25-2.41,4.6-3.44l.62.27c-.06,1.48-.13,4-.1,7h4.8a1.77,1.77,0,0,1-.33,2.15h-4.47v11.4c0,3.63,1.46,4.14,2.45,4.14a6,6,0,0,0,2.4-.56l.45,1.49Z"/><path class="cls-2" d="M234.81,72.58V71.12c2.24-.31,2.46-.59,2.46-3.26V60c0-3.62-1.47-5.07-3.7-5.06a5.37,5.37,0,0,0-3.88,1.7V67.86c0,2.65.28,3,2.61,3.26v1.46H221.71V71.12c2.39-.26,2.87-.43,2.87-3.38V46.21c0-2.22-.23-2.76-3-3.12V41.72a39.67,39.67,0,0,0,8.08-1.56V54.87c1.62-1.59,4-3.11,6.35-3.11,3.91,0,6.37,2.52,6.37,7.72v8.27c0,2.94.34,3,2.7,3.37v1.46Z"/><path class="cls-2" d="M247.51,72.58V71.12c2.62-.31,2.91-.5,2.91-3.71V58.29c0-3-.19-3.17-2.56-3.51V53.41a42.5,42.5,0,0,0,7.67-1.71V67.41c0,3.12.24,3.4,3,3.71v1.46Zm5.16-24.27a3.06,3.06,0,0,1-3-3,3,3,0,0,1,3-3,2.94,2.94,0,0,1,3,3A3,3,0,0,1,252.67,48.31Z"/><path class="cls-2" d="M278.51,68.3c-2.85,4-6.35,4.83-8.12,4.83-5.95,0-9.4-4.55-9.4-9.94A11.93,11.93,0,0,1,264.27,55a9.92,9.92,0,0,1,7-3.26,7.39,7.39,0,0,1,7.37,7.34c0,.83-.1,1.48-.71,1.63-.89.22-7.14.57-11.94.75.07,5.31,3.14,7.8,6.43,7.8a7.81,7.81,0,0,0,5.25-2.16Zm-8.18-14.71c-1.93,0-3.67,2.09-4.07,5.74,2.12,0,4.15-.06,6.35-.13.7,0,1-.17,1-.92C273.63,55.94,272.39,53.59,270.33,53.59Z"/><path class="cls-2" d="M293,72.58H281.42V71.12c2.59-.28,2.83-.5,2.83-3.34V57.92c0-2.55-.18-2.74-2.51-3.15V53.44a36.46,36.46,0,0,0,7.62-1.79v5c1.91-2.89,3.65-4.87,5.68-4.87a2.63,2.63,0,0,1,2.86,2.56,4,4,0,0,1-2.06,3.41,1.12,1.12,0,0,1-1.34-.18c-.75-.66-1.33-1.29-2.12-1.29s-2.13.88-3,2.83v8.68c0,2.85.29,3,3.61,3.35Z"/><path class="cls-2" d="M300.83,73.16a3.52,3.52,0,0,1,0-7,3.52,3.52,0,0,1,0,7Z"/><path class="cls-2" d="M47.68,108.23v-.6c1.3-.17,1.43-.37,1.15-1.15s-.64-1.75-1-2.93H43.52c-.31.85-.61,1.64-.87,2.43-.44,1.3-.13,1.46,1.51,1.65v.6H39.45v-.6c1.27-.16,1.6-.31,2.3-2.1L45.92,95l.7-.13c1.27,3.46,2.66,7.22,3.94,10.69.66,1.77.84,1.93,2.25,2.09v.6Zm-2-10.54c-.64,1.68-1.3,3.43-1.89,5h3.67Z"/><path class="cls-2" d="M57.44,99.36a2.66,2.66,0,0,1,1-.24,4.13,4.13,0,0,1,4,4.27,5.15,5.15,0,0,1-5,5.08,7.75,7.75,0,0,1-3.19-.73c0-.51,0-1.06,0-1.6V96.5c0-1.23-.08-1.36-1.34-1.45v-.56A17.76,17.76,0,0,0,56,93.81V100ZM56,105.91a1.89,1.89,0,0,0,.1.7,2.19,2.19,0,0,0,1.9,1.06c1.61,0,2.46-1.43,2.46-3.75s-1.37-3.63-3-3.63a3.69,3.69,0,0,0-1.5.34Z"/><path class="cls-2" d="M71.4,106.47a4.62,4.62,0,0,1-3.41,2,4,4,0,0,1-4-4.34,5.22,5.22,0,0,1,1.35-3.55,4.2,4.2,0,0,1,3-1.46,3.17,3.17,0,0,1,3.12,3.15c0,.4-.07.61-.38.68s-3,.26-5.34.34c0,2.6,1.53,3.7,3,3.7a3.42,3.42,0,0,0,2.33-1ZM67.9,99.9c-.91,0-1.78.88-2,2.51,1.08,0,2.14,0,3.27-.07.34,0,.46-.09.46-.4A1.85,1.85,0,0,0,67.9,99.9Z"/><path class="cls-2" d="M77.44,108.23H72.69v-.59c1.23-.12,1.35-.22,1.35-1.51V101.9c0-1.27-.08-1.34-1.21-1.49v-.53a12.81,12.81,0,0,0,3-.81v2.21c.74-1.11,1.57-2.16,2.54-2.16a1.07,1.07,0,0,1,1.19,1,1.47,1.47,0,0,1-.74,1.22.43.43,0,0,1-.55,0,1.31,1.31,0,0,0-.91-.52c-.4,0-1.1.56-1.53,1.54v3.79c0,1.31.11,1.4,1.63,1.53Z"/><path class="cls-2" d="M94.86,108.23c-1.18,0-2.4,0-2.88,0-.11-.14-3.15-3.89-3.26-4-.26-.31-.38-.41-.55-.41a.78.78,0,0,0-.33,0v2.22c0,1.34.1,1.41,1.37,1.54v.59H84.67v-.59c1.3-.13,1.4-.25,1.4-1.54V96.55c0-1.27-.14-1.32-1.35-1.51v-.55a13.45,13.45,0,0,0,3.12-.68v9.53a2.46,2.46,0,0,0,1.26-.72,16.13,16.13,0,0,0,1.54-1.86c.39-.56.2-.72-.73-.81v-.58l4.18-.18v.56A3.7,3.7,0,0,0,91.42,101c-.37.39-1.19,1.33-1.64,1.88.42.6,2.45,3,3.09,3.68.91.93,1.19,1,2,1.06Z"/><path class="cls-2" d="M102.51,106.47a4.6,4.6,0,0,1-3.41,2,4,4,0,0,1-4-4.34,5.21,5.21,0,0,1,1.34-3.55,4.2,4.2,0,0,1,3-1.46,3.17,3.17,0,0,1,3.12,3.15c0,.4-.07.61-.37.68s-3,.26-5.35.34c0,2.6,1.54,3.7,3,3.7a3.42,3.42,0,0,0,2.33-1ZM99,99.9c-.91,0-1.77.88-2,2.51,1.08,0,2.14,0,3.27-.07.35,0,.47-.09.47-.4A1.85,1.85,0,0,0,99,99.9Z"/><path class="cls-2" d="M109.58,108.23v-.59c1.11-.12,1.22-.25,1.22-1.62v-3.35c0-1.41-.54-2.27-1.76-2.27a3.3,3.3,0,0,0-2.1,1v4.74c0,1.36.11,1.41,1.24,1.53v.59h-4.41v-.59c1.28-.15,1.4-.22,1.4-1.54v-4.16c0-1.29-.15-1.35-1.2-1.53v-.55a13.07,13.07,0,0,0,3-.8c0,.43,0,1.09,0,1.57l1.35-.92a3.08,3.08,0,0,1,1.66-.59c1.61,0,2.62,1.19,2.62,3.16v3.83c0,1.35.12,1.41,1.26,1.53v.59Z"/><path class="cls-2" d="M120.78,108.23v-.59c1.11-.12,1.22-.25,1.22-1.62v-3.35c0-1.41-.54-2.27-1.76-2.27a3.3,3.3,0,0,0-2.1,1v4.74c0,1.36.11,1.41,1.23,1.53v.59H115v-.59c1.28-.15,1.4-.22,1.4-1.54v-4.16c0-1.29-.14-1.35-1.19-1.53v-.55a12.85,12.85,0,0,0,3-.8v1.57l1.35-.92a3,3,0,0,1,1.65-.59c1.62,0,2.63,1.19,2.63,3.16v3.83c0,1.35.12,1.41,1.25,1.53v.59Z"/><path class="cls-2" d="M133.64,106.47a4.59,4.59,0,0,1-3.4,2,4,4,0,0,1-4-4.34,5.22,5.22,0,0,1,1.35-3.55,4.17,4.17,0,0,1,3-1.46,3.18,3.18,0,0,1,3.13,3.15c0,.4-.07.61-.38.68s-3,.26-5.34.34c0,2.6,1.53,3.7,3,3.7a3.42,3.42,0,0,0,2.33-1Zm-3.5-6.57c-.9,0-1.77.88-2,2.51,1.07,0,2.13,0,3.26-.07.35,0,.47-.09.47-.4A1.85,1.85,0,0,0,130.14,99.9Z"/><path class="cls-2" d="M140.71,108.23v-.59c1.11-.12,1.22-.25,1.22-1.62v-3.35c0-1.41-.54-2.27-1.75-2.27a3.33,3.33,0,0,0-2.11,1v4.74c0,1.36.12,1.41,1.24,1.53v.59H134.9v-.59c1.28-.15,1.4-.22,1.4-1.54v-4.16c0-1.29-.14-1.35-1.2-1.53v-.55a13.07,13.07,0,0,0,3-.8c0,.43,0,1.09,0,1.57.41-.28.84-.58,1.36-.92a3,3,0,0,1,1.65-.59c1.62,0,2.63,1.19,2.63,3.16v3.83c0,1.35.12,1.41,1.25,1.53v.59Z"/><path class="cls-2" d="M158.1,98.24c-.35-1.32-.91-2.66-2.8-2.66a2,2,0,0,0-2.08,2.15c0,1.34.86,2,2.55,2.91,2.37,1.22,3.47,2.17,3.47,4.09,0,2.16-1.85,3.8-4.5,3.8a8.8,8.8,0,0,1-3.14-.66c-.15-.55-.41-2.05-.55-3.11l.65-.16c.4,1.33,1.33,3.16,3.41,3.16a2.14,2.14,0,0,0,2.27-2.26c0-1.49-.81-2.12-2.57-3.08-2.11-1.14-3.33-2.12-3.33-4s1.52-3.54,4.24-3.54a13,13,0,0,1,2.7.38c.08.73.17,1.58.33,2.88Z"/><path class="cls-2" d="M160.77,108.23v-.59c1.23-.12,1.37-.22,1.37-1.6v-4.11c0-1.27-.07-1.35-1.23-1.54v-.51a15.28,15.28,0,0,0,3-.79v7c0,1.37.13,1.48,1.42,1.6v.59Zm2.14-11a1.17,1.17,0,0,1-1.14-1.14A1.15,1.15,0,0,1,162.93,95a1.11,1.11,0,0,1,1.1,1.16A1.14,1.14,0,0,1,162.91,97.25Z"/><path class="cls-2" d="M173.78,106.47a4.62,4.62,0,0,1-3.41,2,4,4,0,0,1-4-4.34,5.21,5.21,0,0,1,1.34-3.55,4.2,4.2,0,0,1,3-1.46,3.17,3.17,0,0,1,3.12,3.15c0,.4-.07.61-.38.68s-3,.26-5.34.34c0,2.6,1.54,3.7,3,3.7a3.42,3.42,0,0,0,2.33-1Zm-3.5-6.57c-.91,0-1.77.88-2,2.51,1.08,0,2.14,0,3.27-.07.35,0,.47-.09.47-.4A1.85,1.85,0,0,0,170.28,99.9Z"/><path class="cls-2" d="M185,101.8c-.39-1.21-.94-2-2.12-2a1.2,1.2,0,0,0-1.22,1.27c0,.84.57,1.24,1.68,1.75,1.72.81,2.63,1.43,2.63,2.8,0,1.88-1.73,2.84-3.35,2.84a5.56,5.56,0,0,1-2.43-.57c-.1-.57-.28-1.72-.35-2.4l.59-.1c.38,1.28,1.1,2.36,2.5,2.36a1.29,1.29,0,0,0,1.36-1.31c0-.86-.5-1.32-1.6-1.86-1.4-.68-2.57-1.33-2.57-2.82s1.26-2.65,3.2-2.65a10.66,10.66,0,0,1,2,.27c.06.5.21,1.77.31,2.26Z"/><path class="cls-2" d="M195.06,106.39a4.77,4.77,0,0,1-3.45,2.08,4.1,4.1,0,0,1-4.13-4.25,4.79,4.79,0,0,1,2-3.93,5.45,5.45,0,0,1,3.14-1.17,2.94,2.94,0,0,1,1.85.54.65.65,0,0,1,.34.61,1.08,1.08,0,0,1-.76,1c-.11,0-.2,0-.39-.21a3.1,3.1,0,0,0-2-.88c-1.23,0-2.36,1.06-2.36,3.17,0,2.78,1.9,3.69,3,3.69a3.17,3.17,0,0,0,2.4-1.06Z"/><path class="cls-2" d="M201.57,108.23v-.59c1.12-.12,1.26-.23,1.26-1.52v-3.34c0-1.65-.65-2.44-1.89-2.43a2.73,2.73,0,0,0-2,1v4.8c0,1.27.15,1.4,1.31,1.52v.59h-4.47v-.59c1.14-.1,1.39-.2,1.39-1.53V96.47c0-1-.07-1.3-1.38-1.43v-.55a13.6,13.6,0,0,0,3.15-.68v6.76a4.48,4.48,0,0,1,2.88-1.45c1.67,0,2.8,1,2.8,3.43v3.57c0,1.32.16,1.41,1.29,1.52v.59Z"/><path class="cls-2" d="M211.61,99.12a4.36,4.36,0,0,1,4.44,4.52,4.53,4.53,0,0,1-4.45,4.83,4.46,4.46,0,0,1-4.53-4.52A4.64,4.64,0,0,1,211.61,99.12Zm-.24.71c-1.16,0-2.22,1.14-2.22,3.5,0,2.55,1.07,4.41,2.65,4.41,1.17,0,2.17-.84,2.17-3.63C214,101.68,213.05,99.83,211.37,99.83Z"/><path class="cls-2" d="M223.12,108.23v-.59c1.11-.12,1.22-.25,1.22-1.62v-3.35c0-1.41-.54-2.27-1.76-2.27a3.3,3.3,0,0,0-2.1,1v4.74c0,1.36.11,1.41,1.23,1.53v.59h-4.4v-.59c1.27-.15,1.39-.22,1.39-1.54v-4.16c0-1.29-.14-1.35-1.19-1.53v-.55a13.07,13.07,0,0,0,3-.8c0,.43,0,1.09,0,1.57l1.35-.92a3.05,3.05,0,0,1,1.66-.59c1.61,0,2.62,1.19,2.62,3.16v3.83c0,1.35.12,1.41,1.26,1.53v.59Z"/><path class="cls-2" d="M243.09,107.72a23.51,23.51,0,0,0-3.27.75v-1.28l-1.24.73a3.3,3.3,0,0,1-1.49.55,4.22,4.22,0,0,1-3.82-4.44,5.12,5.12,0,0,1,5.29-4.91,4,4,0,0,1,1.26.2V96.47c0-1.25-.13-1.3-1.53-1.43v-.55a20.69,20.69,0,0,0,3.31-.68v12c0,1.06.14,1.19.89,1.24l.6,0ZM239.82,101a2.35,2.35,0,0,0-2-1c-.91,0-2.55.61-2.55,3.51,0,2.47,1.5,3.7,2.72,3.72a3.27,3.27,0,0,0,1.83-.65Z"/><path class="cls-2" d="M244,108.23v-.59c1.23-.12,1.37-.22,1.37-1.6v-4.11c0-1.27-.07-1.35-1.23-1.54v-.51a15.28,15.28,0,0,0,3-.79v7c0,1.37.13,1.48,1.42,1.6v.59Zm2.14-11A1.17,1.17,0,0,1,245,96.11,1.15,1.15,0,0,1,246.18,95a1.11,1.11,0,0,1,1.1,1.16A1.14,1.14,0,0,1,246.16,97.25Z"/><path class="cls-2" d="M257,106.47a4.6,4.6,0,0,1-3.41,2,4,4,0,0,1-4-4.34,5.21,5.21,0,0,1,1.34-3.55,4.2,4.2,0,0,1,3-1.46,3.17,3.17,0,0,1,3.12,3.15c0,.4-.07.61-.37.68s-3,.26-5.34.34c0,2.6,1.53,3.7,3,3.7a3.42,3.42,0,0,0,2.33-1Zm-3.5-6.57c-.91,0-1.77.88-2,2.51,1.07,0,2.13,0,3.26-.07.35,0,.47-.09.47-.4A1.85,1.85,0,0,0,253.53,99.9Z"/><path class="cls-2" d="M270.27,98.24c-.35-1.32-.91-2.66-2.8-2.66a2,2,0,0,0-2.08,2.15c0,1.34.86,2,2.55,2.91,2.37,1.22,3.47,2.17,3.47,4.09,0,2.16-1.85,3.8-4.5,3.8a8.8,8.8,0,0,1-3.14-.66c-.15-.55-.41-2.05-.55-3.11l.65-.16c.4,1.33,1.33,3.16,3.4,3.16a2.15,2.15,0,0,0,2.28-2.26c0-1.49-.81-2.12-2.57-3.08-2.11-1.14-3.33-2.12-3.33-4s1.52-3.54,4.24-3.54a13,13,0,0,1,2.7.38c.08.73.17,1.58.33,2.88Z"/><path class="cls-2" d="M276.7,108.21a2,2,0,0,1-.85.26c-1.34,0-2.07-.78-2.07-2.43v-5.82h-1.37l-.09-.24.55-.61h.91V97.68c.44-.42,1.1-1,1.54-1.38l.29.06c0,.79-.06,1.94-.05,3h2.24a.66.66,0,0,1-.13.85h-2.11v5.12c0,1.62.64,1.9,1.14,1.9a2.84,2.84,0,0,0,1.18-.3l.19.56Z"/><path class="cls-2" d="M288.46,107.76a26.08,26.08,0,0,0-3.22.71V107a4.84,4.84,0,0,1-3,1.52c-1.41,0-2.54-.88-2.54-3v-4c0-1.06-.16-1.18-.67-1.29l-.53-.1v-.55a29.63,29.63,0,0,0,3-.36c-.06.69-.06,1.67-.06,3V105c0,1.69.88,2.18,1.75,2.18a2.93,2.93,0,0,0,2-.9v-4.72c0-1.06-.21-1.2-.87-1.3l-.64-.09v-.55a28.07,28.07,0,0,0,3.29-.36v6.72c0,1,.16,1.17.9,1.21l.54,0Z"/><path class="cls-2" d="M300.9,95.73c-1.35.17-1.7.36-2.43,2.19-.56,1.37-3.21,7.8-4.29,10.53h-.75c-1.07-2.94-3-8-4.06-10.88-.57-1.5-.9-1.72-2.14-1.84v-.6h5.3v.6c-1.48.17-1.55.39-1.26,1.16.53,1.51,2,5.54,3.17,8.6,1.09-2.65,2.38-5.83,3.24-8.15.45-1.21.23-1.41-1.43-1.61v-.6h4.66Z"/><path class="cls-2" d="M316.82,108.23v-.6c1.63-.16,1.69-.29,1.68-2.38V97.1c-1.61,3.64-4.08,9.06-4.92,11.13H313c-.8-2.1-2.92-7.31-4.44-10.94-.32,6.92-.34,8.45-.34,8.89,0,1.13.51,1.31,1.9,1.45v.6h-4.81v-.6c1.16-.12,1.65-.36,1.81-1.47.12-.83.15-1.63.66-8.86.08-1-.11-1.41-1.88-1.57v-.6h3.66l4.35,10,4.62-10h3.65v.6c-1.71.19-1.92.37-1.88,1.82l.09,7.7c.07,2.09.14,2.19,1.88,2.38v.6Z"/><path class="cls-2" d="M327.77,99.12a4.36,4.36,0,0,1,4.44,4.52,4.54,4.54,0,0,1-4.45,4.83,4.46,4.46,0,0,1-4.53-4.52A4.64,4.64,0,0,1,327.77,99.12Zm-.24.71c-1.16,0-2.22,1.14-2.22,3.5,0,2.55,1.07,4.41,2.65,4.41,1.16,0,2.17-.84,2.17-3.63C330.13,101.68,329.21,99.83,327.53,99.83Z"/><path class="cls-2" d="M339,101.8c-.4-1.21-.95-2-2.13-2a1.19,1.19,0,0,0-1.21,1.27c0,.84.57,1.24,1.68,1.75,1.71.81,2.62,1.43,2.62,2.8,0,1.88-1.73,2.84-3.35,2.84a5.55,5.55,0,0,1-2.42-.57c-.1-.57-.28-1.72-.36-2.4l.6-.1c.37,1.28,1.1,2.36,2.49,2.36a1.28,1.28,0,0,0,1.36-1.31c0-.86-.5-1.32-1.6-1.86-1.39-.68-2.56-1.33-2.56-2.82s1.25-2.65,3.19-2.65a10.79,10.79,0,0,1,2,.27c.06.5.21,1.77.3,2.26Z"/><path class="cls-2" d="M345.17,99.36a2.71,2.71,0,0,1,1-.24,4.13,4.13,0,0,1,4,4.27,5.15,5.15,0,0,1-5,5.08,7.67,7.67,0,0,1-3.18-.73V96.5c0-1.23-.07-1.36-1.33-1.45v-.56a17.84,17.84,0,0,0,3.1-.68V100Zm-1.47,6.55a1.68,1.68,0,0,0,.11.7,2.18,2.18,0,0,0,1.89,1.06c1.61,0,2.46-1.43,2.46-3.75s-1.37-3.63-3-3.63a3.7,3.7,0,0,0-1.51.34Z"/><path class="cls-2" d="M358,108.47a1.57,1.57,0,0,1-1-.39,1.93,1.93,0,0,1-.49-.88,6.37,6.37,0,0,1-2.37,1.27,2.5,2.5,0,0,1-2.5-2.5,2,2,0,0,1,1.63-2,15.49,15.49,0,0,0,3.19-1.31v-.49c0-1.36-.66-2.14-1.67-2.14a1.15,1.15,0,0,0-.93.45,4.39,4.39,0,0,0-.53,1.31.6.6,0,0,1-.63.5,1,1,0,0,1-.95-.91c0-.3.26-.54.68-.83a8.78,8.78,0,0,1,3-1.42,2.93,2.93,0,0,1,1.76.56,2.77,2.77,0,0,1,1,2.36v3.81c0,.94.34,1.21.69,1.21a1.54,1.54,0,0,0,.71-.21l.2.59Zm-1.54-5.09c-.43.21-1.28.6-1.74.8-.74.34-1.18.72-1.18,1.45a1.45,1.45,0,0,0,1.41,1.55,2.39,2.39,0,0,0,1.51-.65Z"/><path class="cls-2" d="M368.19,106.39a4.77,4.77,0,0,1-3.45,2.08,4.1,4.1,0,0,1-4.13-4.25,4.79,4.79,0,0,1,2-3.93,5.45,5.45,0,0,1,3.14-1.17,2.94,2.94,0,0,1,1.85.54.67.67,0,0,1,.34.61,1.08,1.08,0,0,1-.76,1c-.11,0-.2,0-.4-.21a3.06,3.06,0,0,0-2-.88c-1.23,0-2.36,1.06-2.36,3.17,0,2.78,1.9,3.69,3,3.69a3.17,3.17,0,0,0,2.4-1.06Z"/><path class="cls-2" d="M374.7,108.23v-.59c1.11-.12,1.26-.23,1.26-1.52v-3.34c0-1.65-.65-2.44-1.9-2.43a2.71,2.71,0,0,0-2,1v4.8c0,1.27.15,1.4,1.31,1.52v.59h-4.47v-.59c1.14-.1,1.39-.2,1.39-1.53V96.47c0-1-.08-1.3-1.38-1.43v-.55a13.72,13.72,0,0,0,3.15-.68v6.76a4.48,4.48,0,0,1,2.88-1.45c1.67,0,2.8,1,2.8,3.43v3.57c0,1.32.16,1.41,1.29,1.52v.59Z"/><path class="cls-2" d="M389,104.29c-.81-.29-2.1-1.23-2.1-2.37,0-.77.45-1.4,1.79-2.44,1.18-.9,1.72-1.47,1.72-2.16a1.21,1.21,0,0,0-1.3-1.25c-1.36,0-2.18,1.33-2.48,1.33a1.16,1.16,0,0,1-.91-1,1,1,0,0,1,.4-.77,3.62,3.62,0,0,1,2.22-.75,3.31,3.31,0,0,1,3.28,3.21,3,3,0,0,1-1.43,2.51c-1.09.87-1.57,1.24-1.57,1.88s.26.85.78,1.35Zm-.5,4.21a1.36,1.36,0,0,1,0-2.72,1.32,1.32,0,0,1,1.32,1.36A1.3,1.3,0,0,1,388.5,108.5Z"/><g id="Layer_1" data-name="Layer 1"><path class="cls-3" d="M280.07,132.8c.79-1.46-2.05-3.56-2.83-2.11s2.06,3.55,2.83,2.11"/><path class="cls-3" d="M289.44,132.8c.78-1.46-2.06-3.56-2.84-2.11s2.06,3.55,2.84,2.11"/><path class="cls-3" d="M295,130.18h.83v3.12H295s-2.05.07-2.29-.42C292.38,132.13,294.13,130.18,295,130.18Z"/><rect class="cls-3" x="295.82" y="130.18" width="3.12" height="3.12"/><path class="cls-3" d="M302.06,131.26a1.07,1.07,0,0,0-1.07-1.08h-2.05v3.12h3.12Z"/><path class="cls-3" d="M313.72,130.18h.83v3.12h-.78s-2,.07-2.29-.42C311.1,132.13,312.85,130.18,313.72,130.18Z"/><rect class="cls-3" x="314.55" y="130.18" width="3.12" height="3.12"/><rect class="cls-3" x="317.67" y="130.18" width="3.12" height="3.12"/><path class="cls-3" d="M321.62,133.3h-.83v-3.11h.78s2-.07,2.26.42C324.2,131.36,322.48,133.3,321.62,133.3Z"/><path class="cls-3" d="M330.15,132.47v.83H327v-.78s-.06-2.05.43-2.29C328.21,129.86,330.15,131.61,330.15,132.47Z"/><path class="cls-3" d="M286.31,135.92c.79-1.46-2.05-3.56-2.83-2.11s2.06,3.55,2.83,2.11"/><path class="cls-3" d="M292.7,135.59v.83h-3.12v-.78s-.06-2,.42-2.28C290.76,133,292.7,134.73,292.7,135.59Z"/><rect class="cls-3" x="295.82" y="133.3" width="3.12" height="3.12"/><rect class="cls-3" x="298.94" y="133.3" width="3.12" height="3.12"/><path class="cls-3" d="M305.19,134.38a1.08,1.08,0,0,0-1.08-1.08h-2.05v3.12h3.13Z"/><rect class="cls-3" x="327.03" y="133.3" width="3.12" height="3.12"/><path class="cls-3" d="M280.07,139c.79-1.46-2.05-3.56-2.83-2.11s2.06,3.55,2.83,2.11"/><rect class="cls-3" x="289.58" y="136.42" width="3.12" height="3.12"/><rect class="cls-3" x="292.7" y="136.42" width="3.12" height="3.12"/><rect class="cls-3" x="295.82" y="136.42" width="3.12" height="3.12"/><rect class="cls-3" x="298.94" y="136.42" width="3.12" height="3.12"/><rect class="cls-3" x="302.06" y="136.42" width="3.12" height="3.12"/><path class="cls-3" d="M306,139.54h-.82v-3.11H306s2-.07,2.25.42C308.6,137.6,306.88,139.54,306,139.54Z"/><path class="cls-3" d="M320.79,138.72v.82h-3.12v-.78s-.06-2,.42-2.28C318.85,136.1,320.79,137.85,320.79,138.72Z"/><path class="cls-3" d="M327,137.5v-1.08h-2a1.08,1.08,0,0,0-1.08,1.08v2H327Z"/><rect class="cls-3" x="327.03" y="136.42" width="3.12" height="3.12"/><path class="cls-3" d="M286.46,141.84v.83h-3.12v-.79s-.06-2,.42-2.28C284.52,139.22,286.46,141,286.46,141.84Z"/><path class="cls-3" d="M289.58,140.34v-.83h3.12v.79s.06,2-.42,2.28C291.53,143,289.58,141.21,289.58,140.34Z"/><rect class="cls-3" x="302.06" y="139.54" width="3.12" height="3.12"/><path class="cls-3" d="M310.6,139.54h.83v3.12h-.79s-2,.07-2.28-.42C308,141.49,309.73,139.54,310.6,139.54Z"/><rect class="cls-3" x="311.43" y="139.54" width="3.12" height="3.12"/><rect class="cls-3" x="314.55" y="139.54" width="3.12" height="3.12"/><rect class="cls-3" x="317.67" y="139.54" width="3.12" height="3.12"/><path class="cls-3" d="M327,139.54h-3.12v2.05a1.08,1.08,0,0,0,1.08,1.08h2Z"/><path class="cls-3" d="M330.15,139.54H327v3.13h2.05a1.08,1.08,0,0,0,1.07-1.08Z"/><path class="cls-3" d="M279.39,142.67h.83v3.11h-.78s-2.05.07-2.29-.42C276.77,144.61,278.52,142.67,279.39,142.67Z"/><rect class="cls-3" x="280.22" y="142.67" width="3.12" height="3.12"/><rect class="cls-3" x="283.34" y="142.67" width="3.12" height="3.12"/><path class="cls-3" d="M302.06,143.46v-.83h3.12v.79s.07,2-.42,2.28C304,146.08,302.06,144.33,302.06,143.46Z"/><path class="cls-3" d="M320.79,142.67h-3.12v2a1.07,1.07,0,0,0,1.07,1.08h2.05Z"/><path class="cls-3" d="M323.91,143.74a1.07,1.07,0,0,0-1.07-1.07h-2v3.12h3.12Z"/><path class="cls-3" d="M283.34,145.79h-3.12v2a1.07,1.07,0,0,0,1.07,1.08h2Z"/><rect class="cls-3" x="283.34" y="145.79" width="3.12" height="3.12"/><path class="cls-3" d="M287.29,148.91h-.83v-3.12h.78s2-.07,2.26.42C289.87,147,288.15,148.91,287.29,148.91Z"/><path class="cls-3" d="M295.68,148.41c.78-1.46-2.06-3.57-2.83-2.12s2.06,3.56,2.83,2.12"/><path class="cls-3" d="M308.16,148.41c.78-1.46-2.05-3.57-2.83-2.12s2.06,3.56,2.83,2.12"/><rect class="cls-3" x="320.79" y="145.79" width="3.12" height="3.12"/><rect class="cls-3" x="323.91" y="145.79" width="3.12" height="3.12"/><path class="cls-3" d="M330.15,146.86a1.07,1.07,0,0,0-1.07-1.07H327v3.12h3.12Z"/><path class="cls-3" d="M280.22,151.2V152H277.1v-.78s-.06-2.05.42-2.29C278.27,148.58,280.22,150.34,280.22,151.2Z"/><rect class="cls-3" x="283.34" y="148.91" width="3.12" height="3.12"/><path class="cls-3" d="M292.56,151.53c.78-1.46-2.06-3.56-2.83-2.12s2.06,3.56,2.83,2.12"/><path class="cls-3" d="M298.94,151.2V152h-3.11v-.78s-.07-2.05.42-2.29C297,148.58,298.94,150.34,298.94,151.2Z"/><path class="cls-3" d="M305,151.53c.78-1.46-2.06-3.56-2.83-2.12s2.06,3.56,2.83,2.12"/><path class="cls-3" d="M311.28,151.53c.78-1.46-2-3.56-2.83-2.12s2.06,3.56,2.83,2.12"/><path class="cls-3" d="M317.67,151.2V152h-3.12v-.78s-.06-2.05.42-2.29C315.72,148.58,317.67,150.34,317.67,151.2Z"/><rect class="cls-3" x="320.79" y="148.91" width="3.12" height="3.12"/><path class="cls-3" d="M327,149.71v-.83h3.12v.78s.06,2.05-.42,2.29C329,152.32,327,150.57,327,149.71Z"/><path class="cls-3" d="M277.1,152.83V152h3.12v.78s.06,2.05-.43,2.29C279,155.44,277.1,153.69,277.1,152.83Z"/><path class="cls-3" d="M283.34,152.83V152h3.12v.78s.06,2.05-.42,2.29C285.28,155.44,283.34,153.69,283.34,152.83Z"/><path class="cls-3" d="M295.82,152.83V152h3.12v.78s.07,2.05-.42,2.29C297.77,155.44,295.82,153.69,295.82,152.83Z"/><path class="cls-3" d="M308.31,154.32v.83h-3.12v-.78s-.07-2.05.42-2.29C306.36,151.71,308.31,153.46,308.31,154.32Z"/><path class="cls-3" d="M313.72,152h.83v3.12h-.78s-2,.06-2.29-.42C311.1,154,312.85,152,313.72,152Z"/><rect class="cls-3" x="314.55" y="152.03" width="3.12" height="3.12"/><rect class="cls-3" x="320.79" y="152.03" width="3.12" height="3.12"/><path class="cls-3" d="M327,153.1A1.07,1.07,0,0,0,326,152h-2v3.12H327Z"/><path class="cls-3" d="M270.86,156.22v-1.07h-2.05a1.08,1.08,0,0,0-1.08,1.07h0v2.05h3.13Z"/><path class="cls-3" d="M271.69,158.27h-.83v-3.12h.78s2-.06,2.25.42C274.27,156.33,272.55,158.27,271.69,158.27Z"/><path class="cls-3" d="M283.34,157.44v.83h-3.12v-.78s-.06-2.05.42-2.29C281.4,154.83,283.34,156.58,283.34,157.44Z"/><path class="cls-3" d="M289.58,156.22v-1.07h-2.05a1.07,1.07,0,0,0-1.07,1.07h0v2.05h3.12Z"/><path class="cls-3" d="M292.7,156.22a1.07,1.07,0,0,0-1.07-1.07h-2.05v3.12h3.12Z"/><path class="cls-3" d="M304.36,155.15h.83v3.12h-.79s-2,.06-2.28-.42C301.74,157.09,303.49,155.15,304.36,155.15Z"/><rect class="cls-3" x="305.19" y="155.15" width="3.12" height="3.12"/><path class="cls-3" d="M311.43,156.22a1.07,1.07,0,0,0-1.08-1.07h-2v3.12h3.12Z"/><rect class="cls-3" x="314.55" y="155.15" width="3.12" height="3.12"/><path class="cls-3" d="M323.91,155.15h-3.12v2a1.07,1.07,0,0,0,1.07,1.07h2.05Z"/><rect class="cls-3" x="323.91" y="155.15" width="3.12" height="3.12"/><path class="cls-3" d="M327.86,158.27H327v-3.12h.78s2-.06,2.26.42C330.44,156.33,328.73,158.27,327.86,158.27Z"/><path class="cls-3" d="M336.25,157.77c.78-1.46-2.06-3.56-2.83-2.12s2.06,3.56,2.83,2.12"/><path class="cls-3" d="M342.64,157.44v.83h-3.12v-.78s-.07-2.05.42-2.29C340.69,154.83,342.64,156.58,342.64,157.44Z"/><path class="cls-3" d="M348.73,157.77c.79-1.46-2.05-3.56-2.83-2.12s2.06,3.56,2.83,2.12"/><path class="cls-3" d="M355,157.77c.79-1.46-2.05-3.56-2.83-2.12s2.06,3.56,2.83,2.12"/><path class="cls-3" d="M255.25,160.56v.83h-3.12v-.78s-.06-2.05.42-2.29C253.31,158,255.25,159.7,255.25,160.56Z"/><path class="cls-3" d="M261.49,160.56v.83h-3.11v-.78s-.07-2.05.42-2.29C259.55,158,261.49,159.7,261.49,160.56Z"/><path class="cls-3" d="M267.73,159.07v-.83h3.12V159s.07,2-.42,2.29C269.68,161.68,267.73,159.93,267.73,159.07Z"/><path class="cls-3" d="M280.22,159.34v-1.07h-2.05a1.07,1.07,0,0,0-1.07,1.07h0v2h3.12Z"/><rect class="cls-3" x="280.22" y="158.27" width="3.12" height="3.12"/><rect class="cls-3" x="283.34" y="158.27" width="3.12" height="3.12"/><rect class="cls-3" x="286.46" y="158.27" width="3.12" height="3.12"/><rect class="cls-3" x="289.58" y="158.27" width="3.12" height="3.12"/><path class="cls-3" d="M298.94,160.56v.83h-3.11v-.78s-.07-2.05.42-2.29C297,158,298.94,159.7,298.94,160.56Z"/><path class="cls-3" d="M308.31,158.27h-3.12v2a1.07,1.07,0,0,0,1.07,1.07h2.05Z"/><rect class="cls-3" x="308.31" y="158.27" width="3.12" height="3.12"/><path class="cls-3" d="M314.55,159.07v-.83h3.12V159s.06,2-.42,2.29C316.49,161.68,314.55,159.93,314.55,159.07Z"/><path class="cls-3" d="M323.91,159.07v-.83H327V159s.06,2-.42,2.29C325.85,161.68,323.91,159.93,323.91,159.07Z"/><path class="cls-3" d="M333.27,160.56v.83h-3.11v-.78s-.07-2.05.42-2.29C331.33,158,333.27,159.7,333.27,160.56Z"/><path class="cls-3" d="M339.52,159.34v-1.07h-2a1.08,1.08,0,0,0-1.08,1.07h0v2h3.13Z"/><rect class="cls-3" x="339.52" y="158.27" width="3.12" height="3.12"/><path class="cls-3" d="M343.47,161.39h-.83v-3.12h.78s2-.06,2.25.42C346.05,159.45,344.33,161.39,343.47,161.39Z"/><path class="cls-3" d="M352,160.56v.83h-3.12v-.78s-.06-2.05.42-2.29C350.05,158,352,159.7,352,160.56Z"/><path class="cls-3" d="M252.13,162.19v-.83h3.12v.78s.06,2.05-.42,2.29C254.07,164.8,252.13,163.05,252.13,162.19Z"/><rect class="cls-3" x="258.37" y="161.39" width="3.12" height="3.12"/><path class="cls-3" d="M262.32,164.51h-.83v-3.12h.79s2-.06,2.25.42C264.91,162.57,263.19,164.51,262.32,164.51Z"/><path class="cls-3" d="M273.83,164c.78-1.46-2.05-3.56-2.83-2.12s2.06,3.56,2.83,2.12"/><rect class="cls-3" x="277.1" y="161.39" width="3.12" height="3.12"/><path class="cls-3" d="M286.46,161.39h-3.12v2.05a1.07,1.07,0,0,0,1.07,1.07h2Z"/><rect class="cls-3" x="286.46" y="161.39" width="3.12" height="3.12"/><rect class="cls-3" x="289.58" y="161.39" width="3.12" height="3.12"/><path class="cls-3" d="M295.82,162.19v-.83h3.12v.78s.07,2.05-.42,2.29C297.77,164.8,295.82,163.05,295.82,162.19Z"/><rect class="cls-3" x="308.31" y="161.39" width="3.12" height="3.12"/><path class="cls-3" d="M312.26,164.51h-.83v-3.12h.78s2-.06,2.26.42C314.84,162.57,313.12,164.51,312.26,164.51Z"/><path class="cls-3" d="M320.64,164c.79-1.46-2.05-3.56-2.83-2.12s2.06,3.56,2.83,2.12"/><path class="cls-3" d="M330.15,162.19v-.83h3.12v.78s.07,2.05-.42,2.29C332.1,164.8,330.15,163.05,330.15,162.19Z"/><rect class="cls-3" x="336.39" y="161.39" width="3.12" height="3.12"/><rect class="cls-3" x="348.88" y="161.39" width="3.12" height="3.12"/><rect class="cls-3" x="258.37" y="164.51" width="3.12" height="3.12"/><path class="cls-3" d="M267.73,165.59v-1.08h-2a1.08,1.08,0,0,0-1.08,1.08h0v2h3.12Z"/><path class="cls-3" d="M270.86,165.59a1.08,1.08,0,0,0-1.08-1.08h-2v3.12h3.13Z"/><path class="cls-3" d="M276.27,164.51h.83v3.12h-.78s-2.05.07-2.29-.42C273.65,166.46,275.4,164.51,276.27,164.51Z"/><rect class="cls-3" x="277.1" y="164.51" width="3.12" height="3.12"/><path class="cls-3" d="M283.34,165.59a1.08,1.08,0,0,0-1.08-1.08h-2v3.12h3.12Z"/><rect class="cls-3" x="286.46" y="164.51" width="3.12" height="3.12"/><rect class="cls-3" x="289.58" y="164.51" width="3.12" height="3.12"/><path class="cls-3" d="M302.06,165.59v-1.08h-2a1.08,1.08,0,0,0-1.08,1.08h0v2h3.12Z"/><path class="cls-3" d="M302.89,167.63h-.83v-3.11h.79s2-.07,2.25.42C305.48,165.69,303.76,167.63,302.89,167.63Z"/><path class="cls-3" d="M323.91,166.8v.83h-3.12v-.78s-.06-2,.42-2.29C322,164.19,323.91,165.94,323.91,166.8Z"/><path class="cls-3" d="M330,167.13c.78-1.46-2.06-3.56-2.83-2.11s2.06,3.55,2.83,2.11"/><path class="cls-3" d="M336.39,165.59v-1.08h-2a1.08,1.08,0,0,0-1.08,1.08h0v2h3.12Z"/><path class="cls-3" d="M339.52,164.51h-3.13v3.12h2.05a1.08,1.08,0,0,0,1.08-1.07h0Z"/><path class="cls-3" d="M345.76,165.59v-1.08h-2.05a1.07,1.07,0,0,0-1.07,1.08h0v2h3.12Z"/><rect class="cls-3" x="345.76" y="164.51" width="3.12" height="3.12"/><rect class="cls-3" x="348.88" y="164.51" width="3.12" height="3.12"/><path class="cls-3" d="M355.12,165.59a1.07,1.07,0,0,0-1.07-1.08H352v3.12h3.12Z"/><rect class="cls-3" x="258.37" y="167.63" width="3.12" height="3.12"/><path class="cls-3" d="M267.73,167.63h-3.12v2.05a1.08,1.08,0,0,0,1.08,1.07h2Z"/><rect class="cls-3" x="267.73" y="167.63" width="3.12" height="3.12"/><path class="cls-3" d="M271.69,170.75h-.83v-3.11h.78s2-.07,2.25.42C274.27,168.81,272.55,170.75,271.69,170.75Z"/><path class="cls-3" d="M280.22,167.63H277.1v2.05a1.07,1.07,0,0,0,1.07,1.07h2.05Z"/><rect class="cls-3" x="280.22" y="167.63" width="3.12" height="3.12"/><path class="cls-3" d="M289.58,167.63h-3.12v2.05a1.07,1.07,0,0,0,1.07,1.07h2.05Z"/><rect class="cls-3" x="289.58" y="167.63" width="3.12" height="3.12"/><rect class="cls-3" x="292.7" y="167.63" width="3.12" height="3.12"/><rect class="cls-3" x="295.82" y="167.63" width="3.12" height="3.12"/><rect class="cls-3" x="298.94" y="167.63" width="3.12" height="3.12"/><rect class="cls-3" x="320.79" y="167.63" width="3.12" height="3.12"/><path class="cls-3" d="M332.44,167.63h.83v3.12h-.78s-2.05.07-2.29-.42C329.83,169.58,331.58,167.63,332.44,167.63Z"/><rect class="cls-3" x="333.27" y="167.63" width="3.12" height="3.12"/><path class="cls-3" d="M341.81,167.63h.83v3.12h-.79s-2,.07-2.28-.42C339.19,169.58,340.94,167.63,341.81,167.63Z"/><path class="cls-3" d="M345.76,167.63h-3.12v3.12h2a1.07,1.07,0,0,0,1.08-1.07h0Z"/><path class="cls-3" d="M352,167.63h-3.12v2.05a1.07,1.07,0,0,0,1.07,1.07H352Z"/><rect class="cls-3" x="352" y="167.63" width="3.12" height="3.12"/><path class="cls-3" d="M257.54,170.75h.83v3.12h-.78s-2,.07-2.29-.42C254.93,172.7,256.68,170.75,257.54,170.75Z"/><rect class="cls-3" x="258.37" y="170.75" width="3.12" height="3.12"/><path class="cls-3" d="M262.32,173.87h-.83v-3.11h.79s2-.07,2.25.42C264.91,171.93,263.19,173.87,262.32,173.87Z"/><path class="cls-3" d="M277,173.37c.78-1.46-2.05-3.56-2.83-2.11s2.06,3.55,2.83,2.11"/><path class="cls-3" d="M283.34,170.75h-3.12v2.05a1.07,1.07,0,0,0,1.07,1.07h2Z"/><path class="cls-3" d="M286.46,171.83a1.07,1.07,0,0,0-1.07-1.08h-2.05v3.12h3.12Z"/><rect class="cls-3" x="320.79" y="170.75" width="3.12" height="3.12"/><path class="cls-3" d="M324.74,173.87h-.83v-3.11h.78s2-.07,2.26.42C327.32,171.93,325.6,173.87,324.74,173.87Z"/><path class="cls-3" d="M333.27,171.55v-.83h3.12v.78s.07,2.05-.42,2.29C335.22,174.17,333.27,172.42,333.27,171.55Z"/><path class="cls-3" d="M348.88,173.05v.82h-3.12v-.78s-.07-2,.42-2.28C346.93,170.43,348.88,172.18,348.88,173.05Z"/><path class="cls-3" d="M352,171.55v-.83h3.12v.78s.06,2.05-.42,2.29C353.94,174.17,352,172.42,352,171.55Z"/><rect class="cls-3" x="258.37" y="173.87" width="3.12" height="3.12"/><path class="cls-3" d="M267.73,176.17V177h-3.11v-.79s-.07-2,.42-2.28C265.79,173.55,267.73,175.3,267.73,176.17Z"/><path class="cls-3" d="M273.83,176.5c.78-1.47-2.05-3.57-2.83-2.12s2.06,3.55,2.83,2.12"/><path class="cls-3" d="M280.22,176.17V177H277.1v-.79s-.06-2,.42-2.28C278.27,173.55,280.22,175.3,280.22,176.17Z"/><path class="cls-3" d="M283.34,174.67v-.83h3.12v.79s.06,2-.42,2.28C285.28,177.29,283.34,175.54,283.34,174.67Z"/><path class="cls-3" d="M320.79,174.67v-.83h3.12v.79s.06,2-.42,2.28C322.73,177.29,320.79,175.54,320.79,174.67Z"/><path class="cls-3" d="M333.13,176.5c.78-1.47-2.06-3.57-2.83-2.12s2.06,3.55,2.83,2.12"/><path class="cls-3" d="M344.93,173.87h.83V177H345s-2,.07-2.28-.42C342.31,175.82,344.06,173.87,344.93,173.87Z"/><rect class="cls-3" x="345.76" y="173.87" width="3.12" height="3.12"/><path class="cls-3" d="M352,175a1.08,1.08,0,0,0-1.08-1.08h-2V177H352Z"/><path class="cls-3" d="M255.11,179.62c.78-1.47-2.06-3.57-2.83-2.12s2.05,3.56,2.83,2.12"/><rect class="cls-3" x="258.37" y="177" width="3.12" height="3.12"/><rect class="cls-3" x="261.49" y="177" width="3.12" height="3.12"/><rect class="cls-3" x="264.61" y="177" width="3.12" height="3.12"/><path class="cls-3" d="M270.86,178.07a1.08,1.08,0,0,0-1.08-1.07h-2v3.12h3.13Z"/><path class="cls-3" d="M277.1,178.07V177h-2.05a1.07,1.07,0,0,0-1.07,1.07h0v2.05h3.12Z"/><rect class="cls-3" x="277.1" y="177" width="3.12" height="3.12"/><path class="cls-3" d="M281.05,180.12h-.83V177H281s2-.07,2.26.42C283.63,178.17,281.91,180.12,281.05,180.12Z"/><path class="cls-3" d="M330,179.62c.78-1.47-2.06-3.57-2.83-2.12s2.06,3.56,2.83,2.12"/><path class="cls-3" d="M336.25,179.62c.78-1.47-2.06-3.57-2.83-2.12s2.06,3.56,2.83,2.12"/><path class="cls-3" d="M342.64,179.29v.83h-3.12v-.79s-.07-2,.42-2.28C340.69,176.67,342.64,178.42,342.64,179.29Z"/><rect class="cls-3" x="345.76" y="177" width="3.12" height="3.12"/><rect class="cls-3" x="348.88" y="177" width="3.12" height="3.12"/><path class="cls-3" d="M355.12,178.07a1.07,1.07,0,0,0-1.07-1.07H352v3.12h3.12Z"/><rect class="cls-3" x="258.37" y="180.12" width="3.12" height="3.12"/><rect class="cls-3" x="264.61" y="180.12" width="3.12" height="3.12"/><rect class="cls-3" x="267.73" y="180.12" width="3.12" height="3.12"/><rect class="cls-3" x="270.86" y="180.12" width="3.12" height="3.12"/><path class="cls-3" d="M277.1,180.12H274v3.12h2a1.08,1.08,0,0,0,1.08-1.08Z"/><path class="cls-3" d="M302.06,181.19v-1.07h-2a1.07,1.07,0,0,0-1.08,1.07h0v2.05h3.12Z"/><path class="cls-3" d="M333.13,182.74c.78-1.46-2.06-3.57-2.83-2.12s2.06,3.56,2.83,2.12"/><path class="cls-3" d="M342.64,180.12h-3.12v2a1.07,1.07,0,0,0,1.07,1.08h2.05Z"/><rect class="cls-3" x="342.64" y="180.12" width="3.12" height="3.12"/><path class="cls-3" d="M348.88,180.12h-3.12v3.12h2a1.08,1.08,0,0,0,1.08-1.08Z"/><path class="cls-3" d="M352,180.91v-.82h3.12v.78s.06,2-.42,2.28C353.94,183.53,352,181.78,352,180.91Z"/><path class="cls-3" d="M254.42,183.24h.83v3.12h-.78s-2.05.06-2.29-.43C251.81,185.18,253.56,183.24,254.42,183.24Z"/><rect class="cls-3" x="255.25" y="183.24" width="3.12" height="3.12"/><rect class="cls-3" x="258.37" y="183.24" width="3.12" height="3.12"/><rect class="cls-3" x="261.49" y="183.24" width="3.12" height="3.12"/><rect class="cls-3" x="264.61" y="183.24" width="3.12" height="3.12"/><rect class="cls-3" x="267.73" y="183.24" width="3.12" height="3.12"/><path class="cls-3" d="M279.39,183.24h.83v3.12h-.78s-2.05.06-2.29-.43C276.77,185.18,278.52,183.24,279.39,183.24Z"/><rect class="cls-3" x="280.22" y="183.24" width="3.12" height="3.12"/><path class="cls-3" d="M292.7,184.31a1.07,1.07,0,0,0-1.07-1.07h-2.05v3.12h3.12Z"/><path class="cls-3" d="M298.94,184.31v-1.07h-2a1.07,1.07,0,0,0-1.08,1.07v2.05h3.12Z"/><rect class="cls-3" x="298.94" y="183.24" width="3.12" height="3.12"/><path class="cls-3" d="M327,184.31v-1.07h-2a1.07,1.07,0,0,0-1.08,1.07v2.05H327Z"/><path class="cls-3" d="M327.86,186.36H327v-3.12h.78s2-.07,2.26.42C330.44,184.41,328.73,186.36,327.86,186.36Z"/><path class="cls-3" d="M335.56,183.24h.83v3.12h-.78s-2,.06-2.28-.43C333,185.18,334.7,183.24,335.56,183.24Z"/><path class="cls-3" d="M339.52,184.31a1.08,1.08,0,0,0-1.08-1.07h-2.05v3.12h3.13Z"/><path class="cls-3" d="M261.49,187.16v-.83h3.12v.78s.07,2-.42,2.29C263.44,189.77,261.49,188,261.49,187.16Z"/><path class="cls-3" d="M270.86,186.36h-3.13v2a1.08,1.08,0,0,0,1.08,1.08h2.05Z"/><rect class="cls-3" x="270.86" y="186.36" width="3.12" height="3.12"/><path class="cls-3" d="M277.1,187.43a1.07,1.07,0,0,0-1.08-1.07h-2v3.12h3.12Z"/><rect class="cls-3" x="280.22" y="186.36" width="3.12" height="3.12"/><rect class="cls-3" x="295.82" y="186.36" width="3.12" height="3.12"/><rect class="cls-3" x="298.94" y="186.36" width="3.12" height="3.12"/><rect class="cls-3" x="323.91" y="186.36" width="3.12" height="3.12"/><rect class="cls-3" x="336.39" y="186.36" width="3.12" height="3.12"/><rect class="cls-3" x="339.52" y="186.36" width="3.12" height="3.12"/><rect class="cls-3" x="342.64" y="186.36" width="3.12" height="3.12"/><path class="cls-3" d="M348.88,187.43a1.07,1.07,0,0,0-1.08-1.07h-2v3.12h3.12Z"/><path class="cls-3" d="M258.37,190.55v-1.07h-2a1.07,1.07,0,0,0-1.08,1.07v2h3.12Z"/><path class="cls-3" d="M259.2,192.6h-.83v-3.12h.78s2-.06,2.26.42C261.79,190.66,260.07,192.6,259.2,192.6Z"/><path class="cls-3" d="M267.59,192.1c.78-1.46-2.06-3.56-2.83-2.12s2.06,3.56,2.83,2.12"/><path class="cls-3" d="M274,190.28v-.83h3.11v.78s.07,2.05-.42,2.29C275.92,192.89,274,191.14,274,190.28Z"/><path class="cls-3" d="M283.34,189.48h-3.12v2.05a1.07,1.07,0,0,0,1.07,1.07h2Z"/><path class="cls-3" d="M284.17,192.6h-.83v-3.12h.78s2-.06,2.26.42C286.75,190.66,285,192.6,284.17,192.6Z"/><rect class="cls-3" x="295.82" y="189.48" width="3.12" height="3.12"/><path class="cls-3" d="M327,189.48h-3.12v2.05A1.07,1.07,0,0,0,325,192.6h2Z"/><path class="cls-3" d="M327.86,192.6H327v-3.12h.78s2-.06,2.26.42C330.44,190.66,328.73,192.6,327.86,192.6Z"/><path class="cls-3" d="M336.39,190.55v-1.07h-2a1.07,1.07,0,0,0-1.08,1.07v2h3.12Z"/><path class="cls-3" d="M339.52,189.48h-3.13v3.12h2.05a1.08,1.08,0,0,0,1.08-1.07Z"/><rect class="cls-3" x="342.64" y="189.48" width="3.12" height="3.12"/><path class="cls-3" d="M348.88,189.48h-3.12v3.12h2a1.07,1.07,0,0,0,1.08-1.07Z"/><path class="cls-3" d="M355.12,191.77v.83H352v-.78s-.06-2,.42-2.29C353.18,189.16,355.12,190.91,355.12,191.77Z"/><path class="cls-3" d="M255.25,193.4v-.83h3.12v.78s.06,2.05-.42,2.29C257.2,196,255.25,194.26,255.25,193.4Z"/><path class="cls-3" d="M273.83,195.22c.78-1.46-2.05-3.56-2.83-2.12s2.06,3.56,2.83,2.12"/><path class="cls-3" d="M280.22,194.89v.83H277.1v-.78s-.06-2.05.42-2.29C278.27,192.28,280.22,194,280.22,194.89Z"/><path class="cls-3" d="M332.44,192.6h.83v3.12h-.78s-2.05.06-2.29-.42C329.83,194.54,331.58,192.6,332.44,192.6Z"/><rect class="cls-3" x="333.27" y="192.6" width="3.12" height="3.12"/><path class="cls-3" d="M342.64,193.67V192.6h-2.05a1.07,1.07,0,0,0-1.07,1.07h0v2.05h3.12Z"/><rect class="cls-3" x="342.64" y="192.6" width="3.12" height="3.12"/><path class="cls-3" d="M351.17,192.6H352v3.12h-.78s-2.05.06-2.29-.42C348.55,194.54,350.31,192.6,351.17,192.6Z"/><path class="cls-3" d="M355.12,192.6H352v3.12h2.05a1.07,1.07,0,0,0,1.07-1.07Z"/><path class="cls-3" d="M255.25,198v.83h-3.12v-.78s-.06-2.05.42-2.29C253.31,195.4,255.25,197.15,255.25,198Z"/><path class="cls-3" d="M264.61,198v.83H261.5v-.78s-.07-2.05.42-2.29C262.67,195.4,264.61,197.15,264.61,198Z"/><path class="cls-3" d="M270.86,198v.83h-3.12v-.78s-.07-2.05.42-2.29C268.91,195.4,270.86,197.15,270.86,198Z"/><path class="cls-3" d="M277.1,196.52v-.83h3.12v.78s.06,2.05-.43,2.29C279,199.13,277.1,197.38,277.1,196.52Z"/><path class="cls-3" d="M288.75,195.72h.83v3.12h-.78s-2.05.06-2.29-.42C286.14,197.66,287.89,195.72,288.75,195.72Z"/><path class="cls-3" d="M292.7,196.8a1.07,1.07,0,0,0-1.07-1.08h-2.05v3.12h3.12Z"/><rect class="cls-3" x="302.06" y="195.72" width="3.12" height="3.12"/><rect class="cls-3" x="305.19" y="195.72" width="3.12" height="3.12"/><path class="cls-3" d="M311.43,196.8a1.08,1.08,0,0,0-1.08-1.08h-2v3.12h3.12Z"/><path class="cls-3" d="M323.77,198.34c.78-1.46-2.06-3.56-2.84-2.12s2.06,3.56,2.84,2.12"/><path class="cls-3" d="M330,198.34c.78-1.46-2.06-3.56-2.83-2.12s2.06,3.56,2.83,2.12"/><path class="cls-3" d="M336.39,195.72h-3.12v2.05a1.07,1.07,0,0,0,1.08,1.07h2Z"/><rect class="cls-3" x="336.39" y="195.72" width="3.12" height="3.12"/><rect class="cls-3" x="339.52" y="195.72" width="3.12" height="3.12"/><rect class="cls-3" x="342.64" y="195.72" width="3.12" height="3.12"/><path class="cls-3" d="M348.88,196.8a1.08,1.08,0,0,0-1.08-1.08h-2v3.12h3.12Z"/><rect class="cls-3" x="252.13" y="198.84" width="3.12" height="3.12"/><rect class="cls-3" x="261.49" y="198.84" width="3.12" height="3.12"/><rect class="cls-3" x="264.61" y="198.84" width="3.12" height="3.12"/><rect class="cls-3" x="267.73" y="198.84" width="3.12" height="3.12"/><path class="cls-3" d="M271.69,202h-.83v-3.12h.78s2-.06,2.25.43C274.27,200,272.55,202,271.69,202Z"/><path class="cls-3" d="M283.19,201.46c.79-1.46-2.05-3.56-2.83-2.11s2.06,3.55,2.83,2.11"/><path class="cls-3" d="M289.58,199.64v-.83h3.12v.78s.06,2-.42,2.29C291.53,202.25,289.58,200.5,289.58,199.64Z"/><path class="cls-3" d="M298.8,201.46c.78-1.46-2.06-3.56-2.83-2.11s2.06,3.55,2.83,2.11"/><path class="cls-3" d="M305.19,198.84h-3.13v2a1.08,1.08,0,0,0,1.08,1.07h2.05Z"/><rect class="cls-3" x="305.19" y="198.84" width="3.12" height="3.12"/><rect class="cls-3" x="308.31" y="198.84" width="3.12" height="3.12"/><path class="cls-3" d="M317.67,201.13V202h-3.12v-.78s-.06-2.05.42-2.29C315.72,198.52,317.67,200.27,317.67,201.13Z"/><rect class="cls-3" x="345.76" y="198.84" width="3.12" height="3.12"/><path class="cls-3" d="M352,199.92a1.08,1.08,0,0,0-1.08-1.08h-2V202H352Z"/><rect class="cls-3" x="252.13" y="201.96" width="3.12" height="3.12"/><path class="cls-3" d="M260.66,202h.83v3.12h-.78s-2,.07-2.29-.42C258.05,203.91,259.8,202,260.66,202Z"/><rect class="cls-3" x="261.49" y="201.96" width="3.12" height="3.12"/><path class="cls-3" d="M267.73,202.76v-.83h3.12v.78s.07,2-.42,2.29C269.68,205.38,267.73,203.62,267.73,202.76Z"/><path class="cls-3" d="M286.46,204.25v.83h-3.12v-.78s-.06-2.05.42-2.29C284.52,201.64,286.46,203.39,286.46,204.25Z"/><path class="cls-3" d="M295.68,204.58c.78-1.46-2.06-3.56-2.83-2.11s2.06,3.55,2.83,2.11"/><path class="cls-3" d="M302.06,204.25v.83H299v-.78s-.07-2.05.42-2.29C300.12,201.64,302.06,203.39,302.06,204.25Z"/><path class="cls-3" d="M308.31,202h-3.12v2a1.07,1.07,0,0,0,1.07,1.07h2.05Z"/><rect class="cls-3" x="308.31" y="201.96" width="3.12" height="3.12"/><rect class="cls-3" x="311.43" y="201.96" width="3.12" height="3.12"/><path class="cls-3" d="M317.67,202h-3.12v3.12h2a1.07,1.07,0,0,0,1.08-1.07Z"/><path class="cls-3" d="M330.15,204.25v.83H327v-.78s-.06-2.05.43-2.29C328.21,201.64,330.15,203.39,330.15,204.25Z"/><path class="cls-3" d="M339.52,204.25v.83H336.4v-.78s-.07-2.05.42-2.29C337.57,201.64,339.52,203.39,339.52,204.25Z"/><path class="cls-3" d="M344.93,202h.83v3.12H345s-2,.07-2.28-.42C342.31,203.91,344.06,202,344.93,202Z"/><rect class="cls-3" x="345.76" y="201.96" width="3.12" height="3.12"/><rect class="cls-3" x="348.88" y="201.96" width="3.12" height="3.12"/><path class="cls-3" d="M352.83,205.08H352V202h.78s2-.07,2.26.42C355.41,203.14,353.69,205.08,352.83,205.08Z"/><path class="cls-3" d="M255.25,205.08h-3.12v2a1.07,1.07,0,0,0,1.07,1.07h2.05Z"/><path class="cls-3" d="M256.08,208.2h-.83v-3.11H256s2-.07,2.26.42C258.66,206.26,256.94,208.2,256.08,208.2Z"/><path class="cls-3" d="M261.49,205.88v-.83h3.12v.78s.07,2-.42,2.29C263.44,208.5,261.49,206.75,261.49,205.88Z"/><path class="cls-3" d="M273.83,207.7c.78-1.46-2.05-3.56-2.83-2.11s2.06,3.55,2.83,2.11"/><path class="cls-3" d="M286.46,205.08h-3.12v2a1.07,1.07,0,0,0,1.07,1.07h2Z"/><path class="cls-3" d="M287.29,208.2h-.83v-3.11h.78s2-.07,2.26.42C289.87,206.26,288.15,208.2,287.29,208.2Z"/><path class="cls-3" d="M298.94,205.88v-.83h3.12v.78s.07,2-.42,2.29C300.89,208.5,298.94,206.75,298.94,205.88Z"/><rect class="cls-3" x="308.31" y="205.08" width="3.12" height="3.12"/><path class="cls-3" d="M314.55,205.08h-3.12v3.12h2a1.07,1.07,0,0,0,1.08-1.07Z"/><path class="cls-3" d="M320.79,206.16v-1.08h-2.05a1.07,1.07,0,0,0-1.07,1.08v2h3.12Z"/><rect class="cls-3" x="320.79" y="205.08" width="3.12" height="3.12"/><rect class="cls-3" x="323.91" y="205.08" width="3.12" height="3.12"/><rect class="cls-3" x="327.03" y="205.08" width="3.12" height="3.12"/><rect class="cls-3" x="330.15" y="205.08" width="3.12" height="3.12"/><rect class="cls-3" x="333.27" y="205.08" width="3.12" height="3.12"/><rect class="cls-3" x="336.39" y="205.08" width="3.12" height="3.12"/><path class="cls-3" d="M342.64,206.16a1.08,1.08,0,0,0-1.08-1.08h-2v3.12h3.12Z"/><path class="cls-3" d="M280.07,210.82c.79-1.46-2.05-3.56-2.83-2.11s2.06,3.55,2.83,2.11"/><path class="cls-3" d="M292.56,210.82c.78-1.46-2.06-3.56-2.83-2.11s2.06,3.55,2.83,2.11"/><path class="cls-3" d="M298.94,210.5v.83h-3.11v-.79s-.07-2,.42-2.28C297,207.88,298.94,209.63,298.94,210.5Z"/><rect class="cls-3" x="308.31" y="208.2" width="3.12" height="3.12"/><path class="cls-3" d="M317.67,209.28V208.2h-2.05a1.08,1.08,0,0,0-1.07,1.08v2.05h3.12Z"/><path class="cls-3" d="M320.79,208.2h-3.12v3.13h2.05a1.08,1.08,0,0,0,1.07-1.08h0Z"/><rect class="cls-3" x="327.03" y="208.2" width="3.12" height="3.12"/><rect class="cls-3" x="339.52" y="208.2" width="3.12" height="3.12"/><rect class="cls-3" x="342.64" y="208.2" width="3.12" height="3.12"/><rect class="cls-3" x="345.76" y="208.2" width="3.12" height="3.12"/><rect class="cls-3" x="348.88" y="208.2" width="3.12" height="3.12"/><path class="cls-3" d="M352.83,211.33H352v-3.12h.78s2-.07,2.26.42C355.41,209.38,353.69,211.33,352.83,211.33Z"/><path class="cls-3" d="M289.44,214c.78-1.47-2.06-3.57-2.84-2.12s2.06,3.55,2.84,2.12"/><path class="cls-3" d="M295.82,212.4v-1.07h-2a1.07,1.07,0,0,0-1.08,1.07v2h3.12Z"/><rect class="cls-3" x="295.82" y="211.33" width="3.12" height="3.12"/><path class="cls-3" d="M299.77,214.45h-.83v-3.12h.79s2-.07,2.25.42C302.36,212.5,300.64,214.45,299.77,214.45Z"/><path class="cls-3" d="M308.31,212.12v-.83h3.11v.79s.07,2-.42,2.28C310.25,214.74,308.31,213,308.31,212.12Z"/><rect class="cls-3" x="314.55" y="211.33" width="3.12" height="3.12"/><path class="cls-3" d="M323.91,212.4v-1.07h-2.05a1.07,1.07,0,0,0-1.07,1.07v2h3.12Z"/><rect class="cls-3" x="323.91" y="211.33" width="3.12" height="3.12"/><rect class="cls-3" x="327.03" y="211.33" width="3.12" height="3.12"/><path class="cls-3" d="M336.25,214c.78-1.47-2.06-3.57-2.83-2.12s2.06,3.55,2.83,2.12"/><rect class="cls-3" x="339.52" y="211.33" width="3.12" height="3.12"/><rect class="cls-3" x="342.64" y="211.33" width="3.12" height="3.12"/><rect class="cls-3" x="345.76" y="211.33" width="3.12" height="3.12"/><rect class="cls-3" x="348.88" y="211.33" width="3.12" height="3.12"/><path class="cls-3" d="M280.07,217.07c.79-1.47-2.05-3.57-2.83-2.12s2.06,3.56,2.83,2.12"/><rect class="cls-3" x="292.7" y="214.45" width="3.12" height="3.12"/><rect class="cls-3" x="295.82" y="214.45" width="3.12" height="3.12"/><path class="cls-3" d="M313.72,214.45h.83v3.11h-.78s-2,.07-2.29-.42C311.1,216.39,312.85,214.45,313.72,214.45Z"/><rect class="cls-3" x="314.55" y="214.45" width="3.12" height="3.12"/><rect class="cls-3" x="317.67" y="214.45" width="3.12" height="3.12"/><rect class="cls-3" x="320.79" y="214.45" width="3.12" height="3.12"/><rect class="cls-3" x="323.91" y="214.45" width="3.12" height="3.12"/><rect class="cls-3" x="327.03" y="214.45" width="3.12" height="3.12"/><rect class="cls-3" x="339.52" y="214.45" width="3.12" height="3.12"/><rect class="cls-3" x="342.64" y="214.45" width="3.12" height="3.12"/><rect class="cls-3" x="345.76" y="214.45" width="3.12" height="3.12"/><rect class="cls-3" x="348.88" y="214.45" width="3.12" height="3.12"/><path class="cls-3" d="M283.34,218.64v-1.07h-2a1.07,1.07,0,0,0-1.07,1.07v2.05h3.12Z"/><path class="cls-3" d="M284.17,220.69h-.83v-3.12h.78s2-.07,2.26.42C286.75,218.74,285,220.69,284.17,220.69Z"/><path class="cls-3" d="M295.82,217.57H292.7v2a1.08,1.08,0,0,0,1.08,1.08h2Z"/><rect class="cls-3" x="295.82" y="217.57" width="3.12" height="3.12"/><rect class="cls-3" x="298.94" y="217.57" width="3.12" height="3.12"/><path class="cls-3" d="M305.19,218.64a1.08,1.08,0,0,0-1.08-1.07h-2.05v3.12h3.13Z"/><path class="cls-3" d="M317.67,217.57h-3.12v2a1.07,1.07,0,0,0,1.07,1.08h2.05Z"/><rect class="cls-3" x="317.67" y="217.57" width="3.12" height="3.12"/><path class="cls-3" d="M323.91,217.57h-3.12v3.12h2a1.07,1.07,0,0,0,1.07-1.08Z"/><rect class="cls-3" x="327.03" y="217.57" width="3.12" height="3.12"/><rect class="cls-3" x="330.15" y="217.57" width="3.12" height="3.12"/><rect class="cls-3" x="333.27" y="217.57" width="3.12" height="3.12"/><rect class="cls-3" x="336.39" y="217.57" width="3.12" height="3.12"/><rect class="cls-3" x="339.52" y="217.57" width="3.12" height="3.12"/><rect class="cls-3" x="342.64" y="217.57" width="3.12" height="3.12"/><rect class="cls-3" x="348.88" y="217.57" width="3.12" height="3.12"/><path class="cls-3" d="M352.83,220.69H352v-3.12h.78s2-.07,2.26.42C355.41,218.74,353.69,220.69,352.83,220.69Z"/><rect class="cls-3" x="280.22" y="220.69" width="3.12" height="3.12"/><path class="cls-3" d="M289.44,223.31c.78-1.46-2.06-3.56-2.84-2.12s2.06,3.56,2.84,2.12"/><path class="cls-3" d="M305.19,220.69h-3.13v2a1.08,1.08,0,0,0,1.08,1.08h2.05Z"/><path class="cls-3" d="M306,223.81h-.82v-3.12H306s2-.06,2.25.42C308.6,221.86,306.88,223.81,306,223.81Z"/><path class="cls-3" d="M314.4,223.31c.79-1.46-2-3.56-2.83-2.12s2.06,3.56,2.83,2.12"/><rect class="cls-3" x="317.67" y="220.69" width="3.12" height="3.12"/><path class="cls-3" d="M330.15,220.69H327v2a1.08,1.08,0,0,0,1.08,1.08h2Z"/><path class="cls-3" d="M333.27,220.69h-3.12v3.12h2.05a1.07,1.07,0,0,0,1.07-1.08Z"/><path class="cls-3" d="M339.52,220.69h-3.13v2a1.08,1.08,0,0,0,1.08,1.08h2Z"/><rect class="cls-3" x="339.52" y="220.69" width="3.12" height="3.12"/><rect class="cls-3" x="342.64" y="220.69" width="3.12" height="3.12"/><rect class="cls-3" x="348.88" y="220.69" width="3.12" height="3.12"/><rect class="cls-3" x="280.22" y="223.81" width="3.12" height="3.12"/><path class="cls-3" d="M284.17,226.93h-.83v-3.12h.78s2-.06,2.26.42C286.75,225,285,226.93,284.17,226.93Z"/><path class="cls-3" d="M295.82,226.1v.83H292.7v-.78s-.06-2.05.43-2.29C293.88,223.49,295.82,225.24,295.82,226.1Z"/><path class="cls-3" d="M317.67,224.61v-.83h3.12v.78s.06,2.05-.42,2.29C319.61,227.22,317.67,225.47,317.67,224.61Z"/><path class="cls-3" d="M326.89,226.43c.78-1.46-2.06-3.56-2.83-2.12s2.05,3.56,2.83,2.12"/><path class="cls-3" d="M342.64,223.81h-3.12v2.05a1.07,1.07,0,0,0,1.07,1.07h2.05Z"/><rect class="cls-3" x="342.64" y="223.81" width="3.12" height="3.12"/><path class="cls-3" d="M352,223.81h-3.12v2.05a1.07,1.07,0,0,0,1.07,1.07H352Z"/><path class="cls-3" d="M352.83,226.93H352v-3.12h.78s2-.06,2.26.42C355.41,225,353.69,226.93,352.83,226.93Z"/><path class="cls-3" d="M280.22,227.73v-.83h3.12v.78s.06,2-.42,2.29C282.16,230.34,280.22,228.59,280.22,227.73Z"/><path class="cls-3" d="M288.75,226.93h.83v3.12h-.78s-2.05.06-2.29-.42C286.14,228.87,287.89,226.93,288.75,226.93Z"/><rect class="cls-3" x="289.58" y="226.93" width="3.12" height="3.12"/><rect class="cls-3" x="292.7" y="226.93" width="3.12" height="3.12"/><rect class="cls-3" x="295.82" y="226.93" width="3.12" height="3.12"/><path class="cls-3" d="M299.77,230.05h-.83v-3.12h.79s2-.06,2.25.42C302.36,228.11,300.64,230.05,299.77,230.05Z"/><path class="cls-3" d="M314.55,229.22v.83h-3.12v-.78s-.07-2.05.42-2.29C312.6,226.61,314.55,228.36,314.55,229.22Z"/><path class="cls-3" d="M332.44,226.93h.83v3.12h-.78s-2.05.06-2.29-.42C329.83,228.87,331.58,226.93,332.44,226.93Z"/><path class="cls-3" d="M336.39,228a1.07,1.07,0,0,0-1.07-1.07h-2.05v3.12h3.12Z"/><path class="cls-3" d="M342.64,227.73v-.83h3.11v.78s.07,2-.42,2.29C344.58,230.34,342.64,228.59,342.64,227.73Z"/><path class="cls-3" d="M286.31,232.67c.79-1.46-2.05-3.56-2.83-2.12s2.06,3.56,2.83,2.12"/><path class="cls-3" d="M289.58,230.85V230h3.12v.78s.06,2-.42,2.29C291.53,233.46,289.58,231.71,289.58,230.85Z"/><path class="cls-3" d="M307.48,230.05h.83v3.12h-.79s-2,.06-2.28-.42C304.86,232,306.61,230.05,307.48,230.05Z"/><rect class="cls-3" x="308.31" y="230.05" width="3.12" height="3.12"/><rect class="cls-3" x="311.43" y="230.05" width="3.12" height="3.12"/><rect class="cls-3" x="314.55" y="230.05" width="3.12" height="3.12"/><path class="cls-3" d="M318.5,233.17h-.83v-3.12h.78s2-.06,2.26.42C321.08,231.23,319.36,233.17,318.5,233.17Z"/><path class="cls-3" d="M326.2,230.05H327v3.12h-.78s-2.05.06-2.29-.42C323.59,232,325.34,230.05,326.2,230.05Z"/><path class="cls-3" d="M327.86,233.17H327v-3.12h.78s2-.06,2.26.42C330.44,231.23,328.73,233.17,327.86,233.17Z"/><path class="cls-3" d="M333.27,230.85V230h3.12v.78s.07,2-.42,2.29C335.22,233.46,333.27,231.71,333.27,230.85Z"/><path class="cls-3" d="M348.05,230.05h.83v3.12h-.78s-2.05.06-2.29-.42C345.43,232,347.18,230.05,348.05,230.05Z"/><path class="cls-3" d="M349.71,233.17h-.83v-3.12h.78s2-.06,2.26.42C352.29,231.23,350.57,233.17,349.71,233.17Z"/><path class="cls-4" d="M255.41,144.65v-7.09a4.14,4.14,0,0,1,4.18-4.1h6.93a4.15,4.15,0,0,1,4.18,4.1v11.19H259.59A4.14,4.14,0,0,1,255.41,144.65Z"/><path class="cls-3" d="M252.13,144.65v-7.09a7.43,7.43,0,0,1,7.46-7.38h6.93a7.43,7.43,0,0,1,7.46,7.38V152H259.59A7.42,7.42,0,0,1,252.13,144.65Zm3.28,0a4.14,4.14,0,0,0,4.18,4.1H270.7V137.56a4.15,4.15,0,0,0-4.18-4.1h-6.93a4.14,4.14,0,0,0-4.18,4.1Z"/><path class="cls-4" d="M351.85,144.65v-7.09a4.15,4.15,0,0,0-4.19-4.1h-6.93a4.15,4.15,0,0,0-4.18,4.1v11.19h11.11A4.15,4.15,0,0,0,351.85,144.65Z"/><path class="cls-3" d="M355.12,144.65v-7.09a7.43,7.43,0,0,0-7.46-7.38h-6.93a7.43,7.43,0,0,0-7.46,7.38V152h14.39A7.42,7.42,0,0,0,355.12,144.65Zm-3.28,0a4.14,4.14,0,0,1-4.18,4.1H336.55V137.56a4.15,4.15,0,0,1,4.18-4.1h6.93a4.14,4.14,0,0,1,4.18,4.1Z"/><path class="cls-4" d="M255.41,218.7v7.1a4.13,4.13,0,0,0,4.18,4.09h6.93a4.14,4.14,0,0,0,4.18-4.09V214.6H259.59A4.13,4.13,0,0,0,255.41,218.7Z"/><path class="cls-3" d="M252.13,218.7v7.1a7.43,7.43,0,0,0,7.46,7.37h6.93A7.43,7.43,0,0,0,274,225.8V211.33H259.59A7.43,7.43,0,0,0,252.13,218.7Zm3.28,0a4.13,4.13,0,0,1,4.18-4.09H270.7v11.2a4.14,4.14,0,0,1-4.18,4.09h-6.93a4.13,4.13,0,0,1-4.18-4.09Z"/><path class="cls-3" d="M258.37,143.24V139a2.58,2.58,0,0,1,2.59-2.55h4.19a2.57,2.57,0,0,1,2.58,2.55v6.82H261A2.57,2.57,0,0,1,258.37,143.24Z"/><path class="cls-3" d="M348.88,143.24V139a2.58,2.58,0,0,0-2.59-2.55H342.1a2.57,2.57,0,0,0-2.58,2.55v6.82h6.77A2.57,2.57,0,0,0,348.88,143.24Z"/><path class="cls-3" d="M258.37,220.12v4.26a2.57,2.57,0,0,0,2.59,2.55h4.19a2.57,2.57,0,0,0,2.58-2.55v-6.81H261A2.57,2.57,0,0,0,258.37,220.12Z"/></g><g id="Ebene_2-2" data-name="Ebene 2"><path class="cls-5" d="M295.52,189.15h-7a.56.56,0,0,1-.61-.51V174.52c0-.44.2-.63.67-.63h13.72c.73,0,.87.13.86.87v.15c-.22-.13-.37,0-.51.12L296,181.65a1.64,1.64,0,0,0-.5,1.25C295.53,185,295.52,187.07,295.52,189.15Z"/><path class="cls-6" d="M312.13,173.92h6.92c.46,0,.65.22.65.67v13.83a.68.68,0,0,1-.64.72h-13.8c-.59,0-.78-.19-.78-.77v-.29a.29.29,0,0,0,.38-.05c.13-.1.24-.2.36-.31,2-2,4-4,6-6a2.62,2.62,0,0,0,.87-2.05C312.09,177.72,312.13,175.81,312.13,173.92Z"/><path class="cls-7" d="M295.52,189.15c0-2.08,0-4.17,0-6.26a1.66,1.66,0,0,1,.49-1.24l6.62-6.62c.14-.14.3-.25.51-.12v13.24a2.3,2.3,0,0,1-.06.74.86.86,0,0,1-.71.28h-6.81Z"/><path class="cls-7" d="M312.13,173.92c0,1.9,0,3.81,0,5.71a2.62,2.62,0,0,1-.87,2.05c-2,2-4,4-6,6-.12.11-.23.21-.36.31a.29.29,0,0,1-.38,0c0-.09,0-.17,0-.26V174.22a.8.8,0,0,1,.75-.36h6.86A.21.21,0,0,1,312.13,173.92Z"/><path class="cls-5" d="M312.11,173.86h-6.86a.8.8,0,0,0-.75.37,1.92,1.92,0,0,1,.66-1.73q3.16-3.15,6.32-6.31c.14-.15.29-.38.51-.29s.13.35.13.54v7.14A2.62,2.62,0,0,1,312.11,173.86Z"/><path class="cls-6" d="M295.56,189.17h6.81a.88.88,0,0,0,.72-.28,1.56,1.56,0,0,1-.52,1.41l-6.52,6.53a.29.29,0,0,1-.12.1c-.1,0-.18.16-.3.1s-.07-.19-.07-.29Z"/></g><g id="g8"><g id="g10"><path id="path12" class="cls-8" d="M120.77,208.34a4.26,4.26,0,0,1-.34,1.7,4.12,4.12,0,0,1-1,1.31,4.44,4.44,0,0,1-1.45.85,5.48,5.48,0,0,1-1.85.3,8.29,8.29,0,0,1-1.11-.08c-.36-.06-.7-.12-1-.19s-.57-.15-.81-.23l-.49-.18a.63.63,0,0,1-.25-.26.46.46,0,0,1,0-.38l.38-1a.5.5,0,0,1,.27-.28.4.4,0,0,1,.37,0c.08,0,.22.1.4.18l.65.22c.25.07.51.14.79.2a4,4,0,0,0,.82.09,2.34,2.34,0,0,0,1.59-.52,1.79,1.79,0,0,0,.58-1.37,1.43,1.43,0,0,0-.43-1,7.08,7.08,0,0,0-1.07-.88q-.64-.42-1.41-.87a11.84,11.84,0,0,1-1.4-1,5.88,5.88,0,0,1-1.07-1.11,2.32,2.32,0,0,1-.43-1.36,4.06,4.06,0,0,1,.29-1.54,3.56,3.56,0,0,1,.84-1.21A4,4,0,0,1,115,199a5.21,5.21,0,0,1,1.77-.29,7.1,7.1,0,0,1,1,.08c.33.05.64.12.92.19s.51.14.71.21l.39.14a.65.65,0,0,1,.26.26.46.46,0,0,1,0,.38l-.38,1a.59.59,0,0,1-.27.29.41.41,0,0,1-.39,0l-.35-.14-.59-.21c-.23-.07-.46-.14-.7-.19a3.38,3.38,0,0,0-.67-.08,2,2,0,0,0-1.4.43,1.56,1.56,0,0,0-.46,1.17,1.25,1.25,0,0,0,.43.88,7.25,7.25,0,0,0,1.08.84c.44.28.91.57,1.42.87a13.07,13.07,0,0,1,1.41,1,5.91,5.91,0,0,1,1.08,1.17,2.56,2.56,0,0,1,.43,1.43"/><path id="path14" class="cls-8" d="M128.19,212a.49.49,0,0,1-.26.27,5.62,5.62,0,0,1-1.5.24,3.33,3.33,0,0,1-1.27-.22,2.47,2.47,0,0,1-.84-.58,2.11,2.11,0,0,1-.47-.82,3.43,3.43,0,0,1-.14-1v-5.87h-1.2a.45.45,0,0,1-.48-.48v-.86a.48.48,0,0,1,.13-.36.45.45,0,0,1,.35-.14h1.2V200a.48.48,0,0,1,.13-.36.47.47,0,0,1,.35-.14h1.28a.48.48,0,0,1,.5.5v2.22h1.58a.48.48,0,0,1,.5.5v.86a.45.45,0,0,1-.14.35.48.48,0,0,1-.36.13H126v5.66a1.59,1.59,0,0,0,0,.29,1.09,1.09,0,0,0,.1.32l.2.24a.61.61,0,0,0,.35.1,1.4,1.4,0,0,0,.34,0l.24-.09a.36.36,0,0,1,.36,0,.53.53,0,0,1,.26.27l.36.82a.45.45,0,0,1,0,.39"/><path id="path16" class="cls-8" d="M138.37,211.86a.83.83,0,0,1-.31.18l-.48.12-.79.15-.94.13a7.56,7.56,0,0,1-.91.06,5.66,5.66,0,0,1-1.82-.27,4,4,0,0,1-1.36-.75,3.51,3.51,0,0,1-.84-1.12,3.39,3.39,0,0,1-.29-1.39v-6.26a.53.53,0,0,1,.13-.36.48.48,0,0,1,.35-.14h1.28a.45.45,0,0,1,.35.14.48.48,0,0,1,.13.36v6.06a1.9,1.9,0,0,0,.13.67,1.84,1.84,0,0,0,.4.61,2,2,0,0,0,.64.44,2.22,2.22,0,0,0,.9.17,5.5,5.5,0,0,0,.77-.07,4.23,4.23,0,0,0,.57-.13v-7.75a.48.48,0,0,1,.13-.36.45.45,0,0,1,.35-.14H138a.47.47,0,0,1,.35.14.53.53,0,0,1,.13.36v8.83a.44.44,0,0,1-.15.32"/><path id="path18" class="cls-8" d="M147.65,211.76a.87.87,0,0,1-.22.35.49.49,0,0,1-.36.15h-1.59a.51.51,0,0,1-.37-.15.84.84,0,0,1-.21-.35L141,199.41a.36.36,0,0,1,.06-.35.41.41,0,0,1,.34-.15h1.46a.52.52,0,0,1,.38.15.77.77,0,0,1,.22.35l2.86,10.16,2.79-10.16a.77.77,0,0,1,.22-.35.52.52,0,0,1,.38-.15h1.36a.4.4,0,0,1,.33.15.39.39,0,0,1,.05.35l-3.84,12.35"/><path id="path20" class="cls-9" d="M115.77,222.42a1.74,1.74,0,0,1-.14.69,1.55,1.55,0,0,1-.38.55,1.83,1.83,0,0,1-.59.36,2.11,2.11,0,0,1-.77.13,2.77,2.77,0,0,1-.49,0,4.13,4.13,0,0,1-.44-.1l-.36-.12-.21-.09.19-.57.19.09a1.93,1.93,0,0,0,.32.13l.4.11a1.87,1.87,0,0,0,.4,0,1.54,1.54,0,0,0,.5-.08,1.36,1.36,0,0,0,.38-.24,1,1,0,0,0,.31-.76.83.83,0,0,0-.19-.54,2.17,2.17,0,0,0-.49-.46,6.9,6.9,0,0,0-.63-.42c-.23-.14-.44-.29-.64-.44a2.54,2.54,0,0,1-.48-.51,1.05,1.05,0,0,1-.2-.63,1.44,1.44,0,0,1,.13-.62,1.37,1.37,0,0,1,.35-.5,1.66,1.66,0,0,1,.54-.34,1.92,1.92,0,0,1,.69-.12,3.42,3.42,0,0,1,.44,0l.42.1a1.94,1.94,0,0,1,.34.11l.19.08-.19.55-.18-.09a2,2,0,0,0-.32-.11l-.36-.1a2.23,2.23,0,0,0-.34,0,1.11,1.11,0,0,0-.77.25.9.9,0,0,0-.26.69.72.72,0,0,0,.19.49,4.29,4.29,0,0,0,.49.43c.2.14.41.28.64.42a5.93,5.93,0,0,1,.63.45,2.5,2.5,0,0,1,.49.54,1.2,1.2,0,0,1,.2.67"/><path id="path22" class="cls-9" d="M118.8,224.06l-.18,0-.21,0-.2,0a1.17,1.17,0,0,1-.45-.08.76.76,0,0,1-.3-.22.88.88,0,0,1-.16-.32,1.5,1.5,0,0,1,0-.37V220h-.76v-.51h.76v-1.22h.62v1.22h.89V220h-.89v3.06a.86.86,0,0,0,.08.36.31.31,0,0,0,.3.18,1.11,1.11,0,0,0,.28,0,.54.54,0,0,0,.2-.09l.19.52-.12,0"/><path id="path24" class="cls-9" d="M122.55,224v-.63l-.12.17a2,2,0,0,1-.25.25,1.74,1.74,0,0,1-.35.22,1,1,0,0,1-.45.1,1.39,1.39,0,0,1-.63-.13,1.37,1.37,0,0,1-.44-.34,1.62,1.62,0,0,1-.25-.49,2.25,2.25,0,0,1-.08-.58v-3.08h.62v3a1.75,1.75,0,0,0,.05.4,1,1,0,0,0,.15.34.67.67,0,0,0,.26.24.71.71,0,0,0,.39.1.84.84,0,0,0,.41-.11,1.72,1.72,0,0,0,.33-.26l.23-.29.09-.19v-3.26h.62V224h-.58"/><path id="path26" class="cls-9" d="M127.26,220.84l-.1-.22a2.52,2.52,0,0,0-.22-.3,1.63,1.63,0,0,0-.31-.27.77.77,0,0,0-.4-.11.8.8,0,0,0-.46.13,1.27,1.27,0,0,0-.36.37,2.19,2.19,0,0,0-.23.56,2.86,2.86,0,0,0-.08.67,4.06,4.06,0,0,0,.06.67,2.44,2.44,0,0,0,.19.63,1.45,1.45,0,0,0,.35.48.77.77,0,0,0,.53.19.76.76,0,0,0,.38-.11,1.37,1.37,0,0,0,.32-.25l.22-.28.11-.21Zm0,3.2v-.63l-.12.17a1.59,1.59,0,0,1-.26.26,2.33,2.33,0,0,1-.35.22.92.92,0,0,1-.39.09,1.36,1.36,0,0,1-.79-.22,1.81,1.81,0,0,1-.53-.57,2.65,2.65,0,0,1-.3-.8,4.58,4.58,0,0,1-.1-.89,2.44,2.44,0,0,1,.13-.8,2.57,2.57,0,0,1,.34-.73,2.05,2.05,0,0,1,.54-.52,1.36,1.36,0,0,1,.71-.2,1,1,0,0,1,.39.09,1.9,1.9,0,0,1,.33.22l.24.24.13.19v-2.49h.62V224h-.59"/><path id="path28" class="cls-9" d="M129.44,224v-4.51h.62V224Zm.75-5.73a.44.44,0,0,1-.44.44.4.4,0,0,1-.31-.13.43.43,0,0,1,0-.62.4.4,0,0,1,.31-.13.44.44,0,0,1,.44.44"/><path id="path30" class="cls-9" d="M134,221a2,2,0,0,0-.18-.5,1.26,1.26,0,0,0-.32-.4.75.75,0,0,0-.94,0,1.12,1.12,0,0,0-.32.39,2,2,0,0,0-.19.5,1.76,1.76,0,0,0-.07.49h2.07A2.09,2.09,0,0,0,134,221Zm-2,.92a2.34,2.34,0,0,0,.07.57,2,2,0,0,0,.21.57,1.45,1.45,0,0,0,.37.44.84.84,0,0,0,.54.18,2.33,2.33,0,0,0,.37,0,2.75,2.75,0,0,0,.34-.1,1.49,1.49,0,0,0,.28-.11l.18-.1.19.52-.18.08-.32.11-.41.09a2.45,2.45,0,0,1-.48,0,1.56,1.56,0,0,1-.87-.23,1.61,1.61,0,0,1-.54-.59,2.63,2.63,0,0,1-.29-.8,5.1,5.1,0,0,1-.08-.86,2.94,2.94,0,0,1,.11-.73,2.8,2.8,0,0,1,.32-.73,2,2,0,0,1,.52-.56,1.21,1.21,0,0,1,.72-.23,1.38,1.38,0,0,1,.78.22,1.76,1.76,0,0,1,.5.55,2.46,2.46,0,0,1,.28.73,3.33,3.33,0,0,1,.09.75v.23H132"/><path id="path32" class="cls-9" d="M137.86,220.13l-.16-.08-.19-.05a.67.67,0,0,0-.34.1,1.37,1.37,0,0,0-.29.24l-.2.27-.1.19V224H136v-4.51h.6v.63l.09-.16.21-.25a2,2,0,0,1,.32-.23.93.93,0,0,1,.42-.1l.25.05.2.09-.19.57"/><path id="path34" class="cls-9" d="M141.42,221a2,2,0,0,0-.18-.5,1.26,1.26,0,0,0-.32-.4.71.71,0,0,0-.47-.17.68.68,0,0,0-.46.16,1.27,1.27,0,0,0-.33.39,2,2,0,0,0-.19.5,2.22,2.22,0,0,0-.07.49h2.08a2.16,2.16,0,0,0-.06-.47Zm-2,.92a3,3,0,0,0,.07.57,2.78,2.78,0,0,0,.21.57,1.45,1.45,0,0,0,.37.44.84.84,0,0,0,.54.18,2.21,2.21,0,0,0,.37,0,2.31,2.31,0,0,0,.34-.1,1.49,1.49,0,0,0,.28-.11l.19-.1.19.52-.19.08-.31.11-.42.09a2.45,2.45,0,0,1-.48,0,1.56,1.56,0,0,1-.87-.23,1.7,1.7,0,0,1-.54-.59,2.38,2.38,0,0,1-.28-.8,4.24,4.24,0,0,1-.08-.86,2.89,2.89,0,0,1,.1-.73,3.17,3.17,0,0,1,.32-.73,2.14,2.14,0,0,1,.52-.56,1.22,1.22,0,0,1,.73-.23,1.37,1.37,0,0,1,.77.22,1.68,1.68,0,0,1,.51.55,2.45,2.45,0,0,1,.27.73,3.33,3.33,0,0,1,.09.75v.23h-2.7"/><path id="path36" class="cls-9" d="M145.93,224v-3a1.73,1.73,0,0,0-.05-.38,1.42,1.42,0,0,0-.17-.35.81.81,0,0,0-.27-.25.73.73,0,0,0-.39-.1.85.85,0,0,0-.4.1,1.36,1.36,0,0,0-.34.23l-.24.29-.1.23V224h-.62v-4.51h.59v.63l.12-.16a1,1,0,0,1,.26-.25,1.66,1.66,0,0,1,.37-.23,1.05,1.05,0,0,1,.44-.1,1.38,1.38,0,0,1,.62.14,1.28,1.28,0,0,1,.45.34,1.44,1.44,0,0,1,.26.49,1.76,1.76,0,0,1,.09.55V224h-.62"/><path id="path38" class="cls-9" d="M150.65,220.84l-.1-.22a1.65,1.65,0,0,0-.21-.3,1.69,1.69,0,0,0-.32-.27.77.77,0,0,0-.39-.11.83.83,0,0,0-.47.13,1.27,1.27,0,0,0-.36.37,2.18,2.18,0,0,0-.22.56,2.41,2.41,0,0,0-.09.67,4.06,4.06,0,0,0,.06.67,2.45,2.45,0,0,0,.2.63,1.33,1.33,0,0,0,.35.48.78.78,0,0,0,.91.08,1.61,1.61,0,0,0,.32-.25l.22-.28.1-.21Zm0,3.2v-.63l-.13.17a2,2,0,0,1-.25.26c-.11.08-.23.15-.35.22a1,1,0,0,1-.4.09,1.36,1.36,0,0,1-.79-.22,1.93,1.93,0,0,1-.53-.57,3.31,3.31,0,0,1-.3-.8,4.56,4.56,0,0,1-.09-.89,2.72,2.72,0,0,1,.12-.8,2.57,2.57,0,0,1,.34-.73,2.09,2.09,0,0,1,.55-.52,1.32,1.32,0,0,1,.7-.2,1.11,1.11,0,0,1,.4.09,1.51,1.51,0,0,1,.32.22l.24.24.13.19v-2.49h.62V224h-.58"/><path id="path40" class="cls-9" d="M155.25,221a2,2,0,0,0-.18-.5,1.41,1.41,0,0,0-.32-.4.72.72,0,0,0-.48-.17.7.7,0,0,0-.46.16,1.12,1.12,0,0,0-.32.39,2,2,0,0,0-.19.5,1.76,1.76,0,0,0-.07.49h2.07A2.9,2.9,0,0,0,155.25,221Zm-2,.92a2.34,2.34,0,0,0,.07.57,2,2,0,0,0,.21.57,1.45,1.45,0,0,0,.37.44.84.84,0,0,0,.54.18,2.33,2.33,0,0,0,.37,0,2.75,2.75,0,0,0,.34-.1,1.49,1.49,0,0,0,.28-.11l.18-.1.19.52-.18.08-.32.11-.41.09a2.45,2.45,0,0,1-.48,0,1.56,1.56,0,0,1-.87-.23,1.73,1.73,0,0,1-.55-.59,2.91,2.91,0,0,1-.28-.8,5.1,5.1,0,0,1-.08-.86,2.94,2.94,0,0,1,.11-.73,2.8,2.8,0,0,1,.32-.73,2,2,0,0,1,.52-.56,1.21,1.21,0,0,1,.72-.23,1.32,1.32,0,0,1,.77.22,1.58,1.58,0,0,1,.51.55,2.46,2.46,0,0,1,.28.73,3.33,3.33,0,0,1,.09.75v.23h-2.7"/><path id="path42" class="cls-9" d="M159.76,224v-3a1.31,1.31,0,0,0-.06-.38,1.39,1.39,0,0,0-.16-.35,1,1,0,0,0-.28-.25.7.7,0,0,0-.38-.1.82.82,0,0,0-.4.1,1.36,1.36,0,0,0-.34.23l-.24.29-.11.23V224h-.62v-4.51h.6v.63l.11-.16a1.55,1.55,0,0,1,.26-.25,1.93,1.93,0,0,1,.37-.23,1.13,1.13,0,0,1,.44-.1,1.39,1.39,0,0,1,.63.14,1.16,1.16,0,0,1,.44.34,1.47,1.47,0,0,1,.27.49,1.76,1.76,0,0,1,.09.55V224h-.62"/><path id="path44" class="cls-9" d="M161.8,221.59V221h1.89v.56H161.8"/><path id="path46" class="cls-9" d="M166.74,224h-.68l-1.87-6h.69l1.55,5.22,1.51-5.22h.66l-1.86,6"/><path id="path48" class="cls-9" d="M171.68,221a2,2,0,0,0-.18-.5,1.26,1.26,0,0,0-.32-.4.75.75,0,0,0-.94,0,1.12,1.12,0,0,0-.32.39,2,2,0,0,0-.19.5,1.76,1.76,0,0,0-.07.49h2.08A2.16,2.16,0,0,0,171.68,221Zm-2,.92a2.34,2.34,0,0,0,.07.57,2,2,0,0,0,.21.57,1.45,1.45,0,0,0,.37.44.84.84,0,0,0,.54.18,2.33,2.33,0,0,0,.37,0,2.75,2.75,0,0,0,.34-.1,1.49,1.49,0,0,0,.28-.11l.19-.1.18.52-.18.08-.32.11-.41.09a2.45,2.45,0,0,1-.48,0,1.56,1.56,0,0,1-.87-.23,1.61,1.61,0,0,1-.54-.59,2.63,2.63,0,0,1-.29-.8,5.1,5.1,0,0,1-.08-.86,2.94,2.94,0,0,1,.11-.73,2.8,2.8,0,0,1,.32-.73,2,2,0,0,1,.52-.56,1.21,1.21,0,0,1,.72-.23,1.38,1.38,0,0,1,.78.22,1.76,1.76,0,0,1,.5.55,2.46,2.46,0,0,1,.28.73,3.33,3.33,0,0,1,.09.75v.23h-2.7"/><path id="path50" class="cls-9" d="M175.5,220.13l-.16-.08-.19-.05a.67.67,0,0,0-.34.1,1.37,1.37,0,0,0-.29.24l-.2.27-.1.19V224h-.62v-4.51h.6v.63l.09-.16.21-.25a2,2,0,0,1,.32-.23.93.93,0,0,1,.42-.1l.26.05.19.09-.19.57"/><path id="path52" class="cls-9" d="M178.57,224.06l-.18,0-.21,0-.2,0a1.17,1.17,0,0,1-.45-.08.69.69,0,0,1-.3-.22.74.74,0,0,1-.16-.32,1.14,1.14,0,0,1,0-.37V220h-.76v-.51H177v-1.22h.62v1.22h.89V220h-.89v3.06a.86.86,0,0,0,.08.36.31.31,0,0,0,.29.18,1,1,0,0,0,.28,0l.21-.09.19.52-.12,0"/><path id="path54" class="cls-9" d="M181.67,220.13l-.16-.08-.19-.05a.7.7,0,0,0-.34.1,1.68,1.68,0,0,0-.29.24l-.2.27-.09.19V224h-.62v-4.51h.59v.63l.09-.16.21-.25a2.62,2.62,0,0,1,.32-.23,1,1,0,0,1,.42-.1l.26.05.19.09-.19.57"/><path id="path56" class="cls-9" d="M185.23,221a2,2,0,0,0-.18-.5,1.26,1.26,0,0,0-.32-.4.71.71,0,0,0-.47-.17.68.68,0,0,0-.46.16,1.12,1.12,0,0,0-.32.39,2,2,0,0,0-.2.5,2.18,2.18,0,0,0-.06.49h2.07A2.16,2.16,0,0,0,185.23,221Zm-2,.92a2.91,2.91,0,0,0,.06.57,2.32,2.32,0,0,0,.22.57,1.29,1.29,0,0,0,.36.44.84.84,0,0,0,.54.18,2.45,2.45,0,0,0,.38,0l.34-.1a1.69,1.69,0,0,0,.27-.11l.19-.1.19.52-.19.08-.31.11-.41.09a2.59,2.59,0,0,1-.48,0,1.52,1.52,0,0,1-.87-.23,1.73,1.73,0,0,1-.55-.59,2.62,2.62,0,0,1-.28-.8,4.24,4.24,0,0,1-.08-.86,2.54,2.54,0,0,1,.11-.73,2.77,2.77,0,0,1,.31-.73,2.14,2.14,0,0,1,.52-.56,1.22,1.22,0,0,1,.73-.23,1.37,1.37,0,0,1,.77.22,1.68,1.68,0,0,1,.51.55,2.46,2.46,0,0,1,.28.73,4,4,0,0,1,.08.75v.23H183.2"/><path id="path58" class="cls-9" d="M189,224.06l-.18,0-.21,0-.2,0a1.17,1.17,0,0,1-.45-.08.76.76,0,0,1-.3-.22.74.74,0,0,1-.16-.32,1.5,1.5,0,0,1-.05-.37V220h-.76v-.51h.76v-1.22H188v1.22h.89V220H188v3.06a.86.86,0,0,0,.08.36.31.31,0,0,0,.3.18,1.11,1.11,0,0,0,.28,0,.54.54,0,0,0,.2-.09l.19.52-.12,0"/><path id="path60" class="cls-9" d="M192.72,224v-.63l-.12.17a2,2,0,0,1-.25.25,1.74,1.74,0,0,1-.35.22,1,1,0,0,1-.45.1,1.33,1.33,0,0,1-1.07-.47,1.42,1.42,0,0,1-.25-.49,2.25,2.25,0,0,1-.08-.58v-3.08h.62v3a1.75,1.75,0,0,0,0,.4,1,1,0,0,0,.15.34.67.67,0,0,0,.26.24.71.71,0,0,0,.39.1.84.84,0,0,0,.41-.11,1.72,1.72,0,0,0,.33-.26l.23-.29.09-.19v-3.26h.62V224h-.58"/><path id="path62" class="cls-9" d="M197.45,224v-3a1.28,1.28,0,0,0,0-.38,1.42,1.42,0,0,0-.17-.35A.81.81,0,0,0,197,220a.7.7,0,0,0-.38-.1.79.79,0,0,0-.4.1,1.41,1.41,0,0,0-.35.23l-.24.29-.1.23V224h-.62v-4.51h.59v.63l.12-.16a1,1,0,0,1,.26-.25,1.93,1.93,0,0,1,.37-.23,1.05,1.05,0,0,1,.44-.1,1.32,1.32,0,0,1,.62.14,1.29,1.29,0,0,1,.71.83,1.52,1.52,0,0,1,.1.55V224h-.63"/><path id="path64" class="cls-9" d="M201.85,221a1.25,1.25,0,0,0-.25-.8.83.83,0,0,0-.68-.3.82.82,0,0,0-.68.34,1,1,0,0,0-.18.35,1.4,1.4,0,0,0-.06.41,1.71,1.71,0,0,0,.05.46,1,1,0,0,0,.15.38.8.8,0,0,0,.29.26.91.91,0,0,0,.43.09.75.75,0,0,0,.43-.11.83.83,0,0,0,.28-.28,1.3,1.3,0,0,0,.17-.38A2,2,0,0,0,201.85,221Zm.32,3.8a.68.68,0,0,0-.36-.58,1.61,1.61,0,0,0-.89-.23,1.54,1.54,0,0,0-.43.06,1.46,1.46,0,0,0-.38.17,1.28,1.28,0,0,0-.26.26.63.63,0,0,0-.1.32.68.68,0,0,0,.09.33,1.23,1.23,0,0,0,.24.28,1.17,1.17,0,0,0,.37.19,1.41,1.41,0,0,0,.47.07,1.35,1.35,0,0,0,.5-.08,1.42,1.42,0,0,0,.39-.19,1,1,0,0,0,.27-.28.65.65,0,0,0,.09-.32Zm-.06-4.81.1.14.12.22a2,2,0,0,1,.1.29,1.42,1.42,0,0,1,0,.36,1.69,1.69,0,0,1-.12.64,1.87,1.87,0,0,1-.32.53,1.46,1.46,0,0,1-.5.35,1.44,1.44,0,0,1-.62.13l-.21,0-.21.09-.17.13-.06.16a.38.38,0,0,0,.18.32.84.84,0,0,0,.47.12,2.76,2.76,0,0,1,.71.09,2,2,0,0,1,.6.25,1.27,1.27,0,0,1,.42.41,1,1,0,0,1,.15.54.88.88,0,0,1-.14.47,1.37,1.37,0,0,1-.38.43,2,2,0,0,1-.59.32,2.35,2.35,0,0,1-.77.12,2.63,2.63,0,0,1-.7-.1,2.15,2.15,0,0,1-.57-.27,1.33,1.33,0,0,1-.36-.39,1,1,0,0,1-.14-.5.81.81,0,0,1,.14-.46,1.19,1.19,0,0,1,.33-.34,1.64,1.64,0,0,1,.39-.21,1.45,1.45,0,0,1,.32-.09l-.17,0-.21-.11-.18-.19a.49.49,0,0,1-.08-.28l.07-.21.17-.18.21-.14.17-.07a1.62,1.62,0,0,1-.29-.15,1.14,1.14,0,0,1-.31-.28,1.66,1.66,0,0,1-.24-.46,1.83,1.83,0,0,1-.1-.66,1.46,1.46,0,0,1,.12-.57,1.61,1.61,0,0,1,.83-.85,1.36,1.36,0,0,1,.6-.14,2.34,2.34,0,0,1,.39,0l.27.07h1.27V220h-.74"/><path id="path66" class="cls-9" d="M117.4,233.94V229l-1.4,4.94h-.9L113.7,229v4.94h-1v-6h1.59l1.28,4.52,1.24-4.52h1.59v6h-1"/><path id="path68" class="cls-9" d="M122.67,231.57a2.37,2.37,0,0,0,0-.43,2.6,2.6,0,0,0-.16-.47,1.16,1.16,0,0,0-.29-.37.68.68,0,0,0-.45-.15.73.73,0,0,0-.45.14,1.09,1.09,0,0,0-.28.36,1.48,1.48,0,0,0-.16.46,2.6,2.6,0,0,0,0,.46,3.25,3.25,0,0,0,0,.51,2,2,0,0,0,.14.54,1.24,1.24,0,0,0,.28.42.64.64,0,0,0,.47.18.68.68,0,0,0,.47-.17,1.13,1.13,0,0,0,.29-.42,1.8,1.8,0,0,0,.14-.53A3.49,3.49,0,0,0,122.67,231.57Zm1,0a3.32,3.32,0,0,1-.1.77,2.59,2.59,0,0,1-.32.81,2.06,2.06,0,0,1-.61.64,1.64,1.64,0,0,1-1,.26,1.71,1.71,0,0,1-1-.26,2,2,0,0,1-.6-.63,2.66,2.66,0,0,1-.31-.81,3.89,3.89,0,0,1-.09-.78,2.52,2.52,0,0,1,.12-.73,2.19,2.19,0,0,1,.35-.72,2,2,0,0,1,.62-.57,1.67,1.67,0,0,1,.88-.23,1.78,1.78,0,0,1,.93.23,2,2,0,0,1,.61.57,2.28,2.28,0,0,1,.33.73,2.8,2.8,0,0,1,.11.72"/><path id="path70" class="cls-9" d="M127.87,232.59a1.32,1.32,0,0,1-.47,1,1.52,1.52,0,0,1-.52.32,1.81,1.81,0,0,1-.67.12,4.58,4.58,0,0,1-.55,0l-.46-.1a2.16,2.16,0,0,1-.36-.12l-.25-.11.33-.78.19.1.32.13.38.11a1.89,1.89,0,0,0,.39,0,.78.78,0,0,0,.46-.14.47.47,0,0,0,.19-.39.36.36,0,0,0-.15-.27,2.77,2.77,0,0,0-.4-.27,5.8,5.8,0,0,0-.51-.29c-.18-.1-.35-.21-.51-.32a2,2,0,0,1-.39-.38.75.75,0,0,1-.16-.45,1.29,1.29,0,0,1,.13-.58,1.41,1.41,0,0,1,.34-.46,1.72,1.72,0,0,1,.53-.31,1.91,1.91,0,0,1,.64-.11,2,2,0,0,1,.42,0,2.22,2.22,0,0,1,.37.09,2.09,2.09,0,0,1,.3.11l.19.1-.33.76-.14-.1-.24-.11a2,2,0,0,0-.29-.11,1,1,0,0,0-.29,0,.63.63,0,0,0-.48.17.57.57,0,0,0-.17.42.39.39,0,0,0,.16.27,2.77,2.77,0,0,0,.4.27c.16.1.33.19.52.29s.36.21.52.32a2.33,2.33,0,0,1,.4.36.72.72,0,0,1,.16.43"/><path id="path72" class="cls-9" d="M131.82,231.57a2.22,2.22,0,0,0-.06-.51,1.61,1.61,0,0,0-.17-.45,1,1,0,0,0-.3-.33.62.62,0,0,0-.4-.13l-.29.09-.26.21-.2.25-.09.21v2.22l.12,0,.17,0,.2,0h.17a.72.72,0,0,0,.47-.16,1.23,1.23,0,0,0,.35-.4,1.91,1.91,0,0,0,.22-.53A2.26,2.26,0,0,0,131.82,231.57Zm1,0a3,3,0,0,1-.14,1,2.38,2.38,0,0,1-.42.79,2,2,0,0,1-.67.54,2.06,2.06,0,0,1-.91.2l-.38,0-.45-.05-.45-.08-.39-.09v-6.23h1V230l.11-.18.23-.24a1.48,1.48,0,0,1,.32-.21.8.8,0,0,1,.36-.09,1.47,1.47,0,0,1,.83.22,1.67,1.67,0,0,1,.55.54,2.47,2.47,0,0,1,.31.73,3.49,3.49,0,0,1,.09.76"/><path id="path74" class="cls-9" d="M136.35,231.75l-.59.14a1.63,1.63,0,0,0-.37.13,1.4,1.4,0,0,0-.32.18l-.23.24-.08.27a.51.51,0,0,0,.19.43.66.66,0,0,0,.43.15.67.67,0,0,0,.33-.08.91.91,0,0,0,.3-.19l.22-.25.12-.25Zm0,2.19v-.61l-.13.18a1.64,1.64,0,0,1-.27.24,1.55,1.55,0,0,1-.36.21,1.08,1.08,0,0,1-.44.09,1.5,1.5,0,0,1-1.05-.35,1.21,1.21,0,0,1-.38-.92,1,1,0,0,1,.17-.56,1.7,1.7,0,0,1,.43-.46,2.59,2.59,0,0,1,.58-.34,3.83,3.83,0,0,1,.63-.2l.78-.16v-.17a.87.87,0,0,0-.21-.57.78.78,0,0,0-.62-.25,1.05,1.05,0,0,0-.33.06l-.35.13-.29.15-.17.1-.33-.74.2-.1.38-.15.51-.14a2.62,2.62,0,0,1,.57-.06,1.65,1.65,0,0,1,1.17.4,1.42,1.42,0,0,1,.44,1.1v3.12h-.93"/><path id="path76" class="cls-9" d="M141.67,233.78l-.33.12a3.16,3.16,0,0,1-.42.11,3.73,3.73,0,0,1-.48,0,1.65,1.65,0,0,1-1.51-.84,2.37,2.37,0,0,1-.31-.79,4.32,4.32,0,0,1-.09-.85,2.39,2.39,0,0,1,.13-.77,2.64,2.64,0,0,1,.37-.73,1.91,1.91,0,0,1,.62-.54,1.64,1.64,0,0,1,.84-.21,2.06,2.06,0,0,1,.44,0l.39.1.28.12.15.08-.33.85-.13-.1-.23-.11-.29-.11-.28,0a.69.69,0,0,0-.39.12,1,1,0,0,0-.29.33,1.58,1.58,0,0,0-.18.46,1.79,1.79,0,0,0-.07.51,3,3,0,0,0,.06.59,1.83,1.83,0,0,0,.17.53,1.26,1.26,0,0,0,.3.38.67.67,0,0,0,.44.15,1.06,1.06,0,0,0,.31-.05,2.11,2.11,0,0,0,.3-.1l.23-.13.15-.12.34.86-.19.1"/><path id="path78" class="cls-9" d="M145.51,233.94V231a1,1,0,0,0,0-.29,1,1,0,0,0-.12-.28l-.22-.2a.6.6,0,0,0-.3-.07.81.81,0,0,0-.34.08,1.46,1.46,0,0,0-.28.21l-.19.25-.09.22v3h-1v-6.37h1V230l.12-.18.23-.24a1.85,1.85,0,0,1,.33-.21,1,1,0,0,1,.41-.09,1.51,1.51,0,0,1,.7.15,1.36,1.36,0,0,1,.47.38,1.51,1.51,0,0,1,.25.51,2.14,2.14,0,0,1,.08.54v3h-1"/><path id="path80" class="cls-10" d="M100,165.43H78.12a.89.89,0,0,1-.89-.89v-1.1h0c0,.24.1.36.26.36a1.06,1.06,0,0,0,.63-.36l10.07-10.06a3.07,3.07,0,0,0,.89-1.78v-9.85H100a.88.88,0,0,1,.89.88v21.91a.89.89,0,0,1-.89.89"/><path id="path82" class="cls-8" d="M88.19,129.69,78.12,139.76a3.05,3.05,0,0,0-.89,1.77v21.91c0,.49.4.49.89,0l10.07-10.06a3.07,3.07,0,0,0,.89-1.78V129.69c0-.49-.4-.49-.89,0"/><path id="path84" class="cls-11" d="M77.49,163.8c-.16,0-.26-.12-.26-.36V142.63a.88.88,0,0,1,.89-.88h11v9.85a3.07,3.07,0,0,1-.89,1.78L78.12,163.44a1.06,1.06,0,0,1-.63.36"/><path id="path86" class="cls-10" d="M63.59,177.72c-.16,0-.26-.12-.26-.37V165.43h11a.89.89,0,0,0,.89-.89v1a3.05,3.05,0,0,1-.89,1.77L64.21,177.35a1,1,0,0,1-.62.37"/><path id="path88" class="cls-8" d="M74.28,141.75H52.37a.88.88,0,0,0-.89.88v21.91a.89.89,0,0,0,.89.89H74.28a.89.89,0,0,0,.89-.89V142.63a.88.88,0,0,0-.89-.88"/><path id="path90" class="cls-11" d="M74.28,165.43h-11v-10a3.08,3.08,0,0,1,.88-1.78l10.07-10.06a1,1,0,0,1,.63-.36c.16,0,.26.12.26.36v20.93h0a.89.89,0,0,1-.89.89"/><path id="path92" class="cls-9" d="M115.66,185.38a1,1,0,0,0-.36-.83,1.36,1.36,0,0,0-.92-.3h-1v2.35h1a1.39,1.39,0,0,0,.5-.09,1.33,1.33,0,0,0,.41-.25,1.19,1.19,0,0,0,.27-.39A1.13,1.13,0,0,0,115.66,185.38Zm-.14-2.72a.91.91,0,0,0-.32-.73,1.21,1.21,0,0,0-.82-.27h-1v2.08h1a1.26,1.26,0,0,0,.43-.08,1.43,1.43,0,0,0,.37-.23,1.28,1.28,0,0,0,.26-.34A1,1,0,0,0,115.52,182.66Zm.82,2.74a1.57,1.57,0,0,1-.16.73,1.47,1.47,0,0,1-.44.55,2.29,2.29,0,0,1-.66.34,3,3,0,0,1-.81.11h-1.53v-6h1.64a2.54,2.54,0,0,1,.68.09,1.82,1.82,0,0,1,.58.27,1.28,1.28,0,0,1,.39.47,1.41,1.41,0,0,1,.15.67,1,1,0,0,1-.1.46,1.91,1.91,0,0,1-.28.4,1.43,1.43,0,0,1-.35.3,1.34,1.34,0,0,1-.37.17,1.84,1.84,0,0,1,.48.17,1.49,1.49,0,0,1,.4.31,1.44,1.44,0,0,1,.28.44,1.3,1.3,0,0,1,.1.52"/><path id="path94" class="cls-9" d="M119.75,184.79,119,185a2.75,2.75,0,0,0-.4.14,1.79,1.79,0,0,0-.39.21,1.66,1.66,0,0,0-.3.29.66.66,0,0,0-.11.35.75.75,0,0,0,.23.6.8.8,0,0,0,.56.22.93.93,0,0,0,.4-.09,1.38,1.38,0,0,0,.35-.22,1.43,1.43,0,0,0,.27-.28l.15-.28Zm0,2.34v-.64l-.14.18a1.1,1.1,0,0,1-.27.25,2.5,2.5,0,0,1-.39.23,1.27,1.27,0,0,1-.47.09,1.43,1.43,0,0,1-1-.33,1.17,1.17,0,0,1-.38-.94.92.92,0,0,1,.16-.53,1.68,1.68,0,0,1,.42-.42,3.06,3.06,0,0,1,.56-.31,3.71,3.71,0,0,1,.57-.18l.88-.2V184a1.15,1.15,0,0,0-.24-.74.87.87,0,0,0-.72-.3,1.39,1.39,0,0,0-.33,0l-.34.13-.29.13-.17.1-.19-.49.17-.09.33-.14a3.37,3.37,0,0,1,.41-.12,1.89,1.89,0,0,1,.47-.06,1.52,1.52,0,0,1,1.09.39,1.43,1.43,0,0,1,.41,1.12v3.12h-.56"/><path id="path96" class="cls-9" d="M124.41,183.93l-.1-.22a2.58,2.58,0,0,0-.22-.31,1.43,1.43,0,0,0-.32-.27.77.77,0,0,0-.39-.11.85.85,0,0,0-.47.13,1.2,1.2,0,0,0-.36.38,2,2,0,0,0-.22.55,2.43,2.43,0,0,0-.09.68,3.85,3.85,0,0,0,.06.66,2.4,2.4,0,0,0,.2.64,1.42,1.42,0,0,0,.35.48.8.8,0,0,0,.53.19.76.76,0,0,0,.38-.11,1.61,1.61,0,0,0,.32-.25l.22-.29.11-.21Zm0,3.2v-.64l-.13.18a1.18,1.18,0,0,1-.25.25,2.12,2.12,0,0,1-.35.23.92.92,0,0,1-.39.09,1.37,1.37,0,0,1-.8-.22,1.85,1.85,0,0,1-.53-.58,2.46,2.46,0,0,1-.3-.8,4.38,4.38,0,0,1-.09-.88,2.84,2.84,0,0,1,.12-.81,2.57,2.57,0,0,1,.34-.73,1.94,1.94,0,0,1,.55-.52,1.33,1.33,0,0,1,.71-.2.89.89,0,0,1,.39.09,1.9,1.9,0,0,1,.33.22l.24.24.13.19v-2.49H125v6.38h-.59"/><path id="path98" class="cls-9" d="M128.81,184.06a2,2,0,0,0-.18-.5,1.26,1.26,0,0,0-.32-.4.71.71,0,0,0-.47-.17.68.68,0,0,0-.46.16,1.14,1.14,0,0,0-.33.39,2.15,2.15,0,0,0-.19.5,1.81,1.81,0,0,0-.07.49h2.08A2.23,2.23,0,0,0,128.81,184.06Zm-2,.92a3.15,3.15,0,0,0,.07.58,2.3,2.3,0,0,0,.21.57,1.45,1.45,0,0,0,.37.44.84.84,0,0,0,.54.18,2.21,2.21,0,0,0,.37,0l.35-.1a1.69,1.69,0,0,0,.27-.11l.19-.1.19.52-.19.08-.31.11-.41.09a2.63,2.63,0,0,1-.49,0,1.56,1.56,0,0,1-.87-.23,1.61,1.61,0,0,1-.54-.59,2.48,2.48,0,0,1-.29-.8,5.19,5.19,0,0,1-.08-.86,2.81,2.81,0,0,1,.11-.73,2.72,2.72,0,0,1,.32-.74,2,2,0,0,1,.52-.56,1.22,1.22,0,0,1,.73-.23,1.37,1.37,0,0,1,.77.22,1.68,1.68,0,0,1,.51.55,2.46,2.46,0,0,1,.28.73,4,4,0,0,1,.08.76V185h-2.7"/><path id="path100" class="cls-9" d="M133.38,187.13v-3a1.28,1.28,0,0,0,0-.38,1.62,1.62,0,0,0-.17-.35.81.81,0,0,0-.27-.25.73.73,0,0,0-.39-.1.82.82,0,0,0-.4.1,1.36,1.36,0,0,0-.34.23l-.24.29-.11.23v3.26h-.62v-4.52h.59v.63l.12-.16a1.55,1.55,0,0,1,.26-.25,2.3,2.3,0,0,1,.37-.23,1.13,1.13,0,0,1,.44-.1,1.54,1.54,0,0,1,.63.13,1.43,1.43,0,0,1,.45.35,1.47,1.47,0,0,1,.27.49,1.77,1.77,0,0,1,.09.56v3.1h-.63"/><path id="path102" class="cls-9" d="M135.37,184.68v-.56h1.89v.56h-1.89"/><path id="path104" class="cls-9" d="M143.53,187.13h-.73L141.51,182l-1.28,5.18h-.74l-1.39-6h.7l1.09,5.18,1.28-5.18h.72l1.29,5.18,1.08-5.18h.66l-1.39,6"/><path id="path106" class="cls-9" d="M148.69,181.39a.4.4,0,0,1-.12.29.43.43,0,0,1-.6,0,.39.39,0,0,1-.11-.29.4.4,0,0,1,.11-.3.42.42,0,0,1,.72.3Zm-1.54,0a.43.43,0,0,1-.73.29.44.44,0,0,1-.11-.29.44.44,0,0,1,.11-.3.44.44,0,0,1,.6,0A.42.42,0,0,1,147.15,181.39Zm1.34,5.74v-.64l-.12.17a2,2,0,0,1-.25.26,1.57,1.57,0,0,1-.36.22.92.92,0,0,1-.44.1,1.41,1.41,0,0,1-.64-.13,1.48,1.48,0,0,1-.44-.34,1.62,1.62,0,0,1-.25-.49,2.25,2.25,0,0,1-.08-.58v-3.09h.62v3a1.83,1.83,0,0,0,.05.4,1.17,1.17,0,0,0,.15.34.75.75,0,0,0,.26.24.78.78,0,0,0,.8,0,1.76,1.76,0,0,0,.34-.25l.23-.29.09-.2v-3.26h.62v4.52h-.58"/><path id="path108" class="cls-9" d="M152.45,183.21l-.16-.08-.19,0a.67.67,0,0,0-.34.1,1.37,1.37,0,0,0-.29.24l-.2.27-.1.19v3.25h-.62v-4.52h.59v.63l.1-.15.21-.26a2,2,0,0,1,.32-.23.93.93,0,0,1,.42-.1l.25.05.2.09-.19.57"/><path id="path110" class="cls-9" d="M155.6,187.15l-.18,0-.21,0-.2,0a1.22,1.22,0,0,1-.46-.08.72.72,0,0,1-.29-.22.76.76,0,0,1-.17-.32,1.5,1.5,0,0,1-.05-.37v-3.13h-.75v-.51H154v-1.22h.63v1.22h.89v.51h-.89v3.07a.78.78,0,0,0,.08.36.3.3,0,0,0,.29.18,1,1,0,0,0,.28,0,1.16,1.16,0,0,0,.21-.09l.19.52-.12,0"/><path id="path112" class="cls-9" d="M158.67,187.15l-.18,0-.21,0-.2,0a1.26,1.26,0,0,1-.46-.08.72.72,0,0,1-.29-.22.9.9,0,0,1-.17-.32,1.5,1.5,0,0,1,0-.37v-3.13h-.76v-.51h.76v-1.22h.62v1.22h.89v.51h-.89v3.07a.78.78,0,0,0,.08.36.3.3,0,0,0,.29.18,1,1,0,0,0,.28,0,.9.9,0,0,0,.21-.09l.19.52-.12,0"/><path id="path114" class="cls-9" d="M162.29,184.06a2,2,0,0,0-.18-.5,1.26,1.26,0,0,0-.32-.4.72.72,0,0,0-.48-.17.7.7,0,0,0-.46.16,1.12,1.12,0,0,0-.32.39,2.18,2.18,0,0,0-.2.5,2.25,2.25,0,0,0-.06.49h2.08a2.23,2.23,0,0,0-.06-.47Zm-2,.92a2.47,2.47,0,0,0,.07.58,2,2,0,0,0,.21.57,1.32,1.32,0,0,0,.37.44.84.84,0,0,0,.54.18,2.33,2.33,0,0,0,.37,0,2.75,2.75,0,0,0,.34-.1,1.49,1.49,0,0,0,.28-.11l.19-.1.19.52-.19.08-.31.11-.42.09a2.45,2.45,0,0,1-.48,0,1.56,1.56,0,0,1-.87-.23,1.73,1.73,0,0,1-.55-.59,2.72,2.72,0,0,1-.28-.8,4.3,4.3,0,0,1-.08-.86,3,3,0,0,1,.43-1.47,2,2,0,0,1,.52-.56,1.19,1.19,0,0,1,.72-.23,1.38,1.38,0,0,1,.78.22,1.68,1.68,0,0,1,.51.55,2.45,2.45,0,0,1,.27.73,3.35,3.35,0,0,1,.09.76V185h-2.7"/><path id="path116" class="cls-9" d="M169.18,187.13v-3a1.67,1.67,0,0,0,0-.39,1.22,1.22,0,0,0-.14-.35.78.78,0,0,0-.26-.25.8.8,0,0,0-.39-.09,1.07,1.07,0,0,0-.41.08,1.27,1.27,0,0,0-.32.21l-.21.26-.09.23v3.33h-.62v-3a2.45,2.45,0,0,0,0-.39,1,1,0,0,0-.14-.35.75.75,0,0,0-.25-.25.82.82,0,0,0-.4-.09.77.77,0,0,0-.4.1,1.24,1.24,0,0,0-.32.23l-.22.29-.1.23v3.26h-.62v-4.52h.59v.63l.12-.15.22-.26a1.93,1.93,0,0,1,.35-.23,1.06,1.06,0,0,1,.45-.1,1.33,1.33,0,0,1,.92.31l.22.24.1.19.12-.16a1.25,1.25,0,0,1,.26-.25,1.53,1.53,0,0,1,.38-.23,1.26,1.26,0,0,1,.49-.1,1.6,1.6,0,0,1,.65.13,1.25,1.25,0,0,1,.43.35,1.58,1.58,0,0,1,.23.49,2.6,2.6,0,0,1,.06.56v3.1h-.62"/><path id="path118" class="cls-9" d="M174.12,184.76a3.17,3.17,0,0,0-.07-.61,1.63,1.63,0,0,0-.21-.56,1.31,1.31,0,0,0-.35-.42A.85.85,0,0,0,173,183a.64.64,0,0,0-.35.1,2.09,2.09,0,0,0-.32.25l-.25.29-.1.21v2.75l.14,0,.22,0,.25,0,.21,0a1,1,0,0,0,.57-.19,2,2,0,0,0,.42-.48,2.45,2.45,0,0,0,.26-.64A2.61,2.61,0,0,0,174.12,184.76Zm.64,0a3.39,3.39,0,0,1-.12.88,2.41,2.41,0,0,1-.38.79,2.05,2.05,0,0,1-.62.59,1.62,1.62,0,0,1-.86.22l-.34,0-.43-.06-.41-.07-.27-.06v-6.28H172v2.49l.12-.17.24-.25a1.66,1.66,0,0,1,.34-.22.9.9,0,0,1,.39-.1,1.44,1.44,0,0,1,.79.22,1.79,1.79,0,0,1,.53.53,2.25,2.25,0,0,1,.3.73,3.46,3.46,0,0,1,.09.78"/><path id="path120" class="cls-9" d="M178.36,184.06a2,2,0,0,0-.18-.5,1.13,1.13,0,0,0-.32-.4.71.71,0,0,0-.47-.17.68.68,0,0,0-.46.16,1.14,1.14,0,0,0-.33.39,2.15,2.15,0,0,0-.19.5,1.81,1.81,0,0,0-.07.49h2.08a2.23,2.23,0,0,0-.06-.47Zm-2,.92a3.15,3.15,0,0,0,.07.58,2.78,2.78,0,0,0,.21.57,1.45,1.45,0,0,0,.37.44.84.84,0,0,0,.54.18,2.45,2.45,0,0,0,.38,0l.34-.1a1.69,1.69,0,0,0,.27-.11l.19-.1.19.52-.19.08-.31.11-.41.09a2.59,2.59,0,0,1-.48,0,1.57,1.57,0,0,1-.88-.23,1.61,1.61,0,0,1-.54-.59,2.73,2.73,0,0,1-.29-.8,5.19,5.19,0,0,1-.08-.86,2.81,2.81,0,0,1,.11-.73,2.72,2.72,0,0,1,.32-.74,2.14,2.14,0,0,1,.52-.56,1.22,1.22,0,0,1,.73-.23,1.37,1.37,0,0,1,.77.22,1.68,1.68,0,0,1,.51.55,2.46,2.46,0,0,1,.28.73,3.35,3.35,0,0,1,.09.76V185h-2.71"/><path id="path122" class="cls-9" d="M182.19,183.21l-.17-.08-.18,0a.74.74,0,0,0-.35.1,1.61,1.61,0,0,0-.28.24l-.21.27-.09.19v3.25h-.62v-4.52h.59v.63l.1-.15.21-.26a1.65,1.65,0,0,1,.32-.23.93.93,0,0,1,.42-.1l.25.05.2.09-.19.57"/><path id="path124" class="cls-9" d="M185.57,184.06a1.17,1.17,0,0,0-.25-.79.8.8,0,0,0-.67-.31.87.87,0,0,0-.4.09.86.86,0,0,0-.29.25,1.06,1.06,0,0,0-.18.35,1.4,1.4,0,0,0-.06.41,1.83,1.83,0,0,0,.05.47,1.16,1.16,0,0,0,.15.38.91.91,0,0,0,.29.26,1,1,0,0,0,.44.09.79.79,0,0,0,.42-.11.89.89,0,0,0,.29-.29,1,1,0,0,0,.16-.38A1.51,1.51,0,0,0,185.57,184.06Zm.33,3.81a.68.68,0,0,0-.36-.58,1.63,1.63,0,0,0-.89-.23,1.61,1.61,0,0,0-.44.06,1.48,1.48,0,0,0-.38.18,1,1,0,0,0-.26.25.63.63,0,0,0-.1.32.66.66,0,0,0,.09.33.92.92,0,0,0,.24.28,1,1,0,0,0,.37.19,1.43,1.43,0,0,0,.48.07,1.53,1.53,0,0,0,.49-.07,1.66,1.66,0,0,0,.4-.2.86.86,0,0,0,.26-.28.55.55,0,0,0,.1-.32Zm-.07-4.82.1.14.13.22c0,.09.07.19.1.3a1.34,1.34,0,0,1,0,.35,2,2,0,0,1-.11.65,1.65,1.65,0,0,1-.33.52,1.6,1.6,0,0,1-.49.36,1.44,1.44,0,0,1-.62.13l-.21,0-.22.1-.17.13-.06.15a.4.4,0,0,0,.18.33.88.88,0,0,0,.48.12,2.82,2.82,0,0,1,.71.09,2.16,2.16,0,0,1,.6.25,1.24,1.24,0,0,1,.41.41.93.93,0,0,1,.16.54.94.94,0,0,1-.14.47,1.68,1.68,0,0,1-.38.43,2.08,2.08,0,0,1-.59.32,2.39,2.39,0,0,1-.77.12,2.3,2.3,0,0,1-.71-.1,1.87,1.87,0,0,1-.57-.26,1.25,1.25,0,0,1-.36-.4,1,1,0,0,1-.14-.5.81.81,0,0,1,.14-.46,1.19,1.19,0,0,1,.33-.34,1.64,1.64,0,0,1,.39-.21,1.45,1.45,0,0,1,.32-.09l-.17,0-.21-.11-.18-.19a.49.49,0,0,1-.08-.28l.07-.21.17-.18.21-.14.17-.07a1.62,1.62,0,0,1-.29-.15,1.37,1.37,0,0,1-.31-.29,1.53,1.53,0,0,1-.24-.46,1.83,1.83,0,0,1-.1-.66,1.46,1.46,0,0,1,.12-.57,1.61,1.61,0,0,1,.83-.85,1.4,1.4,0,0,1,.61-.14,2.58,2.58,0,0,1,.39,0l.26.07h1.28v.44h-.75"/><path id="path126" class="cls-9" d="M116.1,174.11a2.72,2.72,0,0,0-.16-1,2.44,2.44,0,0,0-.43-.74,1.9,1.9,0,0,0-.63-.46,1.73,1.73,0,0,0-.74-.16h-.74v4.94h.77a1.57,1.57,0,0,0,.76-.2,2,2,0,0,0,.61-.56,2.52,2.52,0,0,0,.41-.82A3.31,3.31,0,0,0,116.1,174.11Zm.68,0a3.78,3.78,0,0,1-.2,1.23,3,3,0,0,1-.55,1,2.52,2.52,0,0,1-.82.67,2.26,2.26,0,0,1-1,.24h-1.44v-6h1.31a2.9,2.9,0,0,1,1.07.19,2.48,2.48,0,0,1,.87.57,2.63,2.63,0,0,1,.58.9,3.3,3.3,0,0,1,.21,1.21"/><path id="path128" class="cls-9" d="M120.42,177.24v-.64l-.12.18a1.5,1.5,0,0,1-.6.47,1,1,0,0,1-.45.1,1.39,1.39,0,0,1-.63-.13,1.37,1.37,0,0,1-.44-.34,1.42,1.42,0,0,1-.25-.49,2.25,2.25,0,0,1-.08-.58v-3.09h.62v3a1.75,1.75,0,0,0,0,.4,1,1,0,0,0,.15.34.75.75,0,0,0,.26.24.72.72,0,0,0,.4.1.8.8,0,0,0,.4-.11,1.81,1.81,0,0,0,.33-.26l.23-.29.1-.2v-3.26H121v4.52h-.59"/><path id="path130" class="cls-9" d="M124.82,174.9l-.76.16a2.75,2.75,0,0,0-.4.14,1.79,1.79,0,0,0-.39.21,1.14,1.14,0,0,0-.29.29.59.59,0,0,0-.12.35.76.76,0,0,0,.23.6.79.79,0,0,0,.56.21.92.92,0,0,0,.4-.08,1.38,1.38,0,0,0,.35-.22,1.19,1.19,0,0,0,.27-.28l.15-.28Zm0,2.34v-.64l-.13.18a1.69,1.69,0,0,1-.27.26,2.36,2.36,0,0,1-.39.22,1.27,1.27,0,0,1-.47.09,1.43,1.43,0,0,1-1-.33,1.18,1.18,0,0,1-.38-.94.92.92,0,0,1,.16-.53,1.72,1.72,0,0,1,.43-.42,3.26,3.26,0,0,1,.55-.31,4.09,4.09,0,0,1,.57-.18l.88-.2v-.29a1.16,1.16,0,0,0-.24-.75.87.87,0,0,0-.72-.3,1.05,1.05,0,0,0-.33.06,2,2,0,0,0-.34.12l-.29.13-.17.09-.19-.48.17-.09.33-.14a3.37,3.37,0,0,1,.41-.12,1.89,1.89,0,0,1,.47-.06A1.5,1.5,0,0,1,125,173a1.43,1.43,0,0,1,.41,1.12v3.12h-.57"/><path id="path132" class="cls-9" d="M128.2,177.31a1.13,1.13,0,0,1-.3,0,.93.93,0,0,1-.44-.09.73.73,0,0,1-.28-.24.94.94,0,0,1-.14-.34,1.93,1.93,0,0,1,0-.42v-5.4h.62v5.35a1.18,1.18,0,0,0,.07.45.26.26,0,0,0,.25.17l.16-.05.13-.09.19.53a.81.81,0,0,1-.22.09"/><path id="path134" class="cls-9" d="M131.86,174.17a2,2,0,0,0-.18-.5,1.26,1.26,0,0,0-.32-.4.72.72,0,0,0-.48-.17.7.7,0,0,0-.46.16,1.12,1.12,0,0,0-.32.39,2.18,2.18,0,0,0-.2.5,2.25,2.25,0,0,0-.06.49h2.08A2.23,2.23,0,0,0,131.86,174.17Zm-2,.92a2.47,2.47,0,0,0,.07.58,2,2,0,0,0,.21.57,1.32,1.32,0,0,0,.37.44.84.84,0,0,0,.54.18,1.57,1.57,0,0,0,.37-.05,1.69,1.69,0,0,0,.34-.09l.28-.11.19-.11.19.53-.19.08-.31.11-.42.09a2.45,2.45,0,0,1-.48,0,1.57,1.57,0,0,1-.88-.23,1.7,1.7,0,0,1-.54-.59,2.46,2.46,0,0,1-.28-.8,4.36,4.36,0,0,1-.09-.87,2.8,2.8,0,0,1,.11-.72,2.72,2.72,0,0,1,.32-.74,2,2,0,0,1,.53-.56,1.17,1.17,0,0,1,.72-.23,1.4,1.4,0,0,1,.78.22,1.78,1.78,0,0,1,.51.55,2.45,2.45,0,0,1,.27.73,3.4,3.4,0,0,1,.09.75v.23h-2.7"/><path id="path136" class="cls-9" d="M139.62,177.24v-2.86h-2.48v2.86h-.66v-6h.66v2.6h2.48v-2.6h.66v6h-.66"/><path id="path138" class="cls-9" d="M144.62,174.86a2.68,2.68,0,0,0-.06-.52,2.31,2.31,0,0,0-.19-.56,1.48,1.48,0,0,0-.35-.46.76.76,0,0,0-.54-.19.79.79,0,0,0-.53.18,1.36,1.36,0,0,0-.35.44,1.91,1.91,0,0,0-.19.57,2.78,2.78,0,0,0-.06.54,4.8,4.8,0,0,0,0,.62,3.17,3.17,0,0,0,.18.64,1.41,1.41,0,0,0,.35.51.78.78,0,0,0,.56.21.75.75,0,0,0,.55-.21,1.57,1.57,0,0,0,.36-.51,3.17,3.17,0,0,0,.18-.64A5,5,0,0,0,144.62,174.86Zm.64,0a4,4,0,0,1-.09.81,3.14,3.14,0,0,1-.3.81,1.83,1.83,0,0,1-.55.62,1.37,1.37,0,0,1-.84.25,1.41,1.41,0,0,1-.86-.25,1.89,1.89,0,0,1-.55-.61,3.12,3.12,0,0,1-.29-.81,4.83,4.83,0,0,1-.08-.82,2.67,2.67,0,0,1,.1-.69,2.47,2.47,0,0,1,.31-.73,2.1,2.1,0,0,1,.56-.59,1.34,1.34,0,0,1,.81-.24,1.44,1.44,0,0,1,.85.24,1.87,1.87,0,0,1,.55.57,2.48,2.48,0,0,1,.29.74,3.2,3.2,0,0,1,.09.7"/><path id="path140" class="cls-9" d="M149.18,177.11l-.27.11-.38.09a2,2,0,0,1-.43,0,1.51,1.51,0,0,1-.82-.21,1.76,1.76,0,0,1-.55-.57,2.55,2.55,0,0,1-.3-.8,4.6,4.6,0,0,1-.09-.91,2.63,2.63,0,0,1,.48-1.5,1.89,1.89,0,0,1,.56-.53,1.26,1.26,0,0,1,.74-.22,2.33,2.33,0,0,1,.38,0,1.53,1.53,0,0,1,.34.09l.26.09.13.08-.19.52-.13-.07-.23-.11-.29-.09-.27,0a.75.75,0,0,0-.48.16,1.48,1.48,0,0,0-.36.42,2.11,2.11,0,0,0-.22.56,2.53,2.53,0,0,0-.08.59,3.35,3.35,0,0,0,.07.71,2.4,2.4,0,0,0,.2.64,1.24,1.24,0,0,0,.36.45.81.81,0,0,0,.53.18,1,1,0,0,0,.29,0,1.49,1.49,0,0,0,.3-.09l.25-.11.17-.1.18.53-.15.08"/><path id="path142" class="cls-9" d="M153.08,177.24v-3a1.31,1.31,0,0,0-.06-.38,1.14,1.14,0,0,0-.17-.35.81.81,0,0,0-.27-.25.7.7,0,0,0-.38-.1.83.83,0,0,0-.41.1,1.72,1.72,0,0,0-.34.24l-.24.29-.1.22v3.26h-.62v-6.38h.62v2.49l.11-.17a1.47,1.47,0,0,1,.25-.25,1.65,1.65,0,0,1,.36-.22,1.09,1.09,0,0,1,.44-.1,1.54,1.54,0,0,1,.63.13,1.43,1.43,0,0,1,.45.35,1.77,1.77,0,0,1,.26.49,1.82,1.82,0,0,1,.09.56v3.1h-.62"/><path id="path144" class="cls-9" d="M157.8,176a1.25,1.25,0,0,1-.12.54,1.3,1.3,0,0,1-.32.42,1.27,1.27,0,0,1-.48.28,1.56,1.56,0,0,1-.57.1,3.73,3.73,0,0,1-.5,0,2.74,2.74,0,0,1-.41-.1l-.32-.1-.2-.09.19-.51.18.09.31.11.38.1a1.59,1.59,0,0,0,.36,0,1,1,0,0,0,.59-.19.65.65,0,0,0,.26-.55.48.48,0,0,0-.16-.36,1.81,1.81,0,0,0-.39-.3l-.52-.3a5.13,5.13,0,0,1-.52-.32,1.57,1.57,0,0,1-.39-.38A.76.76,0,0,1,155,174a1.46,1.46,0,0,1,.11-.55,1.37,1.37,0,0,1,.33-.43,1.42,1.42,0,0,1,.46-.28,1.69,1.69,0,0,1,.56-.1,2.2,2.2,0,0,1,.36,0l.34.08a1.28,1.28,0,0,1,.26.1l.15.08-.18.5-.15-.09-.23-.11-.29-.08-.27,0a.87.87,0,0,0-.59.21.72.72,0,0,0-.24.57.5.5,0,0,0,.16.36,1.9,1.9,0,0,0,.4.33l.52.3a5.31,5.31,0,0,1,.53.32,2,2,0,0,1,.4.37.78.78,0,0,1,.16.46"/><path id="path146" class="cls-9" d="M161.67,177.11l-.28.11-.37.09a2.12,2.12,0,0,1-.44,0,1.51,1.51,0,0,1-.82-.21,1.76,1.76,0,0,1-.55-.57,3.16,3.16,0,0,1-.3-.8,4.6,4.6,0,0,1-.09-.91,2.63,2.63,0,0,1,.12-.77,2.92,2.92,0,0,1,.36-.73,1.89,1.89,0,0,1,.56-.53,1.26,1.26,0,0,1,.74-.22,2.58,2.58,0,0,1,.39,0,1.69,1.69,0,0,1,.34.09l.25.09.13.08-.19.52-.13-.07-.23-.11-.28-.09-.28,0a.75.75,0,0,0-.48.16,1.48,1.48,0,0,0-.36.42,2.34,2.34,0,0,0-.29,1.15,4.17,4.17,0,0,0,.06.71,2.4,2.4,0,0,0,.2.64,1.35,1.35,0,0,0,.36.45.81.81,0,0,0,.53.18,1.08,1.08,0,0,0,.3,0,1.61,1.61,0,0,0,.29-.09l.25-.11.17-.1.19.53-.15.08"/><path id="path148" class="cls-9" d="M165.56,177.24v-3a1.31,1.31,0,0,0-.06-.38,1.39,1.39,0,0,0-.16-.35.84.84,0,0,0-.28-.25.7.7,0,0,0-.38-.1.86.86,0,0,0-.41.1,1.72,1.72,0,0,0-.34.24l-.24.29-.1.22v3.26H163v-6.38h.62v2.49l.11-.17a1.56,1.56,0,0,1,.26-.25,1.28,1.28,0,0,1,.36-.22,1,1,0,0,1,.43-.1,1.54,1.54,0,0,1,.63.13,1.43,1.43,0,0,1,.45.35,1.54,1.54,0,0,1,.26.49,1.82,1.82,0,0,1,.09.56v3.1h-.62"/><path id="path150" class="cls-9" d="M170.26,177.24v-.64l-.12.18a1.47,1.47,0,0,1-.25.25,1.74,1.74,0,0,1-.35.22,1,1,0,0,1-.45.1,1.39,1.39,0,0,1-.63-.13,1.27,1.27,0,0,1-.44-.34,1.42,1.42,0,0,1-.25-.49,1.89,1.89,0,0,1-.08-.58v-3.09h.62v3a1.75,1.75,0,0,0,.05.4,1,1,0,0,0,.15.34.67.67,0,0,0,.26.24.71.71,0,0,0,.39.1.84.84,0,0,0,.41-.11,1.81,1.81,0,0,0,.33-.26l.23-.29.1-.2v-3.26h.62v4.52h-.59"/><path id="path152" class="cls-9" d="M173.59,177.31a1.13,1.13,0,0,1-.3,0,.93.93,0,0,1-.44-.09.73.73,0,0,1-.28-.24.94.94,0,0,1-.14-.34,1.93,1.93,0,0,1,0-.42v-5.4H173v5.35a1.18,1.18,0,0,0,.07.45.25.25,0,0,0,.24.17l.17-.05.13-.09.19.53a.81.81,0,0,1-.22.09"/><path id="path154" class="cls-9" d="M177.2,174.17a2,2,0,0,0-.19-.5,1.13,1.13,0,0,0-.32-.4.71.71,0,0,0-.47-.17.68.68,0,0,0-.46.16,1.27,1.27,0,0,0-.33.39,2.15,2.15,0,0,0-.19.5,1.81,1.81,0,0,0-.07.49h2.08a3,3,0,0,0-.05-.47Zm-2,.92a3.15,3.15,0,0,0,.07.58,2.78,2.78,0,0,0,.21.57,1.45,1.45,0,0,0,.37.44.84.84,0,0,0,.54.18,1.65,1.65,0,0,0,.38-.05,1.89,1.89,0,0,0,.34-.09,2.49,2.49,0,0,0,.27-.11l.19-.11.19.53-.18.08-.32.11-.41.09a2.52,2.52,0,0,1-.48,0,1.57,1.57,0,0,1-.88-.23,1.61,1.61,0,0,1-.54-.59,2.73,2.73,0,0,1-.29-.8,5.21,5.21,0,0,1-.08-.87,2.8,2.8,0,0,1,.11-.72,2.72,2.72,0,0,1,.32-.74,2,2,0,0,1,.52-.56,1.22,1.22,0,0,1,.73-.23,1.37,1.37,0,0,1,.77.22,1.78,1.78,0,0,1,.51.55,2.46,2.46,0,0,1,.28.73,3.4,3.4,0,0,1,.09.75v.23h-2.71"/><path id="path156" class="cls-8" d="M125.92,153.08a11.14,11.14,0,0,0-.43-3.17,7.25,7.25,0,0,0-1.26-2.55,6.18,6.18,0,0,0-2-1.69,5.64,5.64,0,0,0-2.66-.62h-2.67v17.1h2.45a5.48,5.48,0,0,0,2.71-.68,6.4,6.4,0,0,0,2.08-1.88,9.32,9.32,0,0,0,1.33-2.86A13.51,13.51,0,0,0,125.92,153.08Zm4.31,0a15.41,15.41,0,0,1-.77,4.94,11.7,11.7,0,0,1-2.15,3.92,9.5,9.5,0,0,1-3.37,2.57,10.38,10.38,0,0,1-4.44.93h-5.93a.86.86,0,0,1-.63-.25.93.93,0,0,1-.23-.64v-21.9a.93.93,0,0,1,.23-.64.82.82,0,0,1,.63-.25h5.89a11.4,11.4,0,0,1,4.41.82,9.46,9.46,0,0,1,3.39,2.31,10.29,10.29,0,0,1,2.18,3.56,12.89,12.89,0,0,1,.79,4.63"/><path id="path158" class="cls-8" d="M150.55,165.19a.9.9,0,0,1-.64.25h-2.44a.82.82,0,0,1-.62-.25.93.93,0,0,1-.23-.64v-9.74h-8.2v9.74a.84.84,0,0,1-.88.89H135.1a.82.82,0,0,1-.62-.25.93.93,0,0,1-.23-.64v-21.9a.93.93,0,0,1,.23-.64.79.79,0,0,1,.62-.25h2.44a.86.86,0,0,1,.64.25.89.89,0,0,1,.24.64v8.69h8.2v-8.69a.93.93,0,0,1,.23-.64.79.79,0,0,1,.62-.25h2.44a.86.86,0,0,1,.64.25.9.9,0,0,1,.25.64v21.9a.9.9,0,0,1-.25.64"/><path id="path160" class="cls-9" d="M167.33,158.52a4,4,0,0,0-1.4-3.25,5.47,5.47,0,0,0-3.65-1.19h-3.87v9.27h3.87a5.37,5.37,0,0,0,2-.36,4.78,4.78,0,0,0,1.62-1,4.58,4.58,0,0,0,1.08-1.52A4.86,4.86,0,0,0,167.33,158.52Zm-.57-10.73a3.59,3.59,0,0,0-1.24-2.88,4.83,4.83,0,0,0-3.24-1.06h-3.87v8.2h3.76a4.76,4.76,0,0,0,1.71-.32,5.06,5.06,0,0,0,1.46-.89,4.57,4.57,0,0,0,1-1.35,3.76,3.76,0,0,0,.39-1.7ZM170,158.62a6.32,6.32,0,0,1-.64,2.88,6.21,6.21,0,0,1-1.76,2.15A8.29,8.29,0,0,1,165,165a10.93,10.93,0,0,1-3.16.46h-5.43a.61.61,0,0,1-.61-.61v-22.5a.54.54,0,0,1,.18-.41.6.6,0,0,1,.43-.16h5.86a10,10,0,0,1,2.68.36,6.77,6.77,0,0,1,2.28,1.08,5.31,5.31,0,0,1,1.56,1.85,5.59,5.59,0,0,1,.58,2.64,4.16,4.16,0,0,1-.42,1.83,6.75,6.75,0,0,1-1.07,1.56,7.07,7.07,0,0,1-1.41,1.17,6,6,0,0,1-1.47.69,6.61,6.61,0,0,1,1.9.66,5.91,5.91,0,0,1,1.59,1.22,5.81,5.81,0,0,1,1.1,1.72,5.22,5.22,0,0,1,.41,2.08"/><path id="path162" class="cls-9" d="M191.05,164.83a1,1,0,0,1-.25.43.58.58,0,0,1-.43.18H188.6a.64.64,0,0,1-.45-.18.84.84,0,0,1-.26-.43L184,145l-3.86,19.84a.84.84,0,0,1-.26.43.64.64,0,0,1-.45.18h-1.77a.64.64,0,0,1-.44-.18.86.86,0,0,1-.27-.43l-4.56-22.5a.4.4,0,0,1,.09-.41.54.54,0,0,1,.41-.16h1.49a.67.67,0,0,1,.71.57l3.56,19.88,3.86-19.88a.67.67,0,0,1,.71-.57H185a.66.66,0,0,1,.68.57l3.89,19.88,3.53-19.88a.65.65,0,0,1,.67-.57h1.42a.47.47,0,0,1,.39.16.39.39,0,0,1,.07.41l-4.55,22.5"/></g></g></g></g></svg>